<?xml version="1.0" encoding="UTF-8" standalone="no" ?>
<!DOCTYPE svg PUBLIC "-//W3C//DTD SVG 1.1//EN" "http://www.w3.org/Graphics/SVG/1.1/DTD/svg11.dtd">
<svg xmlns="http://www.w3.org/2000/svg" xmlns:xlink="http://www.w3.org/1999/xlink" version="1.1" width="1080" height="1080" viewBox="0 0 1080 1080" xml:space="preserve">
<desc>Created with Fabric.js 5.2.4</desc>
<defs>
</defs>
<rect x="0" y="0" width="100%" height="100%" fill="transparent"></rect>
<g transform="matrix(1 0 0 1 540 540)" id="48a49684-8c1f-4f7a-a0c5-b17252756d93"  >
<rect style="stroke: none; stroke-width: 1; stroke-dasharray: none; stroke-linecap: butt; stroke-dashoffset: 0; stroke-linejoin: miter; stroke-miterlimit: 4; fill: rgb(255,255,255); fill-rule: nonzero; opacity: 1; visibility: hidden;" vector-effect="non-scaling-stroke"  x="-540" y="-540" rx="0" ry="0" width="1080" height="1080" />
</g>
<g transform="matrix(1 0 0 1 540 540)" id="17423e1d-743e-4fcc-8611-a9f922f344fa"  >
</g>
<g transform="matrix(5.1 0 0 5.1 539.18 542.33)"  >
<g style="" vector-effect="non-scaling-stroke"   >
		<g transform="matrix(1 0 0 1 1.65 1.55)"  >
<path style="stroke: none; stroke-width: 1; stroke-dasharray: none; stroke-linecap: butt; stroke-dashoffset: 0; stroke-linejoin: miter; stroke-miterlimit: 4; fill: rgb(255,49,49); fill-rule: nonzero; opacity: 1;" vector-effect="non-scaling-stroke"  transform=" translate(-142.85, -145)" d="M 46.8 222.1 L 63.099999999999994 238.4 L 62.8 238.1 C 64.6 239.9 67 241 69.7 241 L 229 241 C 231.7 241 234.2 239.9 236 238.1 C 237.8 236.29999999999998 238.9 233.9 238.9 231.2 L 238.9 72 C 238.9 69.3 237.8 66.8 236 65 L 236.2 65.1 L 220 49" stroke-linecap="round" />
</g>
		<g transform="matrix(1 0 0 1 1.57 1.64)" clip-path="url(#CLIPPATH_8)"  >
<clipPath id="CLIPPATH_8" >
	<rect transform="matrix(1 0 0 1 -0.12 -0.74)" id="SVGID_2_" x="-98.65" y="-99.05" rx="0" ry="0" width="197.3" height="198.1" />
</clipPath>
<path style="stroke: none; stroke-width: 1; stroke-dasharray: none; stroke-linecap: butt; stroke-dashoffset: 0; stroke-linejoin: miter; stroke-miterlimit: 4; fill: rgb(0,0,0); fill-rule: nonzero; opacity: 1;" vector-effect="non-scaling-stroke"  transform=" translate(-142.77, -145.09)" d="M 229 243.5 L 69.8 243.5 C 66.8 243.5 63.9 242.4 61.699999999999996 240.4 C 61.599999999999994 240.4 61.599999999999994 240.3 61.49999999999999 240.3 L 61.39999999999999 240.20000000000002 C 61.29999999999999 240.10000000000002 61.19999999999999 240.00000000000003 61.099999999999994 239.9 C 60.99999999999999 239.9 60.99999999999999 239.8 60.99999999999999 239.70000000000002 L 45.099999999999994 223.8 C 44.099999999999994 222.9 44.099999999999994 221.3 45.099999999999994 220.4 C 45.99999999999999 219.5 47.599999999999994 219.5 48.49999999999999 220.4 L 64.8 236.70000000000002 C 66.2 237.9 67.89999999999999 238.60000000000002 69.8 238.60000000000002 L 229 238.60000000000002 C 231 238.60000000000002 232.8 237.8 234.2 236.40000000000003 C 235.6 235.00000000000003 236.39999999999998 233.10000000000002 236.39999999999998 231.20000000000005 L 236.39999999999998 72 C 236.39999999999998 70 235.59999999999997 68.2 234.2 66.8 C 234.1 66.7 234 66.6 233.89999999999998 66.39999999999999 L 218.2 50.79999999999999 C 217.29999999999998 49.79999999999999 217.2 48.29999999999999 218.2 47.39999999999999 C 219.2 46.49999999999999 220.7 46.39999999999999 221.6 47.39999999999999 L 237.79999999999998 63.49999999999999 C 237.99999999999997 63.599999999999994 238.1 63.79999999999999 238.2 63.99999999999999 C 240.1 66.19999999999999 241.2 69.1 241.2 72.1 L 241.2 231.29999999999998 C 241.2 234.6 239.89999999999998 237.7 237.6 239.99999999999997 C 235.4 242.2 232.3 243.5 229 243.5 L 229 243.5 z" stroke-linecap="round" />
</g>
		<g transform="matrix(1 0 0 1 -8.1 -8.15)"  >
<path style="stroke: none; stroke-width: 1; stroke-dasharray: none; stroke-linecap: butt; stroke-dashoffset: 0; stroke-linejoin: miter; stroke-miterlimit: 4; fill: rgb(255,255,255); fill-rule: nonzero; opacity: 1;" vector-effect="non-scaling-stroke"  transform=" translate(-133.1, -135.3)" d="M 53.5 45.9 L 212.7 45.9 C 213.29999999999998 45.9 214 46 214.6 46.1 C 215.2 46.2 215.79999999999998 46.4 216.4 46.7 C 217 46.900000000000006 217.6 47.300000000000004 218.1 47.6 C 218.6 47.9 219.1 48.4 219.6 48.800000000000004 C 220.1 49.300000000000004 220.5 49.800000000000004 220.79999999999998 50.300000000000004 C 221.2 50.800000000000004 221.49999999999997 51.400000000000006 221.7 52.00000000000001 C 221.89999999999998 52.60000000000001 222.1 53.20000000000001 222.29999999999998 53.800000000000004 C 222.39999999999998 54.400000000000006 222.49999999999997 55.1 222.49999999999997 55.7 L 222.49999999999997 214.89999999999998 C 222.49999999999997 215.49999999999997 222.39999999999998 216.2 222.29999999999998 216.79999999999998 C 222.2 217.39999999999998 221.99999999999997 217.99999999999997 221.7 218.6 C 221.5 219.2 221.1 219.79999999999998 220.79999999999998 220.29999999999998 C 220.39999999999998 220.79999999999998 219.99999999999997 221.29999999999998 219.6 221.79999999999998 C 219.1 222.29999999999998 218.6 222.7 218.1 222.99999999999997 C 217.6 223.29999999999995 217 223.69999999999996 216.4 223.89999999999998 C 215.8 224.09999999999997 215.20000000000002 224.29999999999998 214.6 224.49999999999997 C 214 224.59999999999997 213.29999999999998 224.69999999999996 212.7 224.69999999999996 L 53.5 224.69999999999996 C 52.9 224.69999999999996 52.2 224.59999999999997 51.6 224.49999999999997 C 51 224.39999999999998 50.4 224.19999999999996 49.800000000000004 223.89999999999998 C 49.2 223.7 48.6 223.39999999999998 48.1 222.99999999999997 C 47.6 222.59999999999997 47.1 222.19999999999996 46.6 221.79999999999998 C 46.1 221.29999999999998 45.7 220.79999999999998 45.4 220.29999999999998 C 45.099999999999994 219.79999999999998 44.699999999999996 219.2 44.5 218.6 C 44.3 218 44.1 217.4 43.9 216.79999999999998 C 43.8 216.2 43.699999999999996 215.49999999999997 43.699999999999996 214.89999999999998 L 43.699999999999996 55.7 C 43.699999999999996 55.1 43.8 54.400000000000006 43.9 53.800000000000004 C 44 53.2 44.199999999999996 52.6 44.5 52.00000000000001 C 44.7 51.400000000000006 45 50.800000000000004 45.4 50.300000000000004 C 45.8 49.800000000000004 46.199999999999996 49.300000000000004 46.6 48.800000000000004 C 47.1 48.300000000000004 47.6 47.900000000000006 48.1 47.6 C 48.6 47.3 49.2 46.9 49.800000000000004 46.7 C 50.400000000000006 46.5 51.00000000000001 46.300000000000004 51.6 46.1 C 52.2 46 52.9 45.9 53.5 45.9 z" stroke-linecap="round" />
</g>
		<g transform="matrix(1 0 0 1 -75.75 72)" clip-path="url(#CLIPPATH_9)"  >
<clipPath id="CLIPPATH_9" >
	<rect transform="matrix(1 0 0 1 0.55 -0.1)" id="SVGID_4_" x="-24.7" y="-12.65" rx="0" ry="0" width="49.4" height="25.3" />
</clipPath>
<path style="stroke: none; stroke-width: 1; stroke-dasharray: none; stroke-linecap: butt; stroke-dashoffset: 0; stroke-linejoin: miter; stroke-miterlimit: 4; fill: rgb(0,0,0); fill-rule: nonzero; opacity: 1;" vector-effect="non-scaling-stroke"  transform=" translate(-65.45, -215.45)" d="M 87.4 227.2 L 53.5 227.2 C 46.7 227.2 41.2 221.7 41.2 214.89999999999998 L 41.2 206.09999999999997 C 41.2 204.69999999999996 42.300000000000004 203.69999999999996 43.6 203.69999999999996 C 44.9 203.69999999999996 46 204.79999999999995 46 206.09999999999997 L 46 214.89999999999998 C 46 218.99999999999997 49.3 222.29999999999998 53.4 222.29999999999998 L 87.3 222.29999999999998 C 88.6 222.29999999999998 89.7 223.39999999999998 89.7 224.7 C 89.8 226.1 88.8 227.2 87.4 227.2 z" stroke-linecap="round" />
</g>
		<g transform="matrix(1 0 0 1 21.25 25.4)"  >
<path style="stroke: none; stroke-width: 1; stroke-dasharray: none; stroke-linecap: butt; stroke-dashoffset: 0; stroke-linejoin: miter; stroke-miterlimit: 4; fill: rgb(0,0,0); fill-rule: nonzero; opacity: 1;" vector-effect="non-scaling-stroke"  transform=" translate(-162.45, -168.85)" d="M 212.7 227.2 L 102.3 227.2 C 101 227.2 99.89999999999999 226.1 99.89999999999999 224.79999999999998 C 99.89999999999999 223.49999999999997 100.99999999999999 222.39999999999998 102.3 222.39999999999998 L 212.8 222.39999999999998 C 216.9 222.39999999999998 220.20000000000002 219.09999999999997 220.20000000000002 214.99999999999997 L 220.20000000000002 112.9 C 220.20000000000002 111.60000000000001 221.3 110.5 222.60000000000002 110.5 C 223.90000000000003 110.5 225.00000000000003 111.6 225.00000000000003 112.9 L 225.00000000000003 215 C 225 221.7 219.5 227.2 212.7 227.2 z" stroke-linecap="round" />
</g>
		<g transform="matrix(1 0 0 1 -8 -23.75)" clip-path="url(#CLIPPATH_10)"  >
<clipPath id="CLIPPATH_10" >
	<rect transform="matrix(1 0 0 1 0.15 0.75)" id="SVGID_6_" x="-92.05" y="-76.95" rx="0" ry="0" width="184.1" height="153.9" />
</clipPath>
<path style="stroke: none; stroke-width: 1; stroke-dasharray: none; stroke-linecap: butt; stroke-dashoffset: 0; stroke-linejoin: miter; stroke-miterlimit: 4; fill: rgb(0,0,0); fill-rule: nonzero; opacity: 1;" vector-effect="non-scaling-stroke"  transform=" translate(-133.2, -119.7)" d="M 43.7 196 C 42.400000000000006 196 41.300000000000004 194.9 41.300000000000004 193.6 L 41.300000000000004 55.7 C 41.300000000000004 48.900000000000006 46.800000000000004 43.400000000000006 53.60000000000001 43.400000000000006 L 212.8 43.400000000000006 C 219.60000000000002 43.400000000000006 225.10000000000002 48.900000000000006 225.10000000000002 55.7 L 225.10000000000002 93.30000000000001 C 225.10000000000002 94.60000000000001 224.00000000000003 95.70000000000002 222.70000000000002 95.70000000000002 C 221.3 95.70000000000002 220.3 94.60000000000002 220.3 93.30000000000001 L 220.3 55.7 C 220.3 51.6 217 48.300000000000004 212.9 48.300000000000004 L 53.5 48.300000000000004 C 49.4 48.300000000000004 46.1 51.6 46.1 55.7 L 46.1 193.60000000000002 C 46.1 194.9 45.1 196 43.7 196 z" stroke-linecap="round" />
</g>
		<g transform="matrix(1 0 0 1 -6.9 -9.55)" clip-path="url(#CLIPPATH_11)"  >
<clipPath id="CLIPPATH_11" >
	<rect transform="matrix(1 0 0 1 -0.1 -0.1)" id="SVGID_8_" x="-50" y="-50" rx="0" ry="0" width="100" height="100" />
</clipPath>
<path style="stroke: none; stroke-width: 1; stroke-dasharray: none; stroke-linecap: butt; stroke-dashoffset: 0; stroke-linejoin: miter; stroke-miterlimit: 4; fill: rgb(0,0,0); fill-rule: nonzero; opacity: 1;" vector-effect="non-scaling-stroke"  transform=" translate(-134.3, -133.9)" d="M 134.3 83.8 C 148.10000000000002 83.8 160.70000000000002 89.39999999999999 169.70000000000002 98.5 C 178.8 107.6 184.4 120.1 184.4 133.9 C 184.4 147.70000000000002 178.8 160.3 169.70000000000002 169.3 C 160.60000000000002 178.4 148.10000000000002 184 134.3 184 C 120.50000000000001 184 107.9 178.4 98.9 169.3 C 89.80000000000001 160.20000000000002 84.2 147.70000000000002 84.2 133.9 C 84.2 120.10000000000001 89.8 107.5 98.9 98.5 C 107.9 89.4 120.4 83.8 134.3 83.8 z M 165.8 102.4 C 157.70000000000002 94.30000000000001 146.60000000000002 89.4 134.3 89.4 C 122.00000000000001 89.4 110.9 94.4 102.80000000000001 102.4 C 94.70000000000002 110.5 89.80000000000001 121.60000000000001 89.80000000000001 133.9 C 89.80000000000001 146.20000000000002 94.80000000000001 157.3 102.80000000000001 165.4 C 110.9 173.5 122.00000000000001 178.4 134.3 178.4 C 146.60000000000002 178.4 157.70000000000002 173.4 165.8 165.4 C 173.9 157.3 178.8 146.20000000000002 178.8 133.9 C 178.8 121.6 173.8 110.5 165.8 102.4" stroke-linecap="round" />
</g>
		<g transform="matrix(1 0 0 1 -6.85 -9.5)" clip-path="url(#CLIPPATH_12)"  >
<clipPath id="CLIPPATH_12" >
	<circle transform="matrix(1 0 0 1 -0.05 -0.05)" id="SVGID_12_" clip-path="url(#undefined)" cx="0" cy="0" r="45.3" />
</clipPath>
<path style="stroke: none; stroke-width: 1; stroke-dasharray: none; stroke-linecap: butt; stroke-dashoffset: 0; stroke-linejoin: miter; stroke-miterlimit: 4; fill: rgb(255,49,49); fill-rule: nonzero; opacity: 1;" vector-effect="non-scaling-stroke"  transform=" translate(-134.35, -133.95)" d="M 89 88.6 L 179.7 88.6 L 179.7 179.3 L 89 179.3 L 89 88.6 z" stroke-linecap="round" />
</g>
</g>
</g>
</svg>