<?xml version="1.0" encoding="UTF-8" standalone="no" ?>
<!DOCTYPE svg PUBLIC "-//W3C//DTD SVG 1.1//EN" "http://www.w3.org/Graphics/SVG/1.1/DTD/svg11.dtd">
<svg xmlns="http://www.w3.org/2000/svg" xmlns:xlink="http://www.w3.org/1999/xlink" version="1.1" width="1080" height="1080" viewBox="0 0 1080 1080" xml:space="preserve">
<desc>Created with Fabric.js 5.2.4</desc>
<defs>
</defs>
<rect x="0" y="0" width="100%" height="100%" fill="transparent"></rect>
<g transform="matrix(1 0 0 1 540 540)" id="48a49684-8c1f-4f7a-a0c5-b17252756d93"  >
<rect style="stroke: none; stroke-width: 1; stroke-dasharray: none; stroke-linecap: butt; stroke-dashoffset: 0; stroke-linejoin: miter; stroke-miterlimit: 4; fill: rgb(255,255,255); fill-rule: nonzero; opacity: 1; visibility: hidden;" vector-effect="non-scaling-stroke"  x="-540" y="-540" rx="0" ry="0" width="1080" height="1080" />
</g>
<g transform="matrix(1 0 0 1 540 540)" id="17423e1d-743e-4fcc-8611-a9f922f344fa"  >
</g>
<g transform="matrix(5.07 0 0 5.07 540.8 541.8)"  >
<g style="" vector-effect="non-scaling-stroke"   >
		<g transform="matrix(1 0 0 1 1.6 1.6)"  >
<path style="stroke: none; stroke-width: 1; stroke-dasharray: none; stroke-linecap: butt; stroke-dashoffset: 0; stroke-linejoin: miter; stroke-miterlimit: 4; fill: rgb(0,191,99); fill-rule: nonzero; opacity: 1;" vector-effect="non-scaling-stroke"  transform=" translate(-360.3, -358.1)" d="M 264.3 435.2 L 280.6 451.5 L 280.3 451.2 C 282.1 453 284.5 454.09999999999997 287.3 454.09999999999997 L 446.5 454.09999999999997 C 449.2 454.09999999999997 451.7 452.99999999999994 453.4 451.2 C 455.09999999999997 449.40000000000003 456.29999999999995 447 456.29999999999995 444.2 L 456.29999999999995 285.1 C 456.29999999999995 282.40000000000003 455.19999999999993 279.90000000000003 453.4 278.1 L 453.59999999999997 278.20000000000005 L 437.4 262.1" stroke-linecap="round" />
</g>
		<g transform="matrix(1 0 0 1 1.57 1.62)" clip-path="url(#CLIPPATH_63)"  >
<clipPath id="CLIPPATH_63" >
	<rect transform="matrix(1 0 0 1 -0.27 -0.48)" id="SVGID_2_" x="-98.7" y="-98.95" rx="0" ry="0" width="197.4" height="197.9" />
</clipPath>
<path style="stroke: none; stroke-width: 1; stroke-dasharray: none; stroke-linecap: butt; stroke-dashoffset: 0; stroke-linejoin: miter; stroke-miterlimit: 4; fill: rgb(0,0,0); fill-rule: nonzero; opacity: 1;" vector-effect="non-scaling-stroke"  transform=" translate(-360.27, -358.13)" d="M 446.5 456.5 L 287.3 456.5 C 284.3 456.5 281.40000000000003 455.4 279.2 453.4 C 279.09999999999997 453.29999999999995 279.09999999999997 453.29999999999995 279 453.2 L 278.9 453.09999999999997 C 278.79999999999995 452.99999999999994 278.7 452.9 278.59999999999997 452.79999999999995 C 278.59999999999997 452.69999999999993 278.49999999999994 452.69999999999993 278.49999999999994 452.59999999999997 L 262.59999999999997 436.7 C 261.59999999999997 435.7 261.59999999999997 434.2 262.59999999999997 433.3 C 263.59999999999997 432.3 265.09999999999997 432.3 265.99999999999994 433.3 L 282.29999999999995 449.5 C 283.69999999999993 450.7 285.4 451.4 287.29999999999995 451.4 L 446.49999999999994 451.4 C 448.49999999999994 451.4 450.29999999999995 450.59999999999997 451.69999999999993 449.2 C 453.0999999999999 447.8 453.8999999999999 446 453.8999999999999 444 L 453.8999999999999 285.1 C 453.8999999999999 283.1 453.0999999999999 281.3 451.69999999999993 279.90000000000003 C 451.5999999999999 279.8 451.49999999999994 279.70000000000005 451.3999999999999 279.50000000000006 L 435.69999999999993 263.90000000000003 C 434.69999999999993 263.00000000000006 434.69999999999993 261.40000000000003 435.69999999999993 260.50000000000006 C 436.5999999999999 259.50000000000006 438.19999999999993 259.50000000000006 439.0999999999999 260.50000000000006 L 455.2999999999999 276.6000000000001 C 455.3999999999999 276.7000000000001 455.5999999999999 276.9000000000001 455.6999999999999 277.1000000000001 C 457.59999999999985 279.30000000000007 458.6999999999999 282.2000000000001 458.6999999999999 285.1000000000001 L 458.6999999999999 444.30000000000007 C 458.6999999999999 447.6000000000001 457.39999999999986 450.70000000000005 455.09999999999985 453.00000000000006 C 452.8 455.3 449.8 456.5 446.5 456.5 L 446.5 456.5 z" stroke-linecap="round" />
</g>
		<g transform="matrix(1 0 0 1 -8.1 -8.1)"  >
<path style="stroke: none; stroke-width: 1; stroke-dasharray: none; stroke-linecap: butt; stroke-dashoffset: 0; stroke-linejoin: miter; stroke-miterlimit: 4; fill: rgb(255,255,255); fill-rule: nonzero; opacity: 1;" vector-effect="non-scaling-stroke"  transform=" translate(-350.6, -348.4)" d="M 271 259 L 430.2 259 C 430.8 259 431.5 259.1 432.09999999999997 259.2 C 432.7 259.3 433.29999999999995 259.5 433.9 259.8 C 434.5 260 435.09999999999997 260.3 435.59999999999997 260.7 C 436.09999999999997 261.09999999999997 436.59999999999997 261.5 437.09999999999997 261.9 C 437.59999999999997 262.4 437.99999999999994 262.9 438.29999999999995 263.4 C 438.59999999999997 263.9 438.99999999999994 264.5 439.19999999999993 265.09999999999997 C 439.3999999999999 265.7 439.5999999999999 266.29999999999995 439.79999999999995 266.9 C 439.9 267.5 439.99999999999994 268.2 439.99999999999994 268.79999999999995 L 439.99999999999994 428 C 439.99999999999994 428.6 439.8999999999999 429.3 439.79999999999995 429.9 C 439.69999999999993 430.5 439.49999999999994 431.09999999999997 439.19999999999993 431.7 C 438.99999999999994 432.3 438.69999999999993 432.9 438.29999999999995 433.4 C 437.9 433.9 437.49999999999994 434.4 437.09999999999997 434.9 C 436.59999999999997 435.4 436.09999999999997 435.79999999999995 435.59999999999997 436.09999999999997 C 435.09999999999997 436.49999999999994 434.49999999999994 436.79999999999995 433.9 436.99999999999994 C 433.29999999999995 437.19999999999993 432.7 437.3999999999999 432.09999999999997 437.59999999999997 C 431.49999999999994 437.7 430.79999999999995 437.79999999999995 430.2 437.79999999999995 L 271 437.79999999999995 C 270.4 437.79999999999995 269.7 437.69999999999993 269.1 437.59999999999997 C 268.5 437.49999999999994 267.90000000000003 437.29999999999995 267.3 436.99999999999994 C 266.7 436.79999999999995 266.1 436.3999999999999 265.6 436.09999999999997 C 265.1 435.7 264.6 435.29999999999995 264.1 434.9 C 263.6 434.4 263.20000000000005 433.9 262.90000000000003 433.4 C 262.50000000000006 432.9 262.20000000000005 432.29999999999995 262.00000000000006 431.7 C 261.80000000000007 431.09999999999997 261.6000000000001 430.5 261.40000000000003 429.9 C 261.3 429.29999999999995 261.20000000000005 428.59999999999997 261.20000000000005 428 L 261.20000000000005 268.8 C 261.20000000000005 268.2 261.30000000000007 267.5 261.40000000000003 266.90000000000003 C 261.50000000000006 266.3 261.70000000000005 265.70000000000005 262.00000000000006 265.1 C 262.20000000000005 264.5 262.6000000000001 263.90000000000003 262.90000000000003 263.40000000000003 C 263.3 262.90000000000003 263.70000000000005 262.40000000000003 264.1 261.90000000000003 C 264.6 261.40000000000003 265.1 261.00000000000006 265.6 260.70000000000005 C 266.1 260.30000000000007 266.70000000000005 260.00000000000006 267.3 259.80000000000007 C 267.90000000000003 259.6000000000001 268.5 259.4000000000001 269.1 259.20000000000005 C 269.7 259 270.4 259 271 259 z" stroke-linecap="round" />
</g>
		<g transform="matrix(1 0 0 1 -75.75 72.05)" clip-path="url(#CLIPPATH_64)"  >
<clipPath id="CLIPPATH_64" >
	<rect transform="matrix(1 0 0 1 0.4 0.1)" id="SVGID_4_" x="-24.65" y="-12.65" rx="0" ry="0" width="49.3" height="25.3" />
</clipPath>
<path style="stroke: none; stroke-width: 1; stroke-dasharray: none; stroke-linecap: butt; stroke-dashoffset: 0; stroke-linejoin: miter; stroke-miterlimit: 4; fill: rgb(0,0,0); fill-rule: nonzero; opacity: 1;" vector-effect="non-scaling-stroke"  transform=" translate(-282.95, -428.55)" d="M 304.9 440.3 L 271 440.3 C 264.2 440.3 258.7 434.8 258.7 428 L 258.7 419.2 C 258.7 417.9 259.8 416.8 261.09999999999997 416.8 C 262.49999999999994 416.8 263.49999999999994 417.90000000000003 263.49999999999994 419.2 L 263.49999999999994 428 C 263.49999999999994 432.1 266.79999999999995 435.4 270.8999999999999 435.4 L 304.7999999999999 435.4 C 306.0999999999999 435.4 307.1999999999999 436.5 307.1999999999999 437.79999999999995 C 307.3 439.2 306.2 440.3 304.9 440.3 z" stroke-linecap="round" />
</g>
		<g transform="matrix(1 0 0 1 21.15 25.4)"  >
<path style="stroke: none; stroke-width: 1; stroke-dasharray: none; stroke-linecap: butt; stroke-dashoffset: 0; stroke-linejoin: miter; stroke-miterlimit: 4; fill: rgb(0,0,0); fill-rule: nonzero; opacity: 1;" vector-effect="non-scaling-stroke"  transform=" translate(-379.85, -381.9)" d="M 430.2 440.3 L 319.7 440.3 C 318.3 440.3 317.3 439.2 317.3 437.90000000000003 C 317.3 436.6 318.40000000000003 435.50000000000006 319.7 435.50000000000006 L 430.2 435.50000000000006 C 434.3 435.50000000000006 437.59999999999997 432.20000000000005 437.59999999999997 428.1000000000001 L 437.59999999999997 325.9 C 437.59999999999997 324.59999999999997 438.7 323.5 439.99999999999994 323.5 C 441.2999999999999 323.5 442.3999999999999 324.6 442.3999999999999 325.9 L 442.3999999999999 428 C 442.5 434.8 437 440.3 430.2 440.3 z" stroke-linecap="round" />
</g>
		<g transform="matrix(1 0 0 1 -8 -23.7)" clip-path="url(#CLIPPATH_65)"  >
<clipPath id="CLIPPATH_65" >
	<rect transform="matrix(1 0 0 1 -0.05 0.1)" id="SVGID_6_" x="-91.95" y="-76.4" rx="0" ry="0" width="183.9" height="152.8" />
</clipPath>
<path style="stroke: none; stroke-width: 1; stroke-dasharray: none; stroke-linecap: butt; stroke-dashoffset: 0; stroke-linejoin: miter; stroke-miterlimit: 4; fill: rgb(0,0,0); fill-rule: nonzero; opacity: 1;" vector-effect="non-scaling-stroke"  transform=" translate(-350.7, -332.8)" d="M 261.2 409.1 C 259.9 409.1 258.8 408 258.8 406.70000000000005 L 258.8 268.8 C 258.8 262 264.3 256.5 271.1 256.5 L 430.3 256.5 C 437.1 256.5 442.6 262 442.6 268.8 L 442.6 306.40000000000003 C 442.6 307.8 441.5 308.8 440.20000000000005 308.8 C 438.9000000000001 308.8 437.80000000000007 307.7 437.80000000000007 306.40000000000003 L 437.80000000000007 268.8 C 437.80000000000007 264.7 434.50000000000006 261.40000000000003 430.4000000000001 261.40000000000003 L 271 261.40000000000003 C 266.9 261.40000000000003 263.6 264.70000000000005 263.6 268.8 L 263.6 406.70000000000005 C 263.6 408 262.5 409.1 261.2 409.1 z" stroke-linecap="round" />
</g>
		<g transform="matrix(1 0 0 1 -7.3 -8.8)" clip-path="url(#CLIPPATH_66)"  >
<clipPath id="CLIPPATH_66" >
	<rect transform="matrix(1 0 0 1 -0.1 -0.2)" id="SVGID_8_" x="-68" y="-42.5" rx="0" ry="0" width="136" height="85" />
</clipPath>
<path style="stroke: none; stroke-width: 1; stroke-dasharray: none; stroke-linecap: butt; stroke-dashoffset: 0; stroke-linejoin: miter; stroke-miterlimit: 4; fill: rgb(0,0,0); fill-rule: nonzero; opacity: 1;" vector-effect="non-scaling-stroke"  transform=" translate(-351.4, -347.7)" d="M 327.9 332.8 L 335.5 332.8 L 327.9 340.40000000000003 L 311.2 340.40000000000003 L 311.2 329.3 L 300.09999999999997 329.3 L 305.59999999999997 365.40000000000003 L 305.59999999999997 348.70000000000005 L 313.2 341.1 L 313.2 348.70000000000005 L 327.9 348.70000000000005 L 327.9 379.30000000000007 L 316.79999999999995 390.4000000000001 L 294.59999999999997 390.4000000000001 L 283.49999999999994 379.30000000000007 L 283.49999999999994 323.70000000000005 L 294.59999999999997 312.6 L 316.79999999999995 312.6 L 327.9 323.70000000000005 L 327.9 332.8 L 327.9 332.8 z M 373.4 312.6 L 384.5 323.70000000000005 L 384.5 379.30000000000007 L 373.4 390.4000000000001 L 351.2 390.4000000000001 L 340.09999999999997 379.30000000000007 L 340.09999999999997 323.70000000000005 L 351.2 312.6 L 373.4 312.6 z M 367.8 329.3 L 356.7 329.3 L 356.7 373.7 L 367.8 373.7 L 367.8 329.3 z M 411.8 382.8 L 411.8 373.7 L 402.7 373.7 L 402.7 368.09999999999997 L 409.59999999999997 368.09999999999997 L 409.7 366.09999999999997 L 417.09999999999997 360.49999999999994 L 410 360.49999999999994 L 411.7 334.79999999999995 L 411.7 312.59999999999997 L 402.59999999999997 312.59999999999997 L 402.59999999999997 305 L 394.99999999999994 312.6 L 394.99999999999994 334.8 L 397.19999999999993 368.1 L 400.5999999999999 368.1 L 394.9999999999999 373.70000000000005 L 394.9999999999999 390.40000000000003 L 411.6999999999999 390.40000000000003 L 419.2999999999999 382.8 L 411.8 382.8 z" stroke-linecap="round" />
</g>
		<g transform="matrix(1 0 0 1 -3.5 -12.6)"  >
<path style="stroke: none; stroke-width: 1; stroke-dasharray: none; stroke-linecap: butt; stroke-dashoffset: 0; stroke-linejoin: miter; stroke-miterlimit: 4; fill: rgb(255,222,89); fill-rule: nonzero; opacity: 1;" vector-effect="non-scaling-stroke"  transform=" translate(-355.2, -343.9)" d="M 302.7 381.4 L 292.4 371.09999999999997 L 292.4 316.7 L 302.7 306.4 L 323.8 306.4 L 334.1 316.7 L 334.1 331.4 L 320.20000000000005 331.4 L 320.20000000000005 320.29999999999995 L 306.30000000000007 320.29999999999995 L 306.30000000000007 367.49999999999994 L 320.20000000000005 367.49999999999994 L 320.20000000000005 356.29999999999995 L 314.70000000000005 356.29999999999995 L 314.70000000000005 342.49999999999994 L 334.1 342.49999999999994 L 334.1 371.09999999999997 L 323.8 381.4 L 302.7 381.4 z M 380.4 381.4 L 390.7 371.09999999999997 L 390.7 316.7 L 380.4 306.4 L 359.29999999999995 306.4 L 349 316.7 L 349 371.09999999999997 L 359.3 381.4 L 380.4 381.4 z M 363 320.3 L 376.9 320.3 L 376.9 367.5 L 363 367.5 L 363 320.3 z M 417.9 381.4 L 417.9 367.59999999999997 L 404 367.59999999999997 L 404 381.4 L 417.9 381.4 z M 415.8 359.2 L 418 327.3 L 418 306.5 L 404.1 306.5 L 404.1 327.2 L 406.20000000000005 359.2 L 415.8 359.2 z" stroke-linecap="round" />
</g>
		<g transform="matrix(1 0 0 1 -3.55 -12.55)" clip-path="url(#CLIPPATH_67)"  >
<clipPath id="CLIPPATH_67" >
	<rect transform="matrix(1 0 0 1 -0.1 0.55)" id="SVGID_10_" x="-64.35" y="-39.5" rx="0" ry="0" width="128.7" height="79" />
</clipPath>
<path style="stroke: none; stroke-width: 1; stroke-dasharray: none; stroke-linecap: butt; stroke-dashoffset: 0; stroke-linejoin: miter; stroke-miterlimit: 4; fill: rgb(0,0,0); fill-rule: nonzero; opacity: 1;" vector-effect="non-scaling-stroke"  transform=" translate(-355.15, -343.95)" d="M 323.2 307.8 L 332.7 317.3 L 332.7 330 L 321.59999999999997 330 L 321.59999999999997 318.9 L 304.9 318.9 L 304.9 368.9 L 321.59999999999997 368.9 L 321.59999999999997 355 L 316 355 L 316 344 L 332.6 344 L 332.6 370.6 L 323.1 380.1 L 303.20000000000005 380.1 L 293.70000000000005 370.6 L 293.70000000000005 317.40000000000003 L 303.20000000000005 307.90000000000003 L 323.2 307.90000000000003 M 324.3 305 L 302 305 L 291 316.2 L 291 371.8 L 302.1 382.90000000000003 L 324.3 382.90000000000003 L 335.40000000000003 371.8 L 335.40000000000003 341.2 L 313.20000000000005 341.2 L 313.20000000000005 357.9 L 318.70000000000005 357.9 L 318.70000000000005 366.2 L 307.6 366.2 L 307.6 321.8 L 318.70000000000005 321.8 L 318.70000000000005 332.90000000000003 L 335.40000000000003 332.90000000000003 L 335.40000000000003 316.20000000000005 L 324.3 305 z M 379.8 307.8 L 389.3 317.3 L 389.3 370.5 L 379.8 380 L 359.90000000000003 380 L 350.40000000000003 370.5 L 350.40000000000003 317.3 L 359.90000000000003 307.8 L 379.8 307.8 M 361.5 369 L 378.2 369 L 378.2 318.9 L 361.5 318.9 L 361.5 369 M 381 305 L 358.8 305 L 347.7 316.1 L 347.7 371.70000000000005 L 358.8 382.80000000000007 L 381 382.80000000000007 L 392.1 371.70000000000005 L 392.1 316.1 L 381 305 z M 364.4 366.2 L 364.4 321.8 L 375.5 321.8 L 375.5 366.2 L 364.4 366.2 L 364.4 366.2 z M 416.5 307.8 L 416.5 327.2 L 414.5 357.8 L 407.5 357.8 L 405.5 327.2 L 405.5 307.9 L 416.5 307.9 M 416.5 369 L 416.5 380 L 405.4 380 L 405.4 369 L 416.5 369 M 419.3 305 L 402.6 305 L 402.6 327.2 L 404.8 360.5 L 417.1 360.5 L 419.3 327.2 L 419.3 305 z M 419.3 366.2 L 402.6 366.2 L 402.6 382.9 L 419.3 382.9 L 419.3 366.2 z" stroke-linecap="round" />
</g>
</g>
</g>
</svg>