<?xml version="1.0" encoding="UTF-8" standalone="no" ?>
<!DOCTYPE svg PUBLIC "-//W3C//DTD SVG 1.1//EN" "http://www.w3.org/Graphics/SVG/1.1/DTD/svg11.dtd">
<svg xmlns="http://www.w3.org/2000/svg" xmlns:xlink="http://www.w3.org/1999/xlink" version="1.1" width="1080" height="1080" viewBox="0 0 1080 1080" xml:space="preserve">
<desc>Created with Fabric.js 5.2.4</desc>
<defs>
</defs>
<rect x="0" y="0" width="100%" height="100%" fill="transparent"></rect>
<g transform="matrix(1 0 0 1 540 540)" id="48a49684-8c1f-4f7a-a0c5-b17252756d93"  >
<rect style="stroke: none; stroke-width: 1; stroke-dasharray: none; stroke-linecap: butt; stroke-dashoffset: 0; stroke-linejoin: miter; stroke-miterlimit: 4; fill: rgb(255,255,255); fill-rule: nonzero; opacity: 1; visibility: hidden;" vector-effect="non-scaling-stroke"  x="-540" y="-540" rx="0" ry="0" width="1080" height="1080" />
</g>
<g transform="matrix(1 0 0 1 540 540)" id="17423e1d-743e-4fcc-8611-a9f922f344fa"  >
</g>
<g transform="matrix(5.1 0 0 5.1 541.51 542.46)"  >
<g style="" vector-effect="non-scaling-stroke"   >
		<g transform="matrix(1 0 0 1 1.65 1.6)"  >
<path style="stroke: none; stroke-width: 1; stroke-dasharray: none; stroke-linecap: butt; stroke-dashoffset: 0; stroke-linejoin: miter; stroke-miterlimit: 4; fill: rgb(82,113,255); fill-rule: nonzero; opacity: 1;" vector-effect="non-scaling-stroke"  transform=" translate(-149.85, -358.1)" d="M 53.8 435.2 L 70.1 451.5 L 69.8 451.2 C 71.6 453 74 454.09999999999997 76.7 454.09999999999997 L 236 454.09999999999997 C 238.7 454.09999999999997 241.2 452.99999999999994 243 451.2 C 244.8 449.40000000000003 245.9 447 245.9 444.2 L 245.9 285.1 C 245.9 282.40000000000003 244.8 279.90000000000003 243 278.1 L 243.2 278.20000000000005 L 227 262.1" stroke-linecap="round" />
</g>
		<g transform="matrix(1 0 0 1 1.58 1.62)" clip-path="url(#CLIPPATH_57)"  >
<clipPath id="CLIPPATH_57" >
	<rect transform="matrix(1 0 0 1 -0.28 -0.48)" id="SVGID_2_" x="-98.8" y="-98.95" rx="0" ry="0" width="197.6" height="197.9" />
</clipPath>
<path style="stroke: none; stroke-width: 1; stroke-dasharray: none; stroke-linecap: butt; stroke-dashoffset: 0; stroke-linejoin: miter; stroke-miterlimit: 4; fill: rgb(0,0,0); fill-rule: nonzero; opacity: 1;" vector-effect="non-scaling-stroke"  transform=" translate(-149.78, -358.13)" d="M 236 456.5 L 76.8 456.5 C 73.8 456.5 70.89999999999999 455.4 68.7 453.4 C 68.60000000000001 453.29999999999995 68.60000000000001 453.29999999999995 68.5 453.2 L 68.4 453.09999999999997 C 68.30000000000001 452.99999999999994 68.2 452.9 68.10000000000001 452.79999999999995 C 68.00000000000001 452.69999999999993 68.00000000000001 452.69999999999993 68.00000000000001 452.59999999999997 L 52.100000000000016 436.7 C 51.100000000000016 435.7 51.100000000000016 434.2 52.100000000000016 433.3 C 53.000000000000014 432.3 54.600000000000016 432.3 55.500000000000014 433.3 L 71.80000000000001 449.5 C 73.20000000000002 450.7 74.9 451.4 76.80000000000001 451.4 L 236 451.4 C 238 451.4 239.8 450.59999999999997 241.2 449.2 C 242.6 447.8 243.39999999999998 446 243.39999999999998 444 L 243.39999999999998 285.1 C 243.39999999999998 283.1 242.59999999999997 281.3 241.2 279.90000000000003 C 241.1 279.8 241 279.70000000000005 240.89999999999998 279.50000000000006 L 225.2 263.90000000000003 C 224.29999999999998 263.00000000000006 224.2 261.40000000000003 225.2 260.50000000000006 C 226.2 259.50000000000006 227.7 259.50000000000006 228.6 260.50000000000006 L 244.79999999999998 276.6000000000001 C 244.99999999999997 276.7000000000001 245.1 276.9000000000001 245.2 277.1000000000001 C 247.1 279.30000000000007 248.2 282.2000000000001 248.2 285.1000000000001 L 248.2 444.30000000000007 C 248.2 447.6000000000001 246.89999999999998 450.70000000000005 244.6 453.00000000000006 C 242.4 455.3 239.3 456.5 236 456.5 L 236 456.5 z" stroke-linecap="round" />
</g>
		<g transform="matrix(1 0 0 1 -8.1 -8.1)"  >
<path style="stroke: none; stroke-width: 1; stroke-dasharray: none; stroke-linecap: butt; stroke-dashoffset: 0; stroke-linejoin: miter; stroke-miterlimit: 4; fill: rgb(255,255,255); fill-rule: nonzero; opacity: 1;" vector-effect="non-scaling-stroke"  transform=" translate(-140.1, -348.4)" d="M 60.5 259 L 219.7 259 C 220.29999999999998 259 221 259.1 221.6 259.2 C 222.2 259.3 222.79999999999998 259.5 223.4 259.8 C 224 260 224.6 260.3 225.1 260.7 C 225.6 261.09999999999997 226.1 261.5 226.6 261.9 C 227.1 262.4 227.5 262.9 227.79999999999998 263.4 C 228.2 263.9 228.49999999999997 264.5 228.7 265.09999999999997 C 228.89999999999998 265.7 229.1 266.29999999999995 229.29999999999998 266.9 C 229.39999999999998 267.5 229.49999999999997 268.2 229.49999999999997 268.79999999999995 L 229.49999999999997 428 C 229.49999999999997 428.6 229.39999999999998 429.3 229.29999999999998 429.9 C 229.2 430.5 228.99999999999997 431.09999999999997 228.7 431.7 C 228.5 432.3 228.1 432.9 227.79999999999998 433.4 C 227.39999999999998 433.9 226.99999999999997 434.4 226.6 434.9 C 226.1 435.4 225.6 435.79999999999995 225.1 436.09999999999997 C 224.6 436.4 224 436.79999999999995 223.4 436.99999999999994 C 222.8 437.19999999999993 222.20000000000002 437.3999999999999 221.6 437.59999999999997 C 221 437.7 220.29999999999998 437.79999999999995 219.7 437.79999999999995 L 60.5 437.79999999999995 C 59.9 437.79999999999995 59.2 437.69999999999993 58.6 437.59999999999997 C 58 437.49999999999994 57.4 437.29999999999995 56.800000000000004 436.99999999999994 C 56.2 436.79999999999995 55.6 436.3999999999999 55.1 436.09999999999997 C 54.6 435.8 54.1 435.29999999999995 53.6 434.9 C 53.1 434.4 52.7 433.9 52.4 433.4 C 52 432.9 51.699999999999996 432.29999999999995 51.5 431.7 C 51.3 431.09999999999997 51.1 430.5 50.9 429.9 C 50.8 429.29999999999995 50.699999999999996 428.59999999999997 50.699999999999996 428 L 50.699999999999996 268.8 C 50.699999999999996 268.2 50.8 267.5 50.9 266.90000000000003 C 51 266.3 51.199999999999996 265.70000000000005 51.5 265.1 C 51.7 264.5 52 263.90000000000003 52.4 263.40000000000003 C 52.8 262.90000000000003 53.199999999999996 262.40000000000003 53.6 261.90000000000003 C 54.1 261.40000000000003 54.6 261.00000000000006 55.1 260.70000000000005 C 55.6 260.40000000000003 56.2 260.00000000000006 56.800000000000004 259.80000000000007 C 57.400000000000006 259.6000000000001 58.00000000000001 259.4000000000001 58.6 259.20000000000005 C 59.2 259 59.9 259 60.5 259 z" stroke-linecap="round" />
</g>
		<g transform="matrix(1 0 0 1 -75.75 72.05)" clip-path="url(#CLIPPATH_58)"  >
<clipPath id="CLIPPATH_58" >
	<rect transform="matrix(1 0 0 1 0.4 0.1)" id="SVGID_4_" x="-24.55" y="-12.65" rx="0" ry="0" width="49.1" height="25.3" />
</clipPath>
<path style="stroke: none; stroke-width: 1; stroke-dasharray: none; stroke-linecap: butt; stroke-dashoffset: 0; stroke-linejoin: miter; stroke-miterlimit: 4; fill: rgb(0,0,0); fill-rule: nonzero; opacity: 1;" vector-effect="non-scaling-stroke"  transform=" translate(-72.45, -428.55)" d="M 94.4 440.3 L 60.5 440.3 C 53.7 440.3 48.2 434.8 48.2 428 L 48.2 419.2 C 48.2 417.9 49.300000000000004 416.8 50.6 416.8 C 51.9 416.8 53 417.90000000000003 53 419.2 L 53 428 C 53 432.1 56.3 435.4 60.4 435.4 L 94.3 435.4 C 95.6 435.4 96.7 436.5 96.7 437.79999999999995 C 96.8 439.2 95.8 440.3 94.4 440.3 z" stroke-linecap="round" />
</g>
		<g transform="matrix(1 0 0 1 21.25 25.4)"  >
<path style="stroke: none; stroke-width: 1; stroke-dasharray: none; stroke-linecap: butt; stroke-dashoffset: 0; stroke-linejoin: miter; stroke-miterlimit: 4; fill: rgb(0,0,0); fill-rule: nonzero; opacity: 1;" vector-effect="non-scaling-stroke"  transform=" translate(-169.45, -381.9)" d="M 219.7 440.3 L 109.3 440.3 C 108 440.3 106.89999999999999 439.2 106.89999999999999 437.90000000000003 C 106.89999999999999 436.6 107.99999999999999 435.50000000000006 109.3 435.50000000000006 L 219.8 435.50000000000006 C 223.9 435.50000000000006 227.20000000000002 432.20000000000005 227.20000000000002 428.1000000000001 L 227.20000000000002 325.9 C 227.20000000000002 324.59999999999997 228.3 323.5 229.60000000000002 323.5 C 230.90000000000003 323.5 232.00000000000003 324.6 232.00000000000003 325.9 L 232.00000000000003 428 C 232 434.8 226.5 440.3 219.7 440.3 z" stroke-linecap="round" />
</g>
		<g transform="matrix(1 0 0 1 -8 -23.7)" clip-path="url(#CLIPPATH_59)"  >
<clipPath id="CLIPPATH_59" >
	<rect transform="matrix(1 0 0 1 0.65 0.1)" id="SVGID_6_" x="-92.55" y="-76.4" rx="0" ry="0" width="185.1" height="152.8" />
</clipPath>
<path style="stroke: none; stroke-width: 1; stroke-dasharray: none; stroke-linecap: butt; stroke-dashoffset: 0; stroke-linejoin: miter; stroke-miterlimit: 4; fill: rgb(0,0,0); fill-rule: nonzero; opacity: 1;" vector-effect="non-scaling-stroke"  transform=" translate(-140.2, -332.8)" d="M 50.7 409.1 C 49.400000000000006 409.1 48.300000000000004 408 48.300000000000004 406.70000000000005 L 48.300000000000004 268.8 C 48.300000000000004 262 53.800000000000004 256.5 60.60000000000001 256.5 L 219.8 256.5 C 226.60000000000002 256.5 232.10000000000002 262 232.10000000000002 268.8 L 232.10000000000002 306.40000000000003 C 232.10000000000002 307.8 231.00000000000003 308.8 229.70000000000002 308.8 C 228.3 308.8 227.3 307.7 227.3 306.40000000000003 L 227.3 268.8 C 227.3 264.7 224 261.40000000000003 219.9 261.40000000000003 L 60.5 261.40000000000003 C 56.4 261.40000000000003 53.1 264.70000000000005 53.1 268.8 L 53.1 406.70000000000005 C 53.1 408 52.1 409.1 50.7 409.1 z" stroke-linecap="round" />
</g>
		<g transform="matrix(1 0 0 1 -6.97 -10.05)" clip-path="url(#CLIPPATH_60)"  >
<clipPath id="CLIPPATH_60" >
	<rect transform="matrix(1 0 0 1 -0.03 0.05)" id="SVGID_8_" x="-50" y="-43.5" rx="0" ry="0" width="100" height="87" />
</clipPath>
<path style="stroke: none; stroke-width: 1; stroke-dasharray: none; stroke-linecap: butt; stroke-dashoffset: 0; stroke-linejoin: miter; stroke-miterlimit: 4; fill: rgb(0,0,0); fill-rule: nonzero; opacity: 1;" vector-effect="non-scaling-stroke"  transform=" translate(-141.23, -346.45)" d="M 144.1 304.6 C 143.5 303.6 142.4 302.90000000000003 141.2 302.90000000000003 C 139.99999999999997 302.90000000000003 138.89999999999998 303.50000000000006 138.29999999999998 304.6 L 91.8 385 C 91.2 386 91.2 387.3 91.8 388.3 C 92.39999999999999 389.3 93.5 390 94.7 390 L 187.8 390 C 187.8 390 187.8 390 187.8 390 C 189.60000000000002 390 191.10000000000002 388.5 191.10000000000002 386.7 C 191.10000000000002 386 190.90000000000003 385.3 190.50000000000003 384.7 L 144.1 304.6 z M 100.4 383.4 L 141.2 313 L 182 383.4 L 100.4 383.4 z" stroke-linecap="round" />
</g>
		<g transform="matrix(1 0 0 1 -6.55 -8.5)" clip-path="url(#CLIPPATH_61)"  >
<clipPath id="CLIPPATH_61" >
	<polygon transform="matrix(1 0 0 1 0 0.05)" id="SVGID_12_" clip-path="url(#undefined)" points="0.05,-37.15 42.75,37.15 -42.75,37.15 " />
</clipPath>
<path style="stroke: none; stroke-width: 1; stroke-dasharray: none; stroke-linecap: butt; stroke-dashoffset: 0; stroke-linejoin: miter; stroke-miterlimit: 4; fill: rgb(82,113,255); fill-rule: nonzero; opacity: 1;" vector-effect="non-scaling-stroke"  transform=" translate(-141.65, -348)" d="M 98.9 310.9 L 184.4 310.9 L 184.4 385.09999999999997 L 98.9 385.09999999999997 L 98.9 310.9 z" stroke-linecap="round" />
</g>
</g>
</g>
</svg>