<?xml version="1.0" encoding="UTF-8" standalone="no" ?>
<!DOCTYPE svg PUBLIC "-//W3C//DTD SVG 1.1//EN" "http://www.w3.org/Graphics/SVG/1.1/DTD/svg11.dtd">
<svg xmlns="http://www.w3.org/2000/svg" xmlns:xlink="http://www.w3.org/1999/xlink" version="1.1" width="1080" height="1080" viewBox="0 0 1080 1080" xml:space="preserve">
<desc>Created with Fabric.js 5.2.4</desc>
<defs>
</defs>
<rect x="0" y="0" width="100%" height="100%" fill="transparent"></rect>
<g transform="matrix(1 0 0 1 540 540)" id="48a49684-8c1f-4f7a-a0c5-b17252756d93"  >
<rect style="stroke: none; stroke-width: 1; stroke-dasharray: none; stroke-linecap: butt; stroke-dashoffset: 0; stroke-linejoin: miter; stroke-miterlimit: 4; fill: rgb(255,255,255); fill-rule: nonzero; opacity: 1; visibility: hidden;" vector-effect="non-scaling-stroke"  x="-540" y="-540" rx="0" ry="0" width="1080" height="1080" />
</g>
<g transform="matrix(1 0 0 1 540 540)" id="17423e1d-743e-4fcc-8611-a9f922f344fa"  >
</g>
<g transform="matrix(5.08 0 0 5.08 542.96 540.01)"  >
<g style="" vector-effect="non-scaling-stroke"   >
		<g transform="matrix(1 0 0 1 1.65 1.55)"  >
<path style="stroke: none; stroke-width: 1; stroke-dasharray: none; stroke-linecap: butt; stroke-dashoffset: 0; stroke-linejoin: miter; stroke-miterlimit: 4; fill: rgb(255,222,89); fill-rule: nonzero; opacity: 1;" vector-effect="non-scaling-stroke"  transform=" translate(-353, -145)" d="M 257 222.1 L 273.3 238.4 L 273 238.1 C 274.8 239.9 277.2 241 280 241 L 439.2 241 C 441.9 241 444.4 239.9 446.09999999999997 238.1 C 447.9 236.29999999999998 448.99999999999994 233.9 448.99999999999994 231.2 L 448.99999999999994 72 C 448.99999999999994 69.3 447.8999999999999 66.8 446.09999999999997 65 L 446.29999999999995 65.1 L 430.1 49" stroke-linecap="round" />
</g>
		<g transform="matrix(1 0 0 1 1.57 1.64)" clip-path="url(#CLIPPATH_14)"  >
<clipPath id="CLIPPATH_14" >
	<rect transform="matrix(1 0 0 1 -0.62 -0.74)" id="SVGID_2_" x="-99" y="-99.05" rx="0" ry="0" width="198" height="198.1" />
</clipPath>
<path style="stroke: none; stroke-width: 1; stroke-dasharray: none; stroke-linecap: butt; stroke-dashoffset: 0; stroke-linejoin: miter; stroke-miterlimit: 4; fill: rgb(0,0,0); fill-rule: nonzero; opacity: 1;" vector-effect="non-scaling-stroke"  transform=" translate(-352.92, -145.09)" d="M 439.1 243.5 L 279.9 243.5 C 276.9 243.5 274 242.4 271.79999999999995 240.4 C 271.69999999999993 240.4 271.69999999999993 240.3 271.59999999999997 240.3 L 271.49999999999994 240.20000000000002 C 271.3999999999999 240.10000000000002 271.29999999999995 240.00000000000003 271.19999999999993 239.9 C 271.19999999999993 239.9 271.0999999999999 239.8 271.0999999999999 239.70000000000002 L 255.1999999999999 223.8 C 254.1999999999999 222.9 254.1999999999999 221.3 255.1999999999999 220.4 C 256.19999999999993 219.5 257.69999999999993 219.5 258.5999999999999 220.4 L 274.8999999999999 236.70000000000002 C 276.2999999999999 237.9 277.99999999999994 238.60000000000002 279.8999999999999 238.60000000000002 L 439.0999999999999 238.60000000000002 C 441.0999999999999 238.60000000000002 442.8999999999999 237.8 444.2999999999999 236.40000000000003 C 445.6999999999999 235.00000000000003 446.4999999999999 233.10000000000002 446.4999999999999 231.20000000000005 L 446.4999999999999 72 C 446.4999999999999 70 445.6999999999999 68.2 444.2999999999999 66.8 C 444.1999999999999 66.7 444.0999999999999 66.6 443.9999999999999 66.39999999999999 L 428.2999999999999 50.79999999999999 C 427.2999999999999 49.79999999999999 427.2999999999999 48.29999999999999 428.2999999999999 47.39999999999999 C 429.1999999999999 46.49999999999999 430.7999999999999 46.39999999999999 431.6999999999999 47.39999999999999 L 448 63.5 C 448.1 63.6 448.3 63.8 448.4 64 C 450.29999999999995 66.2 451.4 69.1 451.4 72.1 L 451.4 231.29999999999998 C 451.4 234.6 450.09999999999997 237.7 447.79999999999995 239.99999999999997 C 445.5 242.2 442.4 243.5 439.1 243.5 L 439.1 243.5 z" stroke-linecap="round" />
</g>
		<g transform="matrix(1 0 0 1 -8.15 -8.15)"  >
<path style="stroke: none; stroke-width: 1; stroke-dasharray: none; stroke-linecap: butt; stroke-dashoffset: 0; stroke-linejoin: miter; stroke-miterlimit: 4; fill: rgb(255,255,255); fill-rule: nonzero; opacity: 1;" vector-effect="non-scaling-stroke"  transform=" translate(-343.2, -135.3)" d="M 263.6 45.9 L 422.8 45.9 C 423.40000000000003 45.9 424.1 46 424.7 46.1 C 425.3 46.2 425.9 46.4 426.5 46.7 C 427.1 46.900000000000006 427.7 47.300000000000004 428.2 47.6 C 428.7 48 429.2 48.4 429.7 48.800000000000004 C 430.2 49.300000000000004 430.59999999999997 49.800000000000004 430.9 50.300000000000004 C 431.29999999999995 50.800000000000004 431.59999999999997 51.400000000000006 431.79999999999995 52.00000000000001 C 431.99999999999994 52.60000000000001 432.19999999999993 53.20000000000001 432.4 53.800000000000004 C 432.5 54.400000000000006 432.59999999999997 55.1 432.59999999999997 55.7 L 432.59999999999997 214.89999999999998 C 432.59999999999997 215.49999999999997 432.49999999999994 216.2 432.4 216.79999999999998 C 432.29999999999995 217.39999999999998 432.09999999999997 217.99999999999997 431.79999999999995 218.6 C 431.59999999999997 219.2 431.29999999999995 219.79999999999998 430.9 220.29999999999998 C 430.5 220.79999999999998 430.09999999999997 221.29999999999998 429.7 221.79999999999998 C 429.2 222.29999999999998 428.7 222.7 428.2 222.99999999999997 C 427.7 223.39999999999998 427.09999999999997 223.69999999999996 426.5 223.89999999999998 C 425.9 224.09999999999997 425.3 224.29999999999998 424.7 224.49999999999997 C 424.09999999999997 224.59999999999997 423.4 224.69999999999996 422.8 224.69999999999996 L 263.6 224.69999999999996 C 263 224.69999999999996 262.3 224.59999999999997 261.70000000000005 224.49999999999997 C 261.1 224.39999999999998 260.50000000000006 224.19999999999996 259.90000000000003 223.89999999999998 C 259.3 223.7 258.70000000000005 223.39999999999998 258.20000000000005 222.99999999999997 C 257.70000000000005 222.59999999999997 257.20000000000005 222.19999999999996 256.70000000000005 221.79999999999998 C 256.20000000000005 221.29999999999998 255.80000000000004 220.79999999999998 255.50000000000006 220.29999999999998 C 255.10000000000005 219.79999999999998 254.80000000000007 219.2 254.60000000000005 218.6 C 254.40000000000006 218 254.20000000000005 217.4 254.00000000000006 216.79999999999998 C 253.90000000000006 216.2 253.80000000000007 215.49999999999997 253.80000000000007 214.89999999999998 L 253.80000000000007 55.7 C 253.80000000000007 55.1 253.90000000000006 54.400000000000006 254.00000000000006 53.800000000000004 C 254.10000000000005 53.2 254.30000000000007 52.6 254.60000000000005 52.00000000000001 C 254.80000000000004 51.400000000000006 255.20000000000005 50.800000000000004 255.50000000000006 50.300000000000004 C 255.90000000000006 49.800000000000004 256.30000000000007 49.300000000000004 256.70000000000005 48.800000000000004 C 257.20000000000005 48.300000000000004 257.70000000000005 47.900000000000006 258.20000000000005 47.6 C 258.70000000000005 47.2 259.30000000000007 46.9 259.90000000000003 46.7 C 260.50000000000006 46.5 261.1 46.300000000000004 261.70000000000005 46.1 C 262.4 46 263 45.9 263.6 45.9 z" stroke-linecap="round" />
</g>
		<g transform="matrix(1 0 0 1 -75.79 72)" clip-path="url(#CLIPPATH_15)"  >
<clipPath id="CLIPPATH_15" >
	<rect transform="matrix(1 0 0 1 0.14 -0.1)" id="SVGID_4_" x="-24.3" y="-12.65" rx="0" ry="0" width="48.6" height="25.3" />
</clipPath>
<path style="stroke: none; stroke-width: 1; stroke-dasharray: none; stroke-linecap: butt; stroke-dashoffset: 0; stroke-linejoin: miter; stroke-miterlimit: 4; fill: rgb(0,0,0); fill-rule: nonzero; opacity: 1;" vector-effect="non-scaling-stroke"  transform=" translate(-275.56, -215.45)" d="M 297.5 227.2 L 263.6 227.2 C 256.8 227.2 251.3 221.7 251.3 214.89999999999998 L 251.3 206.09999999999997 C 251.3 204.69999999999996 252.4 203.69999999999996 253.70000000000002 203.69999999999996 C 255.00000000000003 203.69999999999996 256.1 204.79999999999995 256.1 206.09999999999997 L 256.1 214.89999999999998 C 256.1 218.99999999999997 259.40000000000003 222.29999999999998 263.5 222.29999999999998 L 297.4 222.29999999999998 C 298.7 222.29999999999998 299.79999999999995 223.39999999999998 299.79999999999995 224.7 C 300 226.1 298.9 227.2 297.5 227.2 z" stroke-linecap="round" />
</g>
		<g transform="matrix(1 0 0 1 21.2 25.4)"  >
<path style="stroke: none; stroke-width: 1; stroke-dasharray: none; stroke-linecap: butt; stroke-dashoffset: 0; stroke-linejoin: miter; stroke-miterlimit: 4; fill: rgb(0,0,0); fill-rule: nonzero; opacity: 1;" vector-effect="non-scaling-stroke"  transform=" translate(-372.55, -168.85)" d="M 422.8 227.2 L 312.4 227.2 C 311 227.2 310 226.1 310 224.79999999999998 C 310 223.49999999999997 311.1 222.39999999999998 312.4 222.39999999999998 L 422.9 222.39999999999998 C 427 222.39999999999998 430.29999999999995 219.09999999999997 430.29999999999995 214.99999999999997 L 430.29999999999995 112.9 C 430.29999999999995 111.60000000000001 431.4 110.5 432.69999999999993 110.5 C 433.9999999999999 110.5 435.0999999999999 111.6 435.0999999999999 112.9 L 435.0999999999999 215 C 435.1 221.7 429.6 227.2 422.8 227.2 z" stroke-linecap="round" />
</g>
		<g transform="matrix(1 0 0 1 -8.05 -23.75)" clip-path="url(#CLIPPATH_16)"  >
<clipPath id="CLIPPATH_16" >
	<rect transform="matrix(1 0 0 1 0.4 0.75)" id="SVGID_6_" x="-92.3" y="-76.95" rx="0" ry="0" width="184.6" height="153.9" />
</clipPath>
<path style="stroke: none; stroke-width: 1; stroke-dasharray: none; stroke-linecap: butt; stroke-dashoffset: 0; stroke-linejoin: miter; stroke-miterlimit: 4; fill: rgb(0,0,0); fill-rule: nonzero; opacity: 1;" vector-effect="non-scaling-stroke"  transform=" translate(-343.3, -119.7)" d="M 253.8 196 C 252.5 196 251.4 194.9 251.4 193.6 L 251.4 55.7 C 251.4 48.900000000000006 256.9 43.400000000000006 263.7 43.400000000000006 L 422.9 43.400000000000006 C 429.7 43.400000000000006 435.2 48.900000000000006 435.2 55.7 L 435.2 93.30000000000001 C 435.2 94.60000000000001 434.09999999999997 95.70000000000002 432.8 95.70000000000002 C 431.50000000000006 95.70000000000002 430.40000000000003 94.60000000000002 430.40000000000003 93.30000000000001 L 430.40000000000003 55.7 C 430.40000000000003 51.6 427.1 48.300000000000004 423.00000000000006 48.300000000000004 L 263.6 48.300000000000004 C 259.5 48.300000000000004 256.20000000000005 51.6 256.20000000000005 55.7 L 256.20000000000005 193.60000000000002 C 256.3 194.9 255.2 196 253.8 196 z" stroke-linecap="round" />
</g>
		<g transform="matrix(1 0 0 1 -7.25 -9.65)" clip-path="url(#CLIPPATH_17)"  >
<clipPath id="CLIPPATH_17" >
	<rect transform="matrix(1 0 0 1 0 0)" id="SVGID_8_" x="-50" y="-50" rx="0" ry="0" width="100" height="100" />
</clipPath>
<path style="stroke: none; stroke-width: 1; stroke-dasharray: none; stroke-linecap: butt; stroke-dashoffset: 0; stroke-linejoin: miter; stroke-miterlimit: 4; fill: rgb(0,0,0); fill-rule: nonzero; opacity: 1;" vector-effect="non-scaling-stroke"  transform=" translate(-344.1, -133.8)" d="M 355.2 183.8 L 333 183.8 C 329.9 183.8 327.4 181.3 327.4 178.20000000000002 L 327.4 150.4 L 299.59999999999997 150.4 C 296.49999999999994 150.4 293.99999999999994 147.9 293.99999999999994 144.8 L 293.99999999999994 122.60000000000001 C 293.99999999999994 119.50000000000001 296.49999999999994 117.00000000000001 299.59999999999997 117.00000000000001 L 327.4 117.00000000000001 L 327.4 89.4 C 327.4 86.30000000000001 329.9 83.80000000000001 333 83.80000000000001 L 355.2 83.80000000000001 C 358.3 83.80000000000001 360.8 86.30000000000001 360.8 89.4 L 360.8 117.2 L 388.6 117.2 C 391.70000000000005 117.2 394.20000000000005 119.7 394.20000000000005 122.8 L 394.20000000000005 145 C 394.20000000000005 148.1 391.70000000000005 150.6 388.6 150.6 L 360.8 150.6 L 360.8 178.4 C 360.8 181.3 358.3 183.8 355.2 183.8 z M 299.7 122.7 L 299.7 144.9 L 327.5 144.9 C 330.6 144.9 333.1 147.4 333.1 150.5 L 333.1 178.3 L 355.3 178.3 L 355.3 150.5 C 355.3 147.4 357.8 144.9 360.90000000000003 144.9 L 388.70000000000005 144.9 L 388.70000000000005 122.7 L 360.90000000000003 122.7 C 357.8 122.7 355.3 120.2 355.3 117.10000000000001 L 355.3 89.4 L 333 89.4 L 333 117.2 C 333 120.3 330.5 122.8 327.4 122.8 L 299.7 122.8 z" stroke-linecap="round" />
</g>
		<g transform="matrix(1 0 0 1 -7.55 -9.55)" clip-path="url(#CLIPPATH_18)"  >
<clipPath id="CLIPPATH_18" >
	<rect transform="matrix(1 0 0 1 0 0)" id="SVGID_10_" x="-11.3" y="-44.7" rx="0" ry="0" width="22.6" height="89.4" />
</clipPath>
<path style="stroke: none; stroke-width: 1; stroke-dasharray: none; stroke-linecap: butt; stroke-dashoffset: 0; stroke-linejoin: miter; stroke-miterlimit: 4; fill: rgb(255,222,89); fill-rule: nonzero; opacity: 1;" vector-effect="non-scaling-stroke"  transform=" translate(-343.8, -133.9)" d="M 332.5 89.2 L 355.1 89.2 L 355.1 178.60000000000002 L 332.5 178.60000000000002 L 332.5 89.2 z" stroke-linecap="round" />
</g>
		<g transform="matrix(1 0 0 1 -7.35 -9.55)" clip-path="url(#CLIPPATH_19)"  >
<clipPath id="CLIPPATH_19" >
	<rect transform="matrix(1 0 0 1 0 0)" id="SVGID_12_" x="-44.7" y="-11.3" rx="0" ry="0" width="89.4" height="22.6" />
</clipPath>
<path style="stroke: none; stroke-width: 1; stroke-dasharray: none; stroke-linecap: butt; stroke-dashoffset: 0; stroke-linejoin: miter; stroke-miterlimit: 4; fill: rgb(255,222,89); fill-rule: nonzero; opacity: 1;" vector-effect="non-scaling-stroke"  transform=" translate(-344, -133.9)" d="M 299.3 145.2 L 299.3 122.6 L 388.70000000000005 122.6 L 388.70000000000005 145.2 L 299.3 145.2 z" stroke-linecap="round" />
</g>
		<g transform="matrix(1 0 0 1 -17.25 0.55)" clip-path="url(#CLIPPATH_20)"  >
<clipPath id="CLIPPATH_20" >
	<path transform="matrix(1 0 0 1 -0.09 -0.19) translate(-334.01, -143.81)" id="SVGID_16_" clip-path="url(#undefined)" d="M 335.4 143.5 C 334.2 145.5 333 145.1 332.7 144.7 C 332.5 144.29999999999998 332.7 143 333.09999999999997 142.7 C 333.49999999999994 142.39999999999998 335.09999999999997 142.79999999999998 335.09999999999997 142.79999999999998" stroke-linecap="round" />
</clipPath>
<path style="stroke: none; stroke-width: 1; stroke-dasharray: none; stroke-linecap: butt; stroke-dashoffset: 0; stroke-linejoin: miter; stroke-miterlimit: 4; fill: rgb(255,222,89); fill-rule: nonzero; opacity: 1;" vector-effect="non-scaling-stroke"  transform=" translate(-334.1, -144)" d="M 328.7 138.7 L 339.5 138.7 L 339.5 149.29999999999998 L 328.7 149.29999999999998 L 328.7 138.7 z" stroke-linecap="round" />
</g>
		<g transform="matrix(1 0 0 1 -12.7 -5.55)" clip-path="url(#CLIPPATH_21)"  >
<clipPath id="CLIPPATH_21" >
	<path transform="matrix(1 0 0 1 -1.02 -0.05) translate(-337.63, -137.85)" id="SVGID_20_" clip-path="url(#undefined)" d="M 338.9 128 C 340.79999999999995 147.5 339.29999999999995 148 338.59999999999997 147.7 C 337.9 147.39999999999998 337.7 145.79999999999998 337.4 144.2 C 336.59999999999997 140.79999999999998 334.5 130.39999999999998 335.9 128.6 C 336.5 127.7 338.9 128 338.9 128" stroke-linecap="round" />
</clipPath>
<path style="stroke: none; stroke-width: 1; stroke-dasharray: none; stroke-linecap: butt; stroke-dashoffset: 0; stroke-linejoin: miter; stroke-miterlimit: 4; fill: rgb(255,222,89); fill-rule: nonzero; opacity: 1;" vector-effect="non-scaling-stroke"  transform=" translate(-338.65, -137.9)" d="M 331.9 124 L 345.4 124 L 345.4 151.8 L 331.9 151.8 L 331.9 124 z" stroke-linecap="round" />
</g>
		<g transform="matrix(1 0 0 1 -17.85 -19.85)" clip-path="url(#CLIPPATH_22)"  >
<clipPath id="CLIPPATH_22" >
	<path transform="matrix(1 0 0 1 -0.07 0.04) translate(-333.43, -123.64)" id="SVGID_24_" clip-path="url(#undefined)" d="M 330.6 125.5 C 335.6 120 336.3 120.4 336.40000000000003 120.7 C 336.6 121.10000000000001 336.3 122 335.90000000000003 122.5 C 335.40000000000003 123.3 333.8 124.7 333.00000000000006 124.7 C 332.50000000000006 124.60000000000001 331.80000000000007 123.9 331.80000000000007 123.60000000000001 C 331.9000000000001 123.30000000000001 333.00000000000006 122.7 333.30000000000007 122.80000000000001 C 333.6000000000001 123.00000000000001 333.70000000000005 124.20000000000002 333.4000000000001 124.50000000000001 C 333.2000000000001 124.70000000000002 332.5000000000001 124.70000000000002 332.2000000000001 124.50000000000001 C 332.0000000000001 124.30000000000001 331.8000000000001 123.60000000000001 332.0000000000001 123.10000000000001 C 332.3000000000001 122.2 334.2000000000001 120.30000000000001 335.10000000000014 120.10000000000001 C 335.5000000000001 120.00000000000001 336.20000000000016 120.2 336.3000000000001 120.50000000000001 C 336.60000000000014 121.40000000000002 333.0000000000001 126.60000000000001 331.8000000000001 127.10000000000001 C 331.3000000000001 127.30000000000001 330.7000000000001 127.2 330.5000000000001 127.00000000000001 C 330.2 126.7 330.6 125.5 330.6 125.5" stroke-linecap="round" />
</clipPath>
<path style="stroke: none; stroke-width: 1; stroke-dasharray: none; stroke-linecap: butt; stroke-dashoffset: 0; stroke-linejoin: miter; stroke-miterlimit: 4; fill: rgb(255,222,89); fill-rule: nonzero; opacity: 1;" vector-effect="non-scaling-stroke"  transform=" translate(-333.5, -123.6)" d="M 326.5 116.1 L 340.5 116.1 L 340.5 131.1 L 326.5 131.1 L 326.5 116.1 z" stroke-linecap="round" />
</g>
		<g transform="matrix(1 0 0 1 -19.85 -21.2)" clip-path="url(#CLIPPATH_23)"  >
<clipPath id="CLIPPATH_23" >
	<path transform="matrix(1 0 0 1 0.19 -0.16) translate(-331.69, -122.09)" id="SVGID_28_" clip-path="url(#undefined)" d="M 331.9 122.2 C 331 122.5 331.79999999999995 121.9 331.79999999999995 121.9" stroke-linecap="round" />
</clipPath>
<path style="stroke: none; stroke-width: 1; stroke-dasharray: none; stroke-linecap: butt; stroke-dashoffset: 0; stroke-linejoin: miter; stroke-miterlimit: 4; fill: rgb(255,222,89); fill-rule: nonzero; opacity: 1;" vector-effect="non-scaling-stroke"  transform=" translate(-331.5, -122.25)" d="M 327 117.9 L 336 117.9 L 336 126.60000000000001 L 327 126.60000000000001 L 327 117.9 z" stroke-linecap="round" />
</g>
		<g transform="matrix(1 0 0 1 4.5 -20.05)" clip-path="url(#CLIPPATH_24)"  >
<clipPath id="CLIPPATH_24" >
	<path transform="matrix(1 0 0 1 -0.05 -0.01) translate(-355.8, -123.39)" id="SVGID_32_" clip-path="url(#undefined)" d="M 355.7 121.5 C 358.5 124.8 358.7 125.5 358.59999999999997 125.7 C 358.4 126 357.9 126.10000000000001 357.4 125.9 C 356 125.4 351.29999999999995 120.2 351.2 119.10000000000001 C 351.2 118.7 351.5 118.4 351.7 118.30000000000001 C 352.09999999999997 118.20000000000002 352.7 118.70000000000002 353.4 119.20000000000002 C 355.09999999999997 120.60000000000002 360.5 126.60000000000002 360.4 127.80000000000001 C 360.4 128.20000000000002 360.09999999999997 128.5 359.7 128.5 C 358.4 128.4 351.2 120.4 351.2 119.1 C 351.2 118.69999999999999 351.59999999999997 118.39999999999999 351.9 118.39999999999999 C 352.9 118.49999999999999 357.4 125.3 357.4 125.3 C 357.4 125.3 354.9 122.7 354.9 122.1 C 355 121.8 355.7 121.5 355.7 121.5" stroke-linecap="round" />
</clipPath>
<path style="stroke: none; stroke-width: 1; stroke-dasharray: none; stroke-linecap: butt; stroke-dashoffset: 0; stroke-linejoin: miter; stroke-miterlimit: 4; fill: rgb(255,222,89); fill-rule: nonzero; opacity: 1;" vector-effect="non-scaling-stroke"  transform=" translate(-355.85, -123.4)" d="M 347.2 114.3 L 364.5 114.3 L 364.5 132.5 L 347.2 132.5 L 347.2 114.3 z" stroke-linecap="round" />
</g>
		<g transform="matrix(1 0 0 1 5.1 -20.4)" clip-path="url(#CLIPPATH_25)"  >
<clipPath id="CLIPPATH_25" >
	<path transform="matrix(1 0 0 1 -0.06 0) translate(-356.39, -123.05)" id="SVGID_36_" clip-path="url(#undefined)" d="M 354 118.6 C 359.6 127.19999999999999 358.8 127.39999999999999 358.8 127.39999999999999 L 359.6 126.8 C 359.6 126.8 359.20000000000005 127.5 358.8 127.5 C 358.1 127.3 356.6 124.3 355.6 122.9 C 354.8 121.60000000000001 353 119.80000000000001 353.20000000000005 119.10000000000001 C 353.2 118.8 354 118.6 354 118.6" stroke-linecap="round" />
</clipPath>
<path style="stroke: none; stroke-width: 1; stroke-dasharray: none; stroke-linecap: butt; stroke-dashoffset: 0; stroke-linejoin: miter; stroke-miterlimit: 4; fill: rgb(255,222,89); fill-rule: nonzero; opacity: 1;" vector-effect="non-scaling-stroke"  transform=" translate(-356.45, -123.05)" d="M 349.2 114.6 L 363.7 114.6 L 363.7 131.5 L 349.2 131.5 L 349.2 114.6 z" stroke-linecap="round" />
</g>
		<g transform="matrix(1 0 0 1 6.8 -17.6)" clip-path="url(#CLIPPATH_26)"  >
<clipPath id="CLIPPATH_26" >
	<path transform="matrix(1 0 0 1 -2.7 -3.75) translate(-355.45, -122.1)" id="SVGID_40_" clip-path="url(#undefined)" d="M 354 118.6 C 362.9 133.2 352.9 120.69999999999999 353.2 119.19999999999999 C 353.2 118.8 354 118.6 354 118.6" stroke-linecap="round" />
</clipPath>
<path style="stroke: none; stroke-width: 1; stroke-dasharray: none; stroke-linecap: butt; stroke-dashoffset: 0; stroke-linejoin: miter; stroke-miterlimit: 4; fill: rgb(255,222,89); fill-rule: nonzero; opacity: 1;" vector-effect="non-scaling-stroke"  transform=" translate(-358.15, -125.85)" d="M 349.2 114.6 L 367.09999999999997 114.6 L 367.09999999999997 137.1 L 349.2 137.1 L 349.2 114.6 z" stroke-linecap="round" />
</g>
		<g transform="matrix(1 0 0 1 3.25 4.05)" clip-path="url(#CLIPPATH_27)"  >
<clipPath id="CLIPPATH_27" >
	<path transform="matrix(1 0 0 1 -0.04 -0.14) translate(-354.56, -147.36)" id="SVGID_44_" clip-path="url(#undefined)" d="M 359.4 142.6 C 351.09999999999997 148 351.4 149.6 351.09999999999997 149.7 C 350.9 149.79999999999998 350.29999999999995 149.6 350.29999999999995 149.29999999999998 C 350.19999999999993 148.49999999999997 354.29999999999995 144.89999999999998 356.09999999999997 143.7 C 357.29999999999995 142.79999999999998 359.29999999999995 141.89999999999998 359.4 142.1 C 359.59999999999997 142.4 352.5 149.1 350.79999999999995 149.7 C 350.29999999999995 149.89999999999998 349.59999999999997 149.79999999999998 349.49999999999994 149.6 C 349.29999999999995 149.29999999999998 349.79999999999995 148.5 350.09999999999997 147.9 C 350.7 146.9 351.9 144.9 353.29999999999995 144.1 C 354.79999999999995 143.2 358.59999999999997 142.5 358.9 143.1 C 359.29999999999995 143.7 355.29999999999995 146.6 354.09999999999997 148.5 C 353.2 150 352.29999999999995 153.2 352.2 153.2 C 352 153.2 352.4 149.7 353.2 148.1 C 354.2 146.4 358.4 143.9 358.2 143.5 C 358 143.2 355.3 144 354 144.8 C 352.6 145.70000000000002 350.1 148.70000000000002 350.3 148.9 C 350.5 149.1 359.3 142 359.5 142.20000000000002 C 359.6 142.4 353.6 148.60000000000002 351.9 149.4 C 351.29999999999995 149.70000000000002 350.59999999999997 149.8 350.4 149.5 C 350 149.2 350.29999999999995 147.8 350.79999999999995 146.9 C 351.9 145.3 356.4 142.3 357.99999999999994 141.70000000000002 C 358.69999999999993 141.50000000000003 359.49999999999994 141.4 359.59999999999997 141.70000000000002 C 359.8 141.8 359.4 142.6 359.4 142.6" stroke-linecap="round" />
</clipPath>
<path style="stroke: none; stroke-width: 1; stroke-dasharray: none; stroke-linecap: butt; stroke-dashoffset: 0; stroke-linejoin: miter; stroke-miterlimit: 4; fill: rgb(255,222,89); fill-rule: nonzero; opacity: 1;" vector-effect="non-scaling-stroke"  transform=" translate(-354.6, -147.5)" d="M 345.5 137.7 L 363.7 137.7 L 363.7 157.29999999999998 L 345.5 157.29999999999998 L 345.5 137.7 z" stroke-linecap="round" />
</g>
		<g transform="matrix(1 0 0 1 3.75 5.15)" clip-path="url(#CLIPPATH_28)"  >
<clipPath id="CLIPPATH_28" >
	<path transform="matrix(1 0 0 1 -0.21 0) translate(-354.89, -148.6)" id="SVGID_48_" clip-path="url(#undefined)" d="M 352.5 150.5 C 357.9 143 359.2 142.2 359.7 142.3 C 360 142.3 360.3 142.70000000000002 360.3 143 C 360.1 144.1 353.6 147.1 351.90000000000003 149.4 C 350.6 151.20000000000002 350.3 155 349.90000000000003 155 C 349.6 154.9 349.20000000000005 152.1 349.8 150.6 C 350.6 148.4 354.2 145.5 356.1 144 C 357.3 143.1 358.70000000000005 142.1 359.40000000000003 142.2 C 359.8 142.29999999999998 360.3 142.7 360.3 143 C 360.3 143.6 357.90000000000003 144.3 356.8 145.4 C 355.6 146.8 354.6 150 353.7 150.8 C 353.3 151.20000000000002 352.9 151.5 352.7 151.4 C 352.5 151.3 352.5 150.5 352.5 150.5" stroke-linecap="round" />
</clipPath>
<path style="stroke: none; stroke-width: 1; stroke-dasharray: none; stroke-linecap: butt; stroke-dashoffset: 0; stroke-linejoin: miter; stroke-miterlimit: 4; fill: rgb(255,222,89); fill-rule: nonzero; opacity: 1;" vector-effect="non-scaling-stroke"  transform=" translate(-355.1, -148.6)" d="M 345.8 138.2 L 364.40000000000003 138.2 L 364.40000000000003 159 L 345.8 159 L 345.8 138.2 z" stroke-linecap="round" />
</g>
		<g transform="matrix(1 0 0 1 -18.3 4.3)" clip-path="url(#CLIPPATH_29)"  >
<clipPath id="CLIPPATH_29" >
	<path transform="matrix(1 0 0 1 0 -0.05) translate(-333.05, -147.7)" id="SVGID_52_" clip-path="url(#undefined)" d="M 329.1 143.3 C 336.1 148.9 337.8 150.9 337.70000000000005 151.5 C 337.6 151.8 336.80000000000007 152 336.80000000000007 152 C 336.80000000000007 152 337.6000000000001 151.5 337.70000000000005 151.5 C 337.70000000000005 151.5 337.20000000000005 152.1 336.90000000000003 152.1 C 336.20000000000005 152 335.00000000000006 149 333.6 147.7 C 332.20000000000005 146.29999999999998 328.5 144.79999999999998 328.40000000000003 144 C 328.4 143.7 329.1 143.3 329.1 143.3" stroke-linecap="round" />
</clipPath>
<path style="stroke: none; stroke-width: 1; stroke-dasharray: none; stroke-linecap: butt; stroke-dashoffset: 0; stroke-linejoin: miter; stroke-miterlimit: 4; fill: rgb(255,222,89); fill-rule: nonzero; opacity: 1;" vector-effect="non-scaling-stroke"  transform=" translate(-333.05, -147.75)" d="M 324.4 139.3 L 341.7 139.3 L 341.7 156.20000000000002 L 324.4 156.20000000000002 L 324.4 139.3 z" stroke-linecap="round" />
</g>
		<g transform="matrix(1 0 0 1 -17.3 4.35)" clip-path="url(#CLIPPATH_30)"  >
<clipPath id="CLIPPATH_30" >
	<path transform="matrix(1 0 0 1 -0.05 -0.05) translate(-334, -147.75)" id="SVGID_56_" clip-path="url(#undefined)" d="M 331.1 143.5 C 337.6 151.8 336.8 152 336.8 152 L 337.6 151.4 C 337.6 151.4 337.20000000000005 152.1 336.8 152 C 335.7 151.9 330.3 145.3 330.40000000000003 144.2 C 330.4 143.8 331.1 143.5 331.1 143.5" stroke-linecap="round" />
</clipPath>
<path style="stroke: none; stroke-width: 1; stroke-dasharray: none; stroke-linecap: butt; stroke-dashoffset: 0; stroke-linejoin: miter; stroke-miterlimit: 4; fill: rgb(255,222,89); fill-rule: nonzero; opacity: 1;" vector-effect="non-scaling-stroke"  transform=" translate(-334.05, -147.8)" d="M 326.4 139.5 L 341.7 139.5 L 341.7 156.1 L 326.4 156.1 L 326.4 139.5 z" stroke-linecap="round" />
</g>
		<g transform="matrix(1 0 0 1 -16.65 5.3)" clip-path="url(#CLIPPATH_31)"  >
<clipPath id="CLIPPATH_31" >
	<path transform="matrix(1 0 0 1 -0.04 -0.06) translate(-334.66, -148.69)" id="SVGID_60_" clip-path="url(#undefined)" d="M 335.6 150.8 C 333 146.8 333.8 146.60000000000002 333.8 146.70000000000002 L 332.90000000000003 147.10000000000002 C 332.90000000000003 147.10000000000002 333.50000000000006 146.50000000000003 333.8 146.60000000000002 C 334.5 146.8 336.6 149.60000000000002 336.40000000000003 150.3 C 336.4 150.6 335.6 150.8 335.6 150.8" stroke-linecap="round" />
</clipPath>
<path style="stroke: none; stroke-width: 1; stroke-dasharray: none; stroke-linecap: butt; stroke-dashoffset: 0; stroke-linejoin: miter; stroke-miterlimit: 4; fill: rgb(255,222,89); fill-rule: nonzero; opacity: 1;" vector-effect="non-scaling-stroke"  transform=" translate(-334.7, -148.75)" d="M 328.9 142.6 L 340.5 142.6 L 340.5 154.9 L 328.9 154.9 L 328.9 142.6 z" stroke-linecap="round" />
</g>
		<g transform="matrix(1 0 0 1 -16.95 5.95)" clip-path="url(#CLIPPATH_32)"  >
<clipPath id="CLIPPATH_32" >
	<path transform="matrix(1 0 0 1 0.03 0) translate(-334.43, -149.4)" id="SVGID_64_" clip-path="url(#undefined)" d="M 332.7 145.1 C 336.3 150.29999999999998 337.2 152.6 336.9 153.29999999999998 C 336.79999999999995 153.6 336.09999999999997 153.7 336.09999999999997 153.7 C 336.09999999999997 153.7 336.9 153.1 336.79999999999995 153.1 C 336.79999999999995 153.1 336.29999999999995 153.7 335.99999999999994 153.6 C 335.49999999999994 153.4 335.3999999999999 150.7 334.79999999999995 149.4 C 334.09999999999997 148 331.79999999999995 146.4 331.9 145.70000000000002 C 332 145.4 332.7 145.1 332.7 145.1" stroke-linecap="round" />
</clipPath>
<path style="stroke: none; stroke-width: 1; stroke-dasharray: none; stroke-linecap: butt; stroke-dashoffset: 0; stroke-linejoin: miter; stroke-miterlimit: 4; fill: rgb(255,222,89); fill-rule: nonzero; opacity: 1;" vector-effect="non-scaling-stroke"  transform=" translate(-334.4, -149.4)" d="M 327.9 141.1 L 340.9 141.1 L 340.9 157.7 L 327.9 157.7 L 327.9 141.1 z" stroke-linecap="round" />
</g>
		<g transform="matrix(1 0 0 1 -17.75 -21.55)" clip-path="url(#CLIPPATH_33)"  >
<clipPath id="CLIPPATH_33" >
	<path transform="matrix(1 0 0 1 -0.09 0.36) translate(-333.51, -122.26)" id="SVGID_68_" clip-path="url(#undefined)" d="M 329.8 123.4 C 337.3 119.5 337.40000000000003 119.9 337.3 120.30000000000001 C 337.1 121.10000000000001 334.5 122.80000000000001 333.1 123.50000000000001 C 332 124.00000000000001 330.20000000000005 124.70000000000002 329.8 124.40000000000002 C 329.6 124.2 329.8 123.4 329.8 123.4" stroke-linecap="round" />
</clipPath>
<path style="stroke: none; stroke-width: 1; stroke-dasharray: none; stroke-linecap: butt; stroke-dashoffset: 0; stroke-linejoin: miter; stroke-miterlimit: 4; fill: rgb(255,222,89); fill-rule: nonzero; opacity: 1;" vector-effect="non-scaling-stroke"  transform=" translate(-333.6, -121.9)" d="M 325.8 115.4 L 341.40000000000003 115.4 L 341.40000000000003 128.4 L 325.8 128.4 L 325.8 115.4 z" stroke-linecap="round" />
</g>
		<g transform="matrix(1 0 0 1 -18.85 -21.85)" clip-path="url(#CLIPPATH_34)"  >
<clipPath id="CLIPPATH_34" >
	<path transform="matrix(1 0 0 1 -0.04 0.36) translate(-332.46, -121.96)" id="SVGID_72_" clip-path="url(#undefined)" d="M 327.2 124.5 C 337.7 117.9 337.8 118.3 337.7 118.7 C 337.4 119.9 331.2 123.3 329.3 124.4 C 328.5 124.9 327.7 125.5 327.40000000000003 125.4 C 327.2 125.3 327.2 124.5 327.2 124.5" stroke-linecap="round" />
</clipPath>
<path style="stroke: none; stroke-width: 1; stroke-dasharray: none; stroke-linecap: butt; stroke-dashoffset: 0; stroke-linejoin: miter; stroke-miterlimit: 4; fill: rgb(255,222,89); fill-rule: nonzero; opacity: 1;" vector-effect="non-scaling-stroke"  transform=" translate(-332.5, -121.6)" d="M 323.2 113.8 L 341.8 113.8 L 341.8 129.4 L 323.2 129.4 L 323.2 113.8 z" stroke-linecap="round" />
</g>
		<g transform="matrix(1 0 0 1 -19.15 -22.35)" clip-path="url(#CLIPPATH_35)"  >
<clipPath id="CLIPPATH_35" >
	<path transform="matrix(1 0 0 1 -0.03 0.06) translate(-332.17, -121.16)" id="SVGID_76_" clip-path="url(#undefined)" d="M 326.2 124 C 336 119.9 336.9 117.3 337.5 117.3 C 337.8 117.3 338.1 118.1 338.1 118.1 C 338.20000000000005 118 337.8 117.19999999999999 337.8 117.19999999999999 C 337.8 117.19999999999999 338.3 117.6 338.3 117.89999999999999 C 338.2 118.69999999999999 336.40000000000003 120.69999999999999 335 121.8 C 333.5 123 331 124.2 329.3 124.7 C 328.1 125 326.40000000000003 125.3 326.1 125 C 325.9 124.8 326.2 124 326.2 124" stroke-linecap="round" />
</clipPath>
<path style="stroke: none; stroke-width: 1; stroke-dasharray: none; stroke-linecap: butt; stroke-dashoffset: 0; stroke-linejoin: miter; stroke-miterlimit: 4; fill: rgb(255,222,89); fill-rule: nonzero; opacity: 1;" vector-effect="non-scaling-stroke"  transform=" translate(-332.2, -121.1)" d="M 322.1 113.2 L 342.3 113.2 L 342.3 129 L 322.1 129 L 322.1 113.2 z" stroke-linecap="round" />
</g>
		<g transform="matrix(1 0 0 1 -18.5 -22.1)" clip-path="url(#CLIPPATH_36)"  >
<clipPath id="CLIPPATH_36" >
	<path transform="matrix(1 0 0 1 -0.05 0.05) translate(-332.8, -121.4)" id="SVGID_80_" clip-path="url(#undefined)" d="M 329.5 124.4 C 334.4 120.30000000000001 335 117.5 335.6 117.4 C 335.90000000000003 117.4 336.3 118 336.3 118.10000000000001 C 336.2 118.10000000000001 335.3 117.7 335.3 117.7 C 335.3 117.7 336.2 117.7 336.3 118 C 336.5 118.6 335.1 120.9 334.1 122.1 C 333.20000000000005 123.3 331.5 124.69999999999999 330.6 125.1 C 330.1 125.39999999999999 329.40000000000003 125.5 329.3 125.3 C 329.2 125.1 329.5 124.4 329.5 124.4" stroke-linecap="round" />
</clipPath>
<path style="stroke: none; stroke-width: 1; stroke-dasharray: none; stroke-linecap: butt; stroke-dashoffset: 0; stroke-linejoin: miter; stroke-miterlimit: 4; fill: rgb(255,222,89); fill-rule: nonzero; opacity: 1;" vector-effect="non-scaling-stroke"  transform=" translate(-332.85, -121.35)" d="M 325.3 113.4 L 340.40000000000003 113.4 L 340.40000000000003 129.3 L 325.3 129.3 L 325.3 113.4 z" stroke-linecap="round" />
</g>
		<g transform="matrix(1 0 0 1 -18.15 -22.3)" clip-path="url(#CLIPPATH_37)"  >
<clipPath id="CLIPPATH_37" >
	<path transform="matrix(1 0 0 1 -0.02 0.04) translate(-333.18, -121.19)" id="SVGID_84_" clip-path="url(#undefined)" d="M 329.8 125.8 C 333.6 122.6 336.3 115.5 336.6 115.6 C 336.90000000000003 115.69999999999999 336.40000000000003 118.39999999999999 335.90000000000003 119.8 C 335.3 121.3 334.20000000000005 123.1 333.3 124.3 C 332.5 125.2 331.6 126.2 330.90000000000003 126.5 C 330.40000000000003 126.7 329.8 126.9 329.70000000000005 126.7 C 329.6 126.6 329.8 125.8 329.8 125.8" stroke-linecap="round" />
</clipPath>
<path style="stroke: none; stroke-width: 1; stroke-dasharray: none; stroke-linecap: butt; stroke-dashoffset: 0; stroke-linejoin: miter; stroke-miterlimit: 4; fill: rgb(255,222,89); fill-rule: nonzero; opacity: 1;" vector-effect="non-scaling-stroke"  transform=" translate(-333.2, -121.15)" d="M 325.7 111.6 L 340.7 111.6 L 340.7 130.7 L 325.7 130.7 L 325.7 111.6 z" stroke-linecap="round" />
</g>
		<g transform="matrix(1 0 0 1 -17 -22.7)" clip-path="url(#CLIPPATH_38)"  >
<clipPath id="CLIPPATH_38" >
	<path transform="matrix(1 0 0 1 -0.03 0) translate(-334.32, -120.75)" id="SVGID_88_" clip-path="url(#undefined)" d="M 330.5 126.3 C 336 118.8 336.5 114.6 337.3 114.3 C 337.6 114.2 338 114.5 338.1 114.8 C 338.40000000000003 115.7 336.8 119.39999999999999 335.70000000000005 121.3 C 334.70000000000005 123.2 332.70000000000005 125.6 331.80000000000007 126.5 C 331.4000000000001 126.9 331.00000000000006 127.3 330.80000000000007 127.2 C 330.6 127.1 330.5 126.3 330.5 126.3" stroke-linecap="round" />
</clipPath>
<path style="stroke: none; stroke-width: 1; stroke-dasharray: none; stroke-linecap: butt; stroke-dashoffset: 0; stroke-linejoin: miter; stroke-miterlimit: 4; fill: rgb(255,222,89); fill-rule: nonzero; opacity: 1;" vector-effect="non-scaling-stroke"  transform=" translate(-334.35, -120.75)" d="M 326.5 110.3 L 342.2 110.3 L 342.2 131.2 L 326.5 131.2 L 326.5 110.3 z" stroke-linecap="round" />
</g>
		<g transform="matrix(1 0 0 1 -19 -21.35)" clip-path="url(#CLIPPATH_39)"  >
<clipPath id="CLIPPATH_39" >
	<path transform="matrix(1 0 0 1 -0.05 0) translate(-332.3, -122.1)" id="SVGID_92_" clip-path="url(#undefined)" d="M 327.8 126.8 C 336.40000000000003 116.7 336.8 117.39999999999999 336.8 117.39999999999999 C 336.8 117.39999999999999 336.2 116.69999999999999 336.2 116.6 C 336.2 116.6 336.8 117 336.8 117.39999999999999 C 336.90000000000003 118.6 332.8 122.99999999999999 331.2 124.8 C 330.2 126 329 127.6 328.4 127.6 C 328.1 127.5 327.8 126.8 327.8 126.8" stroke-linecap="round" />
</clipPath>
<path style="stroke: none; stroke-width: 1; stroke-dasharray: none; stroke-linecap: butt; stroke-dashoffset: 0; stroke-linejoin: miter; stroke-miterlimit: 4; fill: rgb(255,222,89); fill-rule: nonzero; opacity: 1;" vector-effect="non-scaling-stroke"  transform=" translate(-332.35, -122.1)" d="M 323.8 112.6 L 340.90000000000003 112.6 L 340.90000000000003 131.6 L 323.8 131.6 L 323.8 112.6 z" stroke-linecap="round" />
</g>
		<g transform="matrix(1 0 0 1 -18.8 -23.95)" clip-path="url(#CLIPPATH_40)"  >
<clipPath id="CLIPPATH_40" >
	<path transform="matrix(1 0 0 1 -0.05 -0.04) translate(-332.5, -119.46)" id="SVGID_96_" clip-path="url(#undefined)" d="M 327.4 124.3 C 332.5 120.8 335.7 114.2 336.79999999999995 114 C 337.09999999999997 114 337.49999999999994 114.7 337.59999999999997 114.6 L 336.99999999999994 113.8 C 336.99999999999994 113.8 337.59999999999997 114.2 337.59999999999997 114.6 C 337.59999999999997 115.8 333.79999999999995 120.69999999999999 331.9 122.5 C 330.59999999999997 123.8 328.5 125.3 327.79999999999995 125.1 C 327.5 125.1 327.4 124.3 327.4 124.3" stroke-linecap="round" />
</clipPath>
<path style="stroke: none; stroke-width: 1; stroke-dasharray: none; stroke-linecap: butt; stroke-dashoffset: 0; stroke-linejoin: miter; stroke-miterlimit: 4; fill: rgb(255,222,89); fill-rule: nonzero; opacity: 1;" vector-effect="non-scaling-stroke"  transform=" translate(-332.55, -119.5)" d="M 323.4 109.8 L 341.7 109.8 L 341.7 129.2 L 323.4 129.2 L 323.4 109.8 z" stroke-linecap="round" />
</g>
		<g transform="matrix(1 0 0 1 2.2 -23.8)" clip-path="url(#CLIPPATH_41)"  >
<clipPath id="CLIPPATH_41" >
	<path transform="matrix(1 0 0 1 -0.77 -1.04) translate(-352.78, -118.61)" id="SVGID_100_" clip-path="url(#undefined)" d="M 352.9 117.5 C 355.09999999999997 121.9 351.79999999999995 118.5 351.9 117.9 C 352 117.6 352.9 117.5 352.9 117.5" stroke-linecap="round" />
</clipPath>
<path style="stroke: none; stroke-width: 1; stroke-dasharray: none; stroke-linecap: butt; stroke-dashoffset: 0; stroke-linejoin: miter; stroke-miterlimit: 4; fill: rgb(255,222,89); fill-rule: nonzero; opacity: 1;" vector-effect="non-scaling-stroke"  transform=" translate(-353.55, -119.65)" d="M 347.9 113.5 L 359.2 113.5 L 359.2 125.8 L 347.9 125.8 L 347.9 113.5 z" stroke-linecap="round" />
</g>
		<g transform="matrix(1 0 0 1 5.15 -20.65)" clip-path="url(#CLIPPATH_42)"  >
<clipPath id="CLIPPATH_42" >
	<path transform="matrix(1 0 0 1 -0.06 -0.05) translate(-356.44, -122.75)" id="SVGID_104_" clip-path="url(#undefined)" d="M 353.6 117.8 C 360 127.39999999999999 359.20000000000005 127.6 359.20000000000005 127.6 C 359.20000000000005 127.69999999999999 360.1 127.1 360.1 127.1 C 360.1 127.1 359.6 127.69999999999999 359.3 127.69999999999999 C 358.7 127.6 357.7 126.1 356.8 124.89999999999999 C 355.6 123.3 352.5 119.3 352.8 118.3 C 352.8 118 353.6 117.8 353.6 117.8" stroke-linecap="round" />
</clipPath>
<path style="stroke: none; stroke-width: 1; stroke-dasharray: none; stroke-linecap: butt; stroke-dashoffset: 0; stroke-linejoin: miter; stroke-miterlimit: 4; fill: rgb(255,222,89); fill-rule: nonzero; opacity: 1;" vector-effect="non-scaling-stroke"  transform=" translate(-356.5, -122.8)" d="M 348.8 113.8 L 364.2 113.8 L 364.2 131.8 L 348.8 131.8 L 348.8 113.8 z" stroke-linecap="round" />
</g>
		<g transform="matrix(1 0 0 1 5.05 -19.8)" clip-path="url(#CLIPPATH_43)"  >
<clipPath id="CLIPPATH_43" >
	<path transform="matrix(1 0 0 1 -0.05 -0.05) translate(-356.35, -123.6)" id="SVGID_108_" clip-path="url(#undefined)" d="M 352.7 119.3 C 360.8 127.5 360.09999999999997 127.89999999999999 360.09999999999997 127.89999999999999 L 360.7 127.1 C 360.7 127.1 360.5 127.89999999999999 360.09999999999997 127.89999999999999 C 358.99999999999994 127.99999999999999 351.99999999999994 121.19999999999999 351.99999999999994 119.99999999999999 C 352 119.6 352.7 119.3 352.7 119.3" stroke-linecap="round" />
</clipPath>
<path style="stroke: none; stroke-width: 1; stroke-dasharray: none; stroke-linecap: butt; stroke-dashoffset: 0; stroke-linejoin: miter; stroke-miterlimit: 4; fill: rgb(255,222,89); fill-rule: nonzero; opacity: 1;" vector-effect="non-scaling-stroke"  transform=" translate(-356.4, -123.65)" d="M 348 115.3 L 364.8 115.3 L 364.8 132 L 348 132 L 348 115.3 z" stroke-linecap="round" />
</g>
		<g transform="matrix(1 0 0 1 5.4 -20.65)" clip-path="url(#CLIPPATH_44)"  >
<clipPath id="CLIPPATH_44" >
	<path transform="matrix(1 0 0 1 -1.68 -1.9) translate(-355.07, -120.9)" id="SVGID_112_" clip-path="url(#undefined)" d="M 354.4 119 C 359.7 126.6 353.5 120.6 353.59999999999997 119.6 C 353.6 119.3 354.4 119 354.4 119" stroke-linecap="round" />
</clipPath>
<path style="stroke: none; stroke-width: 1; stroke-dasharray: none; stroke-linecap: butt; stroke-dashoffset: 0; stroke-linejoin: miter; stroke-miterlimit: 4; fill: rgb(255,222,89); fill-rule: nonzero; opacity: 1;" vector-effect="non-scaling-stroke"  transform=" translate(-356.75, -122.8)" d="M 349.6 115 L 363.90000000000003 115 L 363.90000000000003 130.6 L 349.6 130.6 L 349.6 115 z" stroke-linecap="round" />
</g>
		<g transform="matrix(1 0 0 1 6.1 -20.5)" clip-path="url(#CLIPPATH_45)"  >
<clipPath id="CLIPPATH_45" >
	<path transform="matrix(1 0 0 1 -0.33 -0.05) translate(-357.12, -122.9)" id="SVGID_116_" clip-path="url(#undefined)" d="M 354.7 118.9 C 360.8 126.60000000000001 360.4 126.9 360.09999999999997 126.9 C 359.09999999999997 126.9 353.9 120.7 353.99999999999994 119.5 C 354 119.2 354.7 118.9 354.7 118.9" stroke-linecap="round" />
</clipPath>
<path style="stroke: none; stroke-width: 1; stroke-dasharray: none; stroke-linecap: butt; stroke-dashoffset: 0; stroke-linejoin: miter; stroke-miterlimit: 4; fill: rgb(255,222,89); fill-rule: nonzero; opacity: 1;" vector-effect="non-scaling-stroke"  transform=" translate(-357.45, -122.95)" d="M 350 114.9 L 364.9 114.9 L 364.9 131 L 350 131 L 350 114.9 z" stroke-linecap="round" />
</g>
		<g transform="matrix(1 0 0 1 7.4 -20.4)" clip-path="url(#CLIPPATH_46)"  >
<clipPath id="CLIPPATH_46" >
	<path transform="matrix(1 0 0 1 -0.04 0) translate(-358.71, -123.05)" id="SVGID_120_" clip-path="url(#undefined)" d="M 355 118.5 C 361.1 126 363.1 126.3 363.2 126.8 C 363.2 127 362.5 127.5 362.5 127.5 L 363.2 126.8 C 363.3 126.89999999999999 363 127.5 362.7 127.6 C 362.09999999999997 127.69999999999999 360.4 126.69999999999999 359.3 125.8 C 357.6 124.3 354 120.2 354.2 119.2 C 354.2 118.8 355 118.5 355 118.5" stroke-linecap="round" />
</clipPath>
<path style="stroke: none; stroke-width: 1; stroke-dasharray: none; stroke-linecap: butt; stroke-dashoffset: 0; stroke-linejoin: miter; stroke-miterlimit: 4; fill: rgb(255,222,89); fill-rule: nonzero; opacity: 1;" vector-effect="non-scaling-stroke"  transform=" translate(-358.75, -123.05)" d="M 350.2 114.5 L 367.3 114.5 L 367.3 131.6 L 350.2 131.6 L 350.2 114.5 z" stroke-linecap="round" />
</g>
		<g transform="matrix(1 0 0 1 3.45 -22.8)" clip-path="url(#CLIPPATH_47)"  >
<clipPath id="CLIPPATH_47" >
	<path transform="matrix(1 0 0 1 -0.05 -0.04) translate(-354.75, -120.61)" id="SVGID_124_" clip-path="url(#undefined)" d="M 352.9 117.3 C 356.09999999999997 120.6 357.4 122.6 357.29999999999995 123.3 C 357.19999999999993 123.6 356.9 124 356.49999999999994 123.89999999999999 C 355.69999999999993 123.8 352.09999999999997 118.89999999999999 352.19999999999993 117.89999999999999 C 352.2 117.6 352.9 117.3 352.9 117.3" stroke-linecap="round" />
</clipPath>
<path style="stroke: none; stroke-width: 1; stroke-dasharray: none; stroke-linecap: butt; stroke-dashoffset: 0; stroke-linejoin: miter; stroke-miterlimit: 4; fill: rgb(255,222,89); fill-rule: nonzero; opacity: 1;" vector-effect="non-scaling-stroke"  transform=" translate(-354.8, -120.65)" d="M 348.2 113.3 L 361.4 113.3 L 361.4 128 L 348.2 128 L 348.2 113.3 z" stroke-linecap="round" />
</g>
		<g transform="matrix(1 0 0 1 4.85 2.7)" clip-path="url(#CLIPPATH_48)"  >
<clipPath id="CLIPPATH_48" >
	<path transform="matrix(1 0 0 1 0 -0.09) translate(-356.2, -146.06)" id="SVGID_128_" clip-path="url(#undefined)" d="M 352.5 150.3 C 357.4 142.70000000000002 358.5 141.3 359.1 141.3 C 359.5 141.3 359.8 141.60000000000002 359.90000000000003 141.9 C 359.90000000000003 142.8 356.20000000000005 145.5 355.1 147.20000000000002 C 354.20000000000005 148.4 354 150.60000000000002 353.40000000000003 150.8 C 353.1 150.9 352.5 150.3 352.5 150.3" stroke-linecap="round" />
</clipPath>
<path style="stroke: none; stroke-width: 1; stroke-dasharray: none; stroke-linecap: butt; stroke-dashoffset: 0; stroke-linejoin: miter; stroke-miterlimit: 4; fill: rgb(255,222,89); fill-rule: nonzero; opacity: 1;" vector-effect="non-scaling-stroke"  transform=" translate(-356.2, -146.15)" d="M 348.5 137.3 L 363.9 137.3 L 363.9 155 L 348.5 155 L 348.5 137.3 z" stroke-linecap="round" />
</g>
		<g transform="matrix(1 0 0 1 7.05 1.65)" clip-path="url(#CLIPPATH_49)"  >
<clipPath id="CLIPPATH_49" >
	<path transform="matrix(1 0 0 1 0.07 -0.11) translate(-358.47, -144.99)" id="SVGID_132_" clip-path="url(#undefined)" d="M 354.4 147.8 C 360.29999999999995 141.4 361.7 141.3 362.2 141.70000000000002 C 362.5 142.00000000000003 362.7 142.9 362.4 143.3 C 361.79999999999995 143.9 357.5 144.10000000000002 356.79999999999995 143.60000000000002 C 356.49999999999994 143.40000000000003 356.49999999999994 142.70000000000002 356.49999999999994 142.70000000000002 C 356.59999999999997 142.70000000000002 356.79999999999995 143.60000000000002 356.8999999999999 143.60000000000002 C 356.8999999999999 143.60000000000002 356.49999999999994 142.90000000000003 356.5999999999999 142.60000000000002 C 357.0999999999999 142.10000000000002 361.8999999999999 142.40000000000003 361.8999999999999 142.50000000000003 C 361.8999999999999 142.70000000000002 359.69999999999993 142.60000000000002 358.7999999999999 143.30000000000004 C 357.3999999999999 144.20000000000005 355.9999999999999 148.30000000000004 355.1999999999999 148.40000000000003 C 354.9 148.5 354.4 147.8 354.4 147.8" stroke-linecap="round" />
</clipPath>
<path style="stroke: none; stroke-width: 1; stroke-dasharray: none; stroke-linecap: butt; stroke-dashoffset: 0; stroke-linejoin: miter; stroke-miterlimit: 4; fill: rgb(255,222,89); fill-rule: nonzero; opacity: 1;" vector-effect="non-scaling-stroke"  transform=" translate(-358.4, -145.1)" d="M 350.4 137.7 L 366.4 137.7 L 366.4 152.5 L 350.4 152.5 L 350.4 137.7 z" stroke-linecap="round" />
</g>
		<g transform="matrix(1 0 0 1 4.05 4.85)" clip-path="url(#CLIPPATH_50)"  >
<clipPath id="CLIPPATH_50" >
	<path transform="matrix(1 0 0 1 0.01 -0.09) translate(-355.41, -148.21)" id="SVGID_136_" clip-path="url(#undefined)" d="M 358.3 145 C 353.90000000000003 148.8 353.90000000000003 151.9 353.2 152.1 C 353 152.29999999999998 352.3 151.79999999999998 352.3 151.79999999999998 C 352.3 151.7 353.1 151.49999999999997 353.2 151.6 C 353.3 151.7 352.9 152.4 352.9 152.4 C 352.79999999999995 152.4 353.29999999999995 148.20000000000002 354.09999999999997 146.9 C 354.79999999999995 145.70000000000002 356.2 144.70000000000002 357.09999999999997 144.3 C 357.59999999999997 144.10000000000002 358.29999999999995 143.9 358.49999999999994 144.10000000000002 C 358.6 144.2 358.3 145 358.3 145" stroke-linecap="round" />
</clipPath>
<path style="stroke: none; stroke-width: 1; stroke-dasharray: none; stroke-linecap: butt; stroke-dashoffset: 0; stroke-linejoin: miter; stroke-miterlimit: 4; fill: rgb(255,222,89); fill-rule: nonzero; opacity: 1;" vector-effect="non-scaling-stroke"  transform=" translate(-355.4, -148.3)" d="M 348.3 140.1 L 362.5 140.1 L 362.5 156.5 L 348.3 156.5 L 348.3 140.1 z" stroke-linecap="round" />
</g>
		<g transform="matrix(1 0 0 1 3.75 5.85)" clip-path="url(#CLIPPATH_51)"  >
<clipPath id="CLIPPATH_51" >
	<path transform="matrix(1 0 0 1 -0.07 -0.01) translate(-355.03, -149.29)" id="SVGID_140_" clip-path="url(#undefined)" d="M 356.3 144.6 C 354.6 154.5 353.90000000000003 154 353.90000000000003 154 L 354.8 154.4 C 354.8 154.4 354.1 154.4 353.90000000000003 154.1 C 353.40000000000003 153.2 354.3 148.7 354.6 146.9 C 354.90000000000003 145.8 355 144.4 355.40000000000003 144.20000000000002 C 355.6 144.1 356.3 144.6 356.3 144.6" stroke-linecap="round" />
</clipPath>
<path style="stroke: none; stroke-width: 1; stroke-dasharray: none; stroke-linecap: butt; stroke-dashoffset: 0; stroke-linejoin: miter; stroke-miterlimit: 4; fill: rgb(255,222,89); fill-rule: nonzero; opacity: 1;" vector-effect="non-scaling-stroke"  transform=" translate(-355.1, -149.3)" d="M 349.9 140.2 L 360.29999999999995 140.2 L 360.29999999999995 158.39999999999998 L 349.9 158.39999999999998 L 349.9 140.2 z" stroke-linecap="round" />
</g>
		<g transform="matrix(1 0 0 1 -18.25 2.95)" clip-path="url(#CLIPPATH_52)"  >
<clipPath id="CLIPPATH_52" >
	<path transform="matrix(1 0 0 1 0 0.01) translate(-333.1, -146.41)" id="SVGID_144_" clip-path="url(#undefined)" d="M 331.8 143.8 C 335.2 148.70000000000002 334.3 148.9 334.40000000000003 148.9 L 335.3 148.5 C 335.3 148.5 334.7 149.1 334.40000000000003 149 C 333.50000000000006 148.8 330.8 145.1 330.90000000000003 144.3 C 331 144 331.8 143.8 331.8 143.8" stroke-linecap="round" />
</clipPath>
<path style="stroke: none; stroke-width: 1; stroke-dasharray: none; stroke-linecap: butt; stroke-dashoffset: 0; stroke-linejoin: miter; stroke-miterlimit: 4; fill: rgb(255,222,89); fill-rule: nonzero; opacity: 1;" vector-effect="non-scaling-stroke"  transform=" translate(-333.1, -146.4)" d="M 326.9 139.8 L 339.29999999999995 139.8 L 339.29999999999995 153 L 326.9 153 L 326.9 139.8 z" stroke-linecap="round" />
</g>
		<g transform="matrix(1 0 0 1 6.55 -19.35)" clip-path="url(#CLIPPATH_53)"  >
<clipPath id="CLIPPATH_53" >
	<path transform="matrix(1 0 0 1 0 -0.01) translate(-357.9, -124.09)" id="SVGID_148_" clip-path="url(#undefined)" d="M 353.9 117.1 C 358.09999999999997 125.89999999999999 362.9 129.79999999999998 362.79999999999995 130.79999999999998 C 362.79999999999995 131.2 361.99999999999994 131.39999999999998 361.99999999999994 131.39999999999998 C 362.09999999999997 131.49999999999997 362.8999999999999 131.09999999999997 362.8999999999999 131.09999999999997 C 362.8999999999999 131.09999999999997 362.3999999999999 131.49999999999997 362.0999999999999 131.49999999999997 C 361.2999999999999 131.39999999999998 359.9999999999999 129.59999999999997 358.9999999999999 128.49999999999997 C 357.89999999999986 127.09999999999997 356.6999999999999 125.59999999999997 355.6999999999999 123.89999999999998 C 354.59999999999985 122.09999999999998 352.9999999999999 118.89999999999998 352.89999999999986 117.69999999999997 C 352.89999999999986 117.19999999999997 352.89999999999986 116.79999999999997 353.09999999999985 116.69999999999997 C 353.3 116.6 353.9 117.1 353.9 117.1" stroke-linecap="round" />
</clipPath>
<path style="stroke: none; stroke-width: 1; stroke-dasharray: none; stroke-linecap: butt; stroke-dashoffset: 0; stroke-linejoin: miter; stroke-miterlimit: 4; fill: rgb(255,222,89); fill-rule: nonzero; opacity: 1;" vector-effect="non-scaling-stroke"  transform=" translate(-357.9, -124.1)" d="M 348.9 112.7 L 366.9 112.7 L 366.9 135.5 L 348.9 135.5 L 348.9 112.7 z" stroke-linecap="round" />
</g>
		<g transform="matrix(1 0 0 1 6.3 -19.8)" clip-path="url(#CLIPPATH_54)"  >
<clipPath id="CLIPPATH_54" >
	<path transform="matrix(1 0 0 1 -0.01 0) translate(-357.64, -123.65)" id="SVGID_152_" clip-path="url(#undefined)" d="M 353.7 116.7 C 357.2 124.10000000000001 362.7 128.6 362.59999999999997 129.9 C 362.59999999999997 130.20000000000002 362.29999999999995 130.5 361.99999999999994 130.6 C 361.3999999999999 130.6 360.29999999999995 129.2 359.3999999999999 128.29999999999998 C 358.2999999999999 126.99999999999999 356.99999999999994 125.49999999999999 355.8999999999999 123.69999999999999 C 354.69999999999993 121.79999999999998 352.3999999999999 117.99999999999999 352.69999999999993 117.1 C 352.9 116.8 353.7 116.7 353.7 116.7" stroke-linecap="round" />
</clipPath>
<path style="stroke: none; stroke-width: 1; stroke-dasharray: none; stroke-linecap: butt; stroke-dashoffset: 0; stroke-linejoin: miter; stroke-miterlimit: 4; fill: rgb(255,222,89); fill-rule: nonzero; opacity: 1;" vector-effect="non-scaling-stroke"  transform=" translate(-357.65, -123.65)" d="M 348.7 112.7 L 366.59999999999997 112.7 L 366.59999999999997 134.6 L 348.7 134.6 L 348.7 112.7 z" stroke-linecap="round" />
</g>
		<g transform="matrix(1 0 0 1 6.15 -19.35)" clip-path="url(#CLIPPATH_55)"  >
<clipPath id="CLIPPATH_55" >
	<path transform="matrix(1 0 0 1 0 0) translate(-357.5, -124.1)" id="SVGID_156_" clip-path="url(#undefined)" d="M 353.7 118.3 C 362 129.6 361.3 129.9 361.3 129.9 L 362 129.20000000000002 C 361.9 129.10000000000002 361.6 129.8 361.2 129.8 C 359.9 129.70000000000002 352.9 120.4 353 119.00000000000001 C 353 118.6 353.7 118.3 353.7 118.3" stroke-linecap="round" />
</clipPath>
<path style="stroke: none; stroke-width: 1; stroke-dasharray: none; stroke-linecap: butt; stroke-dashoffset: 0; stroke-linejoin: miter; stroke-miterlimit: 4; fill: rgb(255,222,89); fill-rule: nonzero; opacity: 1;" vector-effect="non-scaling-stroke"  transform=" translate(-357.5, -124.1)" d="M 349 114.3 L 366 114.3 L 366 133.9 L 349 133.9 L 349 114.3 z" stroke-linecap="round" />
</g>
</g>
</g>
</svg>