<svg xmlns="http://www.w3.org/2000/svg" xmlns:xlink="http://www.w3.org/1999/xlink" width="500" zoomAndPan="magnify" viewBox="0 0 375 374.999991" height="500" preserveAspectRatio="xMidYMid meet" version="1.0"><defs><clipPath id="60a26d6e3a"><path d="M 33 34 L 180.949219 34 L 180.949219 182.601562 L 33 182.601562 Z M 33 34 " clip-rule="nonzero"/></clipPath><clipPath id="6a1550a847"><path d="M 30.949219 152 L 68 152 L 68 171 L 30.949219 171 Z M 30.949219 152 " clip-rule="nonzero"/></clipPath><clipPath id="989f2ad827"><path d="M 30.949219 32.601562 L 169 32.601562 L 169 148 L 30.949219 148 Z M 30.949219 32.601562 " clip-rule="nonzero"/></clipPath><clipPath id="6a161111a7"><path d="M 190 34 L 338.53125 34 L 338.53125 182.601562 L 190 182.601562 Z M 190 34 " clip-rule="nonzero"/></clipPath><clipPath id="21531fc924"><path d="M 188.53125 152 L 225 152 L 225 171 L 188.53125 171 Z M 188.53125 152 " clip-rule="nonzero"/></clipPath><clipPath id="a2aae4e30e"><path d="M 188.53125 32.601562 L 327 32.601562 L 327 148 L 188.53125 148 Z M 188.53125 32.601562 " clip-rule="nonzero"/></clipPath><clipPath id="5908d93e1b"><path d="M 38 194 L 186.199219 194 L 186.199219 342.398438 L 38 342.398438 Z M 38 194 " clip-rule="nonzero"/></clipPath><clipPath id="7445597915"><path d="M 36.199219 312 L 73 312 L 73 331 L 36.199219 331 Z M 36.199219 312 " clip-rule="nonzero"/></clipPath><clipPath id="74232b2bbc"><path d="M 36.199219 192.398438 L 175 192.398438 L 175 307 L 36.199219 307 Z M 36.199219 192.398438 " clip-rule="nonzero"/></clipPath><clipPath id="f7a7558489"><path d="M 196 194 L 344.050781 194 L 344.050781 342.398438 L 196 342.398438 Z M 196 194 " clip-rule="nonzero"/></clipPath><clipPath id="4a8936f310"><path d="M 194.050781 312 L 231 312 L 231 331 L 194.050781 331 Z M 194.050781 312 " clip-rule="nonzero"/></clipPath><clipPath id="57b1693a1b"><path d="M 194.050781 192.398438 L 332 192.398438 L 332 307 L 194.050781 307 Z M 194.050781 192.398438 " clip-rule="nonzero"/></clipPath><clipPath id="2d482bd1ab"><path d="M 68.371094 227.230469 L 143.371094 227.230469 L 143.371094 292.480469 L 68.371094 292.480469 Z M 68.371094 227.230469 " clip-rule="nonzero"/></clipPath><clipPath id="090643d87a"><path d="M 63.136719 62.851562 L 138.136719 62.851562 L 138.136719 137.851562 L 63.136719 137.851562 Z M 63.136719 62.851562 " clip-rule="nonzero"/></clipPath><clipPath id="7d9794839f"><path d="M 212.5 228.78125 L 314.5 228.78125 L 314.5 292.53125 L 212.5 292.53125 Z M 212.5 228.78125 " clip-rule="nonzero"/></clipPath><clipPath id="987c9c642f"><path d="M 218 228.78125 L 314.5 228.78125 L 314.5 288 L 218 288 Z M 218 228.78125 " clip-rule="nonzero"/></clipPath><clipPath id="a0b083bbd0"><path d="M 66.714844 66.429688 L 134.707031 66.429688 L 134.707031 134.421875 L 66.714844 134.421875 Z M 66.714844 66.429688 " clip-rule="nonzero"/></clipPath><clipPath id="4e4b506bc5"><path d="M 100.710938 66.429688 C 81.933594 66.429688 66.714844 81.648438 66.714844 100.425781 C 66.714844 119.203125 81.933594 134.421875 100.710938 134.421875 C 119.484375 134.421875 134.707031 119.203125 134.707031 100.425781 C 134.707031 81.648438 119.484375 66.429688 100.710938 66.429688 Z M 100.710938 66.429688 " clip-rule="nonzero"/></clipPath><clipPath id="3827c1ef4c"><path d="M 74.203125 233.207031 L 138.363281 233.207031 L 138.363281 288.886719 L 74.203125 288.886719 Z M 74.203125 233.207031 " clip-rule="nonzero"/></clipPath><clipPath id="d03fe46a2b"><path d="M 106.242188 233.207031 L 138.28125 288.886719 L 74.203125 288.886719 Z M 106.242188 233.207031 " clip-rule="nonzero"/></clipPath><clipPath id="76d6ca03e0"><path d="M 220.597656 62.851562 L 295.597656 62.851562 L 295.597656 137.851562 L 220.597656 137.851562 Z M 220.597656 62.851562 " clip-rule="nonzero"/></clipPath><clipPath id="e1d45bfa3a"><path d="M 249.375 66.902344 L 266.351562 66.902344 L 266.351562 133.949219 L 249.375 133.949219 Z M 249.375 66.902344 " clip-rule="nonzero"/></clipPath><clipPath id="44aa5299b7"><path d="M 224.457031 91.929688 L 291.503906 91.929688 L 291.503906 108.90625 L 224.457031 108.90625 Z M 224.457031 91.929688 " clip-rule="nonzero"/></clipPath><clipPath id="6ec07c3028"><path d="M 249.445312 106.933594 L 251.554688 106.933594 L 251.554688 108.796875 L 249.445312 108.796875 Z M 249.445312 106.933594 " clip-rule="nonzero"/></clipPath><clipPath id="a7857f3b47"><path d="M 251.550781 107.648438 C 250.648438 109.148438 249.75 108.847656 249.523438 108.546875 C 249.375 108.246094 249.523438 107.273438 249.824219 107.046875 C 250.125 106.820312 251.324219 107.121094 251.324219 107.121094 " clip-rule="nonzero"/></clipPath><clipPath id="5a8ac097c5"><path d="M 251.535156 95.949219 L 254.898438 95.949219 L 254.898438 110.859375 L 251.535156 110.859375 Z M 251.535156 95.949219 " clip-rule="nonzero"/></clipPath><clipPath id="b7c362919c"><path d="M 254.175781 96.023438 C 255.601562 110.648438 254.476562 111.023438 253.949219 110.796875 C 253.425781 110.570312 253.273438 109.371094 253.050781 108.171875 C 252.449219 105.621094 250.875 97.820312 251.925781 96.472656 C 252.375 95.796875 254.175781 96.023438 254.175781 96.023438 " clip-rule="nonzero"/></clipPath><clipPath id="af45ddc396"><path d="M 247.789062 90.050781 L 252.382812 90.050781 L 252.382812 95.464844 L 247.789062 95.464844 Z M 247.789062 90.050781 " clip-rule="nonzero"/></clipPath><clipPath id="80e0d6243f"><path d="M 247.949219 94.148438 C 251.699219 90.023438 252.226562 90.320312 252.300781 90.546875 C 252.449219 90.847656 252.226562 91.523438 251.925781 91.898438 C 251.550781 92.496094 250.351562 93.546875 249.75 93.546875 C 249.375 93.472656 248.851562 92.945312 248.851562 92.722656 C 248.925781 92.496094 249.75 92.046875 249.976562 92.121094 C 250.199219 92.273438 250.273438 93.171875 250.050781 93.398438 C 249.898438 93.546875 249.375 93.546875 249.148438 93.398438 C 249 93.246094 248.851562 92.722656 249 92.347656 C 249.226562 91.671875 250.648438 90.246094 251.324219 90.097656 C 251.625 90.023438 252.148438 90.171875 252.226562 90.398438 C 252.449219 91.070312 249.75 94.972656 248.851562 95.347656 C 248.476562 95.496094 248.023438 95.421875 247.875 95.273438 C 247.648438 95.046875 247.949219 94.148438 247.949219 94.148438 " clip-rule="nonzero"/></clipPath><clipPath id="ab447b1c6e"><path d="M 248.589844 91.429688 L 248.945312 91.429688 L 248.945312 91.761719 L 248.589844 91.761719 Z M 248.589844 91.429688 " clip-rule="nonzero"/></clipPath><clipPath id="19bdd653c6"><path d="M 248.925781 91.671875 C 248.25 91.898438 248.851562 91.445312 248.851562 91.445312 " clip-rule="nonzero"/></clipPath><clipPath id="e32580d277"><path d="M 263.390625 88.738281 L 270.335938 88.738281 L 270.335938 96.441406 L 263.390625 96.441406 Z M 263.390625 88.738281 " clip-rule="nonzero"/></clipPath><clipPath id="c108776536"><path d="M 266.773438 91.148438 C 268.875 93.621094 269.023438 94.148438 268.949219 94.296875 C 268.800781 94.523438 268.425781 94.597656 268.050781 94.445312 C 267 94.070312 263.476562 90.171875 263.398438 89.347656 C 263.398438 89.046875 263.625 88.820312 263.773438 88.746094 C 264.074219 88.671875 264.523438 89.046875 265.050781 89.421875 C 266.324219 90.472656 270.375 94.972656 270.300781 95.871094 C 270.300781 96.171875 270.074219 96.398438 269.773438 96.398438 C 268.800781 96.320312 263.398438 90.320312 263.398438 89.347656 C 263.398438 89.046875 263.699219 88.820312 263.925781 88.820312 C 264.675781 88.898438 268.050781 93.996094 268.050781 93.996094 C 268.050781 93.996094 266.175781 92.046875 266.175781 91.597656 C 266.25 91.371094 266.773438 91.148438 266.773438 91.148438 " clip-rule="nonzero"/></clipPath><clipPath id="d5cdb54863"><path d="M 264.875 88.945312 L 269.714844 88.945312 L 269.714844 95.65625 L 264.875 95.65625 Z M 264.875 88.945312 " clip-rule="nonzero"/></clipPath><clipPath id="b423cc6939"><path d="M 265.5 88.972656 C 269.699219 95.421875 269.101562 95.570312 269.101562 95.570312 C 269.101562 95.570312 269.699219 95.121094 269.699219 95.121094 C 269.699219 95.121094 269.398438 95.648438 269.101562 95.648438 C 268.574219 95.496094 267.449219 93.246094 266.699219 92.195312 C 266.101562 91.222656 264.75 89.871094 264.898438 89.347656 C 264.898438 89.121094 265.5 88.972656 265.5 88.972656 " clip-rule="nonzero"/></clipPath><clipPath id="14198a051c"><path d="M 264.890625 88.960938 L 268.296875 88.960938 L 268.296875 94.257812 L 264.890625 94.257812 Z M 264.890625 88.960938 " clip-rule="nonzero"/></clipPath><clipPath id="b42768a34e"><path d="M 265.5 88.972656 C 272.175781 99.921875 264.675781 90.546875 264.898438 89.421875 C 264.898438 89.121094 265.5 88.972656 265.5 88.972656 " clip-rule="nonzero"/></clipPath><clipPath id="335db98e83"><path d="M 262.058594 106.121094 L 269.789062 106.121094 L 269.789062 114.972656 L 262.058594 114.972656 Z M 262.058594 106.121094 " clip-rule="nonzero"/></clipPath><clipPath id="29009b89e8"><path d="M 269.550781 106.972656 C 263.324219 111.023438 263.550781 112.222656 263.324219 112.296875 C 263.175781 112.371094 262.726562 112.222656 262.726562 111.996094 C 262.648438 111.398438 265.726562 108.695312 267.074219 107.796875 C 267.976562 107.121094 269.476562 106.445312 269.550781 106.597656 C 269.699219 106.820312 264.375 111.847656 263.101562 112.296875 C 262.726562 112.445312 262.199219 112.371094 262.125 112.222656 C 261.976562 111.996094 262.351562 111.398438 262.574219 110.945312 C 263.023438 110.195312 263.925781 108.695312 264.976562 108.097656 C 266.101562 107.421875 268.949219 106.898438 269.175781 107.347656 C 269.476562 107.796875 266.476562 109.972656 265.574219 111.398438 C 264.898438 112.523438 264.226562 114.921875 264.148438 114.921875 C 264 114.921875 264.300781 112.296875 264.898438 111.097656 C 265.648438 109.820312 268.800781 107.945312 268.648438 107.648438 C 268.5 107.421875 266.476562 108.023438 265.5 108.621094 C 264.449219 109.296875 262.574219 111.546875 262.726562 111.695312 C 262.875 111.847656 269.476562 106.523438 269.625 106.671875 C 269.699219 106.820312 265.199219 111.472656 263.925781 112.070312 C 263.476562 112.296875 262.949219 112.371094 262.800781 112.148438 C 262.5 111.921875 262.726562 110.871094 263.101562 110.195312 C 263.925781 108.996094 267.300781 106.746094 268.5 106.296875 C 269.023438 106.148438 269.625 106.070312 269.699219 106.296875 C 269.851562 106.371094 269.550781 106.972656 269.550781 106.972656 " clip-rule="nonzero"/></clipPath><clipPath id="13d5b97cfd"><path d="M 262.074219 106.613281 L 270.25 106.613281 L 270.25 116.3125 L 262.074219 116.3125 Z M 262.074219 106.613281 " clip-rule="nonzero"/></clipPath><clipPath id="63460e6265"><path d="M 264.375 112.898438 C 268.425781 107.273438 269.398438 106.671875 269.773438 106.746094 C 270 106.746094 270.226562 107.046875 270.226562 107.273438 C 270.074219 108.097656 265.199219 110.347656 263.925781 112.070312 C 262.949219 113.421875 262.726562 116.273438 262.425781 116.273438 C 262.199219 116.195312 261.898438 114.097656 262.351562 112.972656 C 262.949219 111.320312 265.648438 109.148438 267.074219 108.023438 C 267.976562 107.347656 269.023438 106.597656 269.550781 106.671875 C 269.851562 106.746094 270.226562 107.046875 270.226562 107.273438 C 270.226562 107.722656 268.425781 108.246094 267.601562 109.070312 C 266.699219 110.121094 265.949219 112.523438 265.273438 113.121094 C 264.976562 113.421875 264.675781 113.648438 264.523438 113.570312 C 264.375 113.496094 264.375 112.898438 264.375 112.898438 " clip-rule="nonzero"/></clipPath><clipPath id="0e50b2dac3"><path d="M 246.269531 107.46875 L 253.300781 107.46875 L 253.300781 114.101562 L 246.269531 114.101562 Z M 246.269531 107.46875 " clip-rule="nonzero"/></clipPath><clipPath id="a9a2256444"><path d="M 246.824219 107.496094 C 252.074219 111.695312 253.351562 113.195312 253.273438 113.648438 C 253.199219 113.871094 252.601562 114.023438 252.601562 114.023438 C 252.601562 114.023438 253.199219 113.648438 253.273438 113.648438 C 253.273438 113.648438 252.898438 114.097656 252.675781 114.097656 C 252.148438 114.023438 251.25 111.773438 250.199219 110.796875 C 249.148438 109.746094 246.375 108.621094 246.300781 108.023438 C 246.300781 107.796875 246.824219 107.496094 246.824219 107.496094 " clip-rule="nonzero"/></clipPath><clipPath id="8d27777cc7"><path d="M 247.757812 107.605469 L 253.226562 107.605469 L 253.226562 114.058594 L 247.757812 114.058594 Z M 247.757812 107.605469 " clip-rule="nonzero"/></clipPath><clipPath id="93470bc932"><path d="M 248.324219 107.648438 C 253.199219 113.871094 252.601562 114.023438 252.601562 114.023438 C 252.601562 114.023438 253.199219 113.570312 253.199219 113.570312 C 253.199219 113.570312 252.898438 114.097656 252.601562 114.023438 C 251.773438 113.945312 247.726562 108.996094 247.800781 108.171875 C 247.800781 107.871094 248.324219 107.648438 248.324219 107.648438 " clip-rule="nonzero"/></clipPath><clipPath id="c1ea5da3e6"><path d="M 249.664062 109.960938 L 252.316406 109.960938 L 252.316406 113.125 L 249.664062 113.125 Z M 249.664062 109.960938 " clip-rule="nonzero"/></clipPath><clipPath id="b735a18d19"><path d="M 251.699219 113.121094 C 249.75 110.121094 250.351562 109.972656 250.351562 110.046875 C 250.351562 110.046875 249.675781 110.347656 249.675781 110.347656 C 249.675781 110.347656 250.125 109.898438 250.351562 109.972656 C 250.875 110.121094 252.449219 112.222656 252.300781 112.746094 C 252.300781 112.972656 251.699219 113.121094 251.699219 113.121094 " clip-rule="nonzero"/></clipPath><clipPath id="0c5a90a9a2"><path d="M 248.894531 108.816406 L 252.742188 108.816406 L 252.742188 115.332031 L 248.894531 115.332031 Z M 248.894531 108.816406 " clip-rule="nonzero"/></clipPath><clipPath id="45f1a3fe55"><path d="M 249.523438 108.847656 C 252.226562 112.746094 252.898438 114.472656 252.675781 114.996094 C 252.601562 115.222656 252.074219 115.296875 252.074219 115.296875 C 252.074219 115.296875 252.675781 114.847656 252.601562 114.847656 C 252.601562 114.847656 252.226562 115.296875 252 115.222656 C 251.625 115.070312 251.550781 113.046875 251.101562 112.070312 C 250.574219 111.023438 248.851562 109.820312 248.925781 109.296875 C 249 109.070312 249.523438 108.847656 249.523438 108.847656 " clip-rule="nonzero"/></clipPath><clipPath id="3526bba9a6"><path d="M 247.28125 90.039062 L 252.996094 90.039062 L 252.996094 93.390625 L 247.28125 93.390625 Z M 247.28125 90.039062 " clip-rule="nonzero"/></clipPath><clipPath id="db2a3fbf13"><path d="M 247.351562 92.570312 C 252.976562 89.648438 253.050781 89.945312 252.976562 90.246094 C 252.824219 90.847656 250.875 92.121094 249.824219 92.648438 C 249 93.023438 247.648438 93.546875 247.351562 93.320312 C 247.199219 93.171875 247.351562 92.570312 247.351562 92.570312 " clip-rule="nonzero"/></clipPath><clipPath id="0b2da23cc2"><path d="M 245.371094 88.890625 L 253.324219 88.890625 L 253.324219 94.101562 L 245.371094 94.101562 Z M 245.371094 88.890625 " clip-rule="nonzero"/></clipPath><clipPath id="ed0c7e35c4"><path d="M 245.398438 93.398438 C 253.273438 88.445312 253.351562 88.746094 253.273438 89.046875 C 253.050781 89.945312 248.398438 92.496094 246.976562 93.320312 C 246.375 93.695312 245.773438 94.148438 245.550781 94.070312 C 245.398438 93.996094 245.398438 93.398438 245.398438 93.398438 " clip-rule="nonzero"/></clipPath><clipPath id="f5062413aa"><path d="M 244.492188 87.882812 L 253.75 87.882812 L 253.75 93.902344 L 244.492188 93.902344 Z M 244.492188 87.882812 " clip-rule="nonzero"/></clipPath><clipPath id="108c1d1804"><path d="M 244.648438 93.023438 C 252 89.945312 252.675781 87.996094 253.125 87.996094 C 253.351562 87.996094 253.574219 88.597656 253.574219 88.597656 C 253.648438 88.523438 253.351562 87.921875 253.351562 87.921875 C 253.351562 87.921875 253.726562 88.222656 253.726562 88.445312 C 253.648438 89.046875 252.300781 90.546875 251.25 91.371094 C 250.125 92.273438 248.25 93.171875 246.976562 93.546875 C 246.074219 93.773438 244.800781 93.996094 244.574219 93.773438 C 244.425781 93.621094 244.648438 93.023438 244.648438 93.023438 " clip-rule="nonzero"/></clipPath><clipPath id="8ccb8bd762"><path d="M 246.9375 88.035156 L 252.246094 88.035156 L 252.246094 94.097656 L 246.9375 94.097656 Z M 246.9375 88.035156 " clip-rule="nonzero"/></clipPath><clipPath id="26ea50642d"><path d="M 247.125 93.320312 C 250.800781 90.246094 251.25 88.148438 251.699219 88.070312 C 251.925781 88.070312 252.226562 88.523438 252.226562 88.597656 C 252.148438 88.597656 251.476562 88.296875 251.476562 88.296875 C 251.476562 88.296875 252.148438 88.296875 252.226562 88.523438 C 252.375 88.972656 251.324219 90.695312 250.574219 91.597656 C 249.898438 92.496094 248.625 93.546875 247.949219 93.847656 C 247.574219 94.070312 247.050781 94.148438 246.976562 93.996094 C 246.898438 93.847656 247.125 93.320312 247.125 93.320312 " clip-rule="nonzero"/></clipPath><clipPath id="914181132a"><path d="M 247.21875 86.710938 L 252.535156 86.710938 L 252.535156 95.148438 L 247.21875 95.148438 Z M 247.21875 86.710938 " clip-rule="nonzero"/></clipPath><clipPath id="252352d8f9"><path d="M 247.351562 94.371094 C 250.199219 91.972656 252.226562 86.648438 252.449219 86.722656 C 252.675781 86.796875 252.300781 88.820312 251.925781 89.871094 C 251.476562 90.996094 250.648438 92.347656 249.976562 93.246094 C 249.375 93.921875 248.699219 94.671875 248.175781 94.898438 C 247.800781 95.046875 247.351562 95.195312 247.273438 95.046875 C 247.199219 94.972656 247.351562 94.371094 247.351562 94.371094 " clip-rule="nonzero"/></clipPath><clipPath id="67fcf09991"><path d="M 247.863281 85.691406 L 253.613281 85.691406 L 253.613281 95.441406 L 247.863281 95.441406 Z M 247.863281 85.691406 " clip-rule="nonzero"/></clipPath><clipPath id="cbf4d65710"><path d="M 247.875 94.746094 C 252 89.121094 252.375 85.972656 252.976562 85.746094 C 253.199219 85.671875 253.5 85.898438 253.574219 86.121094 C 253.800781 86.796875 252.601562 89.570312 251.773438 90.996094 C 251.023438 92.421875 249.523438 94.222656 248.851562 94.898438 C 248.550781 95.195312 248.25 95.496094 248.101562 95.421875 C 247.949219 95.347656 247.875 94.746094 247.875 94.746094 " clip-rule="nonzero"/></clipPath><clipPath id="9fbc19e3e6"><path d="M 245.804688 87.429688 L 252.617188 87.429688 L 252.617188 95.742188 L 245.804688 95.742188 Z M 245.804688 87.429688 " clip-rule="nonzero"/></clipPath><clipPath id="e0f9f8aa28"><path d="M 245.851562 95.121094 C 252.300781 87.546875 252.601562 88.070312 252.601562 88.070312 C 252.601562 88.070312 252.148438 87.546875 252.148438 87.472656 C 252.148438 87.472656 252.601562 87.773438 252.601562 88.070312 C 252.675781 88.972656 249.601562 92.273438 248.398438 93.621094 C 247.648438 94.523438 246.75 95.722656 246.300781 95.722656 C 246.074219 95.648438 245.851562 95.121094 245.851562 95.121094 " clip-rule="nonzero"/></clipPath><clipPath id="e0ff801674"><path d="M 245.5 85.320312 L 253.21875 85.320312 L 253.21875 93.898438 L 245.5 93.898438 Z M 245.5 85.320312 " clip-rule="nonzero"/></clipPath><clipPath id="d942cd73ca"><path d="M 245.550781 93.246094 C 249.375 90.621094 251.773438 85.671875 252.601562 85.523438 C 252.824219 85.523438 253.125 86.046875 253.199219 85.972656 C 253.199219 85.972656 252.75 85.371094 252.75 85.371094 C 252.75 85.371094 253.199219 85.671875 253.199219 85.972656 C 253.199219 86.871094 250.351562 90.546875 248.925781 91.898438 C 247.949219 92.871094 246.375 93.996094 245.851562 93.847656 C 245.625 93.847656 245.550781 93.246094 245.550781 93.246094 " clip-rule="nonzero"/></clipPath><clipPath id="2bf009d985"><path d="M 263.90625 88.125 L 265.261719 88.125 L 265.261719 89.816406 L 263.90625 89.816406 Z M 263.90625 88.125 " clip-rule="nonzero"/></clipPath><clipPath id="7d98ce7500"><path d="M 264.675781 88.148438 C 266.324219 91.445312 263.851562 88.898438 263.925781 88.445312 C 264 88.222656 264.675781 88.148438 264.675781 88.148438 " clip-rule="nonzero"/></clipPath><clipPath id="4355eb3a30"><path d="M 264.578125 88.351562 L 270.082031 88.351562 L 270.082031 95.839844 L 264.578125 95.839844 Z M 264.578125 88.351562 " clip-rule="nonzero"/></clipPath><clipPath id="4953c4bbdf"><path d="M 265.199219 88.371094 C 270 95.570312 269.398438 95.722656 269.398438 95.722656 C 269.398438 95.796875 270.074219 95.347656 270.074219 95.347656 C 270.074219 95.347656 269.699219 95.796875 269.476562 95.796875 C 269.023438 95.722656 268.273438 94.597656 267.601562 93.695312 C 266.699219 92.496094 264.375 89.496094 264.601562 88.746094 C 264.601562 88.523438 265.199219 88.371094 265.199219 88.371094 " clip-rule="nonzero"/></clipPath><clipPath id="bbffe5b7c7"><path d="M 264 89.480469 L 270.539062 89.480469 L 270.539062 95.988281 L 264 95.988281 Z M 264 89.480469 " clip-rule="nonzero"/></clipPath><clipPath id="5e7b691fa4"><path d="M 264.523438 89.496094 C 270.601562 95.648438 270.074219 95.945312 270.074219 95.945312 C 270.074219 95.945312 270.523438 95.347656 270.523438 95.347656 C 270.523438 95.347656 270.375 95.945312 270.074219 95.945312 C 269.25 96.023438 264 90.921875 264 90.023438 C 264 89.722656 264.523438 89.496094 264.523438 89.496094 " clip-rule="nonzero"/></clipPath><clipPath id="af0b767ee9"><path d="M 265.175781 89.246094 L 267.4375 89.246094 L 267.4375 92.136719 L 265.175781 92.136719 Z M 265.175781 89.246094 " clip-rule="nonzero"/></clipPath><clipPath id="c94395bed1"><path d="M 265.800781 89.273438 C 269.773438 94.972656 265.125 90.472656 265.199219 89.722656 C 265.199219 89.496094 265.800781 89.273438 265.800781 89.273438 " clip-rule="nonzero"/></clipPath><clipPath id="2f34263a23"><path d="M 265.46875 89.164062 L 270.183594 89.164062 L 270.183594 95.234375 L 265.46875 95.234375 Z M 265.46875 89.164062 " clip-rule="nonzero"/></clipPath><clipPath id="9ede6f1e78"><path d="M 266.023438 89.195312 C 270.601562 94.972656 270.300781 95.195312 270.074219 95.195312 C 269.324219 95.195312 265.425781 90.546875 265.5 89.648438 C 265.5 89.421875 266.023438 89.195312 266.023438 89.195312 " clip-rule="nonzero"/></clipPath><clipPath id="c026d4fe78"><path d="M 265.605469 88.851562 L 272.417969 88.851562 L 272.417969 95.765625 L 265.605469 95.765625 Z M 265.605469 88.851562 " clip-rule="nonzero"/></clipPath><clipPath id="1d3da53bd9"><path d="M 266.25 88.898438 C 270.824219 94.523438 272.324219 94.746094 272.398438 95.121094 C 272.398438 95.273438 271.875 95.648438 271.875 95.648438 C 271.875 95.648438 272.398438 95.121094 272.398438 95.121094 C 272.476562 95.195312 272.25 95.648438 272.023438 95.722656 C 271.574219 95.796875 270.300781 95.046875 269.476562 94.371094 C 268.199219 93.246094 265.5 90.171875 265.648438 89.421875 C 265.648438 89.121094 266.25 88.898438 266.25 88.898438 " clip-rule="nonzero"/></clipPath><clipPath id="cf4ddce57b"><path d="M 264.128906 87.976562 L 267.996094 87.976562 L 267.996094 92.964844 L 264.128906 92.964844 Z M 264.128906 87.976562 " clip-rule="nonzero"/></clipPath><clipPath id="3fd42f35c3"><path d="M 264.675781 87.996094 C 267.074219 90.472656 268.050781 91.972656 267.976562 92.496094 C 267.898438 92.722656 267.675781 93.023438 267.375 92.945312 C 266.773438 92.871094 264.074219 89.195312 264.148438 88.445312 C 264.148438 88.222656 264.675781 87.996094 264.675781 87.996094 " clip-rule="nonzero"/></clipPath><clipPath id="d4d4cfff5d"><path d="M 264.351562 105.976562 L 269.949219 105.976562 L 269.949219 113.148438 L 264.351562 113.148438 Z M 264.351562 105.976562 " clip-rule="nonzero"/></clipPath><clipPath id="41e5e56be5"><path d="M 264.375 112.746094 C 268.050781 107.046875 268.875 105.996094 269.324219 105.996094 C 269.625 105.996094 269.851562 106.222656 269.925781 106.445312 C 269.925781 107.121094 267.148438 109.148438 266.324219 110.421875 C 265.648438 111.320312 265.5 112.972656 265.050781 113.121094 C 264.824219 113.195312 264.375 112.746094 264.375 112.746094 " clip-rule="nonzero"/></clipPath><clipPath id="47925f8de8"><path d="M 265.792969 106.160156 L 271.949219 106.160156 L 271.949219 111.363281 L 265.792969 111.363281 Z M 265.792969 106.160156 " clip-rule="nonzero"/></clipPath><clipPath id="e6f307d8ca"><path d="M 265.800781 110.871094 C 270.226562 106.070312 271.273438 105.996094 271.648438 106.296875 C 271.875 106.523438 272.023438 107.195312 271.800781 107.496094 C 271.351562 107.945312 268.125 108.097656 267.601562 107.722656 C 267.375 107.570312 267.375 107.046875 267.375 107.046875 C 267.449219 107.046875 267.601562 107.722656 267.675781 107.722656 C 267.675781 107.722656 267.375 107.195312 267.449219 106.972656 C 267.824219 106.597656 271.425781 106.820312 271.425781 106.898438 C 271.425781 107.046875 269.773438 106.972656 269.101562 107.496094 C 268.050781 108.171875 267 111.246094 266.398438 111.320312 C 266.175781 111.398438 265.800781 110.871094 265.800781 110.871094 " clip-rule="nonzero"/></clipPath><clipPath id="9857b980c3"><path d="M 264.21875 108.007812 L 268.921875 108.007812 L 268.921875 114.332031 L 264.21875 114.332031 Z M 264.21875 108.007812 " clip-rule="nonzero"/></clipPath><clipPath id="fa52dbd6c1"><path d="M 268.726562 108.773438 C 265.425781 111.621094 265.425781 113.945312 264.898438 114.097656 C 264.75 114.246094 264.226562 113.871094 264.226562 113.871094 C 264.226562 113.796875 264.824219 113.648438 264.898438 113.722656 C 264.976562 113.796875 264.675781 114.320312 264.675781 114.320312 C 264.601562 114.320312 264.976562 111.171875 265.574219 110.195312 C 266.101562 109.296875 267.148438 108.546875 267.824219 108.246094 C 268.199219 108.097656 268.726562 107.945312 268.875 108.097656 C 268.949219 108.171875 268.726562 108.773438 268.726562 108.773438 " clip-rule="nonzero"/></clipPath><clipPath id="c4e1d507c1"><path d="M 265.289062 108.15625 L 267.238281 108.15625 L 267.238281 115.835938 L 265.289062 115.835938 Z M 265.289062 108.15625 " clip-rule="nonzero"/></clipPath><clipPath id="0e3efb46d7"><path d="M 267.226562 108.472656 C 265.949219 115.898438 265.425781 115.523438 265.425781 115.523438 C 265.425781 115.523438 266.101562 115.820312 266.101562 115.820312 C 266.101562 115.820312 265.574219 115.820312 265.425781 115.597656 C 265.050781 114.921875 265.726562 111.546875 265.949219 110.195312 C 266.175781 109.371094 266.25 108.320312 266.550781 108.171875 C 266.699219 108.097656 267.226562 108.472656 267.226562 108.472656 " clip-rule="nonzero"/></clipPath><clipPath id="f6d14ccadc"><path d="M 248.152344 107.851562 L 251.496094 107.851562 L 251.496094 111.8125 L 248.152344 111.8125 Z M 248.152344 107.851562 " clip-rule="nonzero"/></clipPath><clipPath id="6f9efcd79d"><path d="M 248.851562 107.871094 C 251.398438 111.546875 250.726562 111.695312 250.800781 111.695312 C 250.800781 111.695312 251.476562 111.398438 251.476562 111.398438 C 251.476562 111.398438 251.023438 111.847656 250.800781 111.773438 C 250.125 111.621094 248.101562 108.847656 248.175781 108.246094 C 248.25 108.023438 248.851562 107.871094 248.851562 107.871094 " clip-rule="nonzero"/></clipPath><clipPath id="19602bd4b9"><path d="M 264.628906 87.5 L 272.222656 87.5 L 272.222656 98.679688 L 264.628906 98.679688 Z M 264.628906 87.5 " clip-rule="nonzero"/></clipPath><clipPath id="15f036646b"><path d="M 265.425781 87.847656 C 268.574219 94.445312 272.175781 97.371094 272.101562 98.121094 C 272.101562 98.421875 271.5 98.570312 271.5 98.570312 C 271.574219 98.648438 272.175781 98.347656 272.175781 98.347656 C 272.175781 98.347656 271.800781 98.648438 271.574219 98.648438 C 270.976562 98.570312 270 97.222656 269.25 96.398438 C 268.425781 95.347656 267.523438 94.222656 266.773438 92.945312 C 265.949219 91.597656 264.75 89.195312 264.675781 88.296875 C 264.675781 87.921875 264.675781 87.621094 264.824219 87.546875 C 264.976562 87.472656 265.425781 87.847656 265.425781 87.847656 " clip-rule="nonzero"/></clipPath><clipPath id="fd4d4f8af8"><path d="M 264.460938 87.535156 L 271.960938 87.535156 L 271.960938 97.972656 L 264.460938 97.972656 Z M 264.460938 87.535156 " clip-rule="nonzero"/></clipPath><clipPath id="7c90808454"><path d="M 265.273438 87.546875 C 267.898438 93.097656 272.023438 96.472656 271.949219 97.445312 C 271.949219 97.671875 271.726562 97.898438 271.5 97.972656 C 271.050781 97.972656 270.226562 96.921875 269.550781 96.246094 C 268.726562 95.273438 267.75 94.148438 266.925781 92.796875 C 266.023438 91.371094 264.300781 88.523438 264.523438 87.847656 C 264.675781 87.621094 265.273438 87.546875 265.273438 87.546875 " clip-rule="nonzero"/></clipPath><clipPath id="ae37fbeafd"><path d="M 264.738281 88.734375 L 271.511719 88.734375 L 271.511719 97.449219 L 264.738281 97.449219 Z M 264.738281 88.734375 " clip-rule="nonzero"/></clipPath><clipPath id="fa77c4001e"><path d="M 265.273438 88.746094 C 271.5 97.222656 270.976562 97.445312 270.976562 97.445312 C 270.976562 97.445312 271.5 96.921875 271.5 96.921875 C 271.425781 96.847656 271.199219 97.371094 270.898438 97.371094 C 269.925781 97.296875 264.675781 90.320312 264.75 89.273438 C 264.75 88.972656 265.273438 88.746094 265.273438 88.746094 " clip-rule="nonzero"/></clipPath></defs><path fill="#ff3131" d="M 35.132812 166.609375 L 47.394531 178.871094 L 47.132812 178.613281 C 48.46875 179.949219 50.308594 180.773438 52.34375 180.773438 L 171.746094 180.773438 C 173.785156 180.773438 175.625 179.949219 176.960938 178.613281 C 178.296875 177.28125 179.121094 175.4375 179.121094 173.402344 L 179.121094 54 C 179.121094 51.960938 178.296875 50.121094 176.960938 48.785156 L 177.121094 48.890625 L 164.984375 36.785156 " fill-opacity="1" fill-rule="nonzero"/><g clip-path="url(#60a26d6e3a)"><path fill="#000000" d="M 171.746094 182.601562 L 52.34375 182.601562 C 50.078125 182.601562 47.9375 181.785156 46.253906 180.296875 C 46.210938 180.261719 46.167969 180.226562 46.125 180.1875 L 46.058594 180.121094 C 45.984375 180.054688 45.910156 179.980469 45.839844 179.90625 C 45.800781 179.871094 45.765625 179.835938 45.734375 179.792969 L 33.839844 167.894531 C 33.125 167.183594 33.125 166.023438 33.839844 165.308594 C 34.550781 164.597656 35.710938 164.597656 36.425781 165.308594 L 48.621094 177.5 C 49.644531 178.433594 50.953125 178.9375 52.34375 178.9375 L 171.746094 178.9375 C 173.230469 178.9375 174.621094 178.359375 175.667969 177.316406 C 176.71875 176.273438 177.289062 174.878906 177.289062 173.394531 L 177.289062 54 C 177.289062 52.515625 176.710938 51.128906 175.667969 50.078125 C 175.582031 49.992188 175.503906 49.894531 175.4375 49.796875 L 163.691406 38.078125 C 162.980469 37.363281 162.972656 36.207031 163.691406 35.492188 C 164.40625 34.78125 165.5625 34.773438 166.277344 35.492188 L 178.410156 47.597656 C 178.523438 47.707031 178.621094 47.835938 178.699219 47.960938 C 180.15625 49.632812 180.953125 51.753906 180.953125 54 L 180.953125 173.402344 C 180.953125 175.859375 179.996094 178.171875 178.257812 179.90625 C 176.523438 181.644531 174.210938 182.601562 171.753906 182.601562 Z M 171.746094 182.601562 " fill-opacity="1" fill-rule="nonzero"/></g><path fill="#ffffff" d="M 40.148438 34.433594 L 159.550781 34.433594 C 160.035156 34.433594 160.515625 34.480469 160.992188 34.574219 C 161.464844 34.667969 161.925781 34.808594 162.375 34.992188 C 162.820312 35.179688 163.246094 35.40625 163.648438 35.675781 C 164.050781 35.945312 164.421875 36.25 164.765625 36.589844 C 165.105469 36.933594 165.414062 37.304688 165.683594 37.707031 C 165.949219 38.109375 166.175781 38.535156 166.363281 38.984375 C 166.546875 39.429688 166.6875 39.890625 166.78125 40.367188 C 166.875 40.839844 166.925781 41.320312 166.925781 41.804688 L 166.925781 161.207031 C 166.925781 161.691406 166.875 162.171875 166.78125 162.644531 C 166.6875 163.121094 166.546875 163.582031 166.363281 164.027344 C 166.175781 164.476562 165.949219 164.898438 165.683594 165.300781 C 165.414062 165.703125 165.105469 166.078125 164.765625 166.417969 C 164.421875 166.761719 164.050781 167.066406 163.648438 167.335938 C 163.246094 167.605469 162.820312 167.832031 162.375 168.015625 C 161.925781 168.203125 161.464844 168.34375 160.992188 168.4375 C 160.515625 168.53125 160.035156 168.578125 159.550781 168.578125 L 40.148438 168.578125 C 39.664062 168.578125 39.1875 168.53125 38.710938 168.4375 C 38.238281 168.34375 37.777344 168.203125 37.328125 168.015625 C 36.882812 167.832031 36.457031 167.605469 36.054688 167.335938 C 35.652344 167.066406 35.277344 166.761719 34.9375 166.417969 C 34.59375 166.078125 34.289062 165.703125 34.019531 165.300781 C 33.75 164.898438 33.523438 164.476562 33.339844 164.027344 C 33.152344 163.582031 33.015625 163.121094 32.917969 162.644531 C 32.824219 162.171875 32.777344 161.691406 32.777344 161.207031 L 32.777344 41.804688 C 32.777344 41.320312 32.824219 40.839844 32.917969 40.367188 C 33.015625 39.890625 33.152344 39.429688 33.339844 38.984375 C 33.523438 38.535156 33.75 38.109375 34.019531 37.707031 C 34.289062 37.304688 34.59375 36.933594 34.9375 36.589844 C 35.277344 36.25 35.652344 35.945312 36.054688 35.675781 C 36.457031 35.40625 36.882812 35.179688 37.328125 34.992188 C 37.777344 34.808594 38.238281 34.667969 38.710938 34.574219 C 39.1875 34.480469 39.664062 34.433594 40.148438 34.433594 Z M 40.148438 34.433594 " fill-opacity="1" fill-rule="nonzero"/><g clip-path="url(#6a1550a847)"><path fill="#000000" d="M 65.550781 170.40625 L 40.148438 170.40625 C 35.078125 170.40625 30.949219 166.28125 30.949219 161.207031 L 30.949219 154.628906 C 30.949219 153.613281 31.765625 152.796875 32.777344 152.796875 C 33.789062 152.796875 34.605469 153.613281 34.605469 154.628906 L 34.605469 161.207031 C 34.605469 164.261719 37.09375 166.75 40.148438 166.75 L 65.550781 166.75 C 66.5625 166.75 67.382812 167.566406 67.382812 168.578125 C 67.382812 169.589844 66.5625 170.40625 65.550781 170.40625 Z M 65.550781 170.40625 " fill-opacity="1" fill-rule="nonzero"/></g><path fill="#000000" d="M 159.550781 170.40625 L 76.691406 170.40625 C 75.679688 170.40625 74.863281 169.589844 74.863281 168.578125 C 74.863281 167.566406 75.679688 166.75 76.691406 166.75 L 159.550781 166.75 C 162.605469 166.75 165.09375 164.261719 165.09375 161.207031 L 165.09375 84.65625 C 165.09375 83.644531 165.910156 82.828125 166.925781 82.828125 C 167.9375 82.828125 168.753906 83.644531 168.753906 84.65625 L 168.753906 161.207031 C 168.753906 166.28125 164.625 170.40625 159.550781 170.40625 Z M 159.550781 170.40625 " fill-opacity="1" fill-rule="nonzero"/><g clip-path="url(#989f2ad827)"><path fill="#000000" d="M 32.777344 147.03125 C 31.765625 147.03125 30.949219 146.210938 30.949219 145.199219 L 30.949219 41.804688 C 30.949219 36.730469 35.078125 32.601562 40.148438 32.601562 L 159.550781 32.601562 C 164.625 32.601562 168.753906 36.730469 168.753906 41.804688 L 168.753906 70.035156 C 168.753906 71.046875 167.9375 71.863281 166.925781 71.863281 C 165.910156 71.863281 165.09375 71.046875 165.09375 70.035156 L 165.09375 41.804688 C 165.09375 38.75 162.605469 36.261719 159.550781 36.261719 L 40.148438 36.261719 C 37.09375 36.261719 34.605469 38.75 34.605469 41.804688 L 34.605469 145.199219 C 34.605469 146.210938 33.789062 147.03125 32.777344 147.03125 Z M 32.777344 147.03125 " fill-opacity="1" fill-rule="nonzero"/></g><path fill="#ffde59" d="M 192.714844 166.609375 L 204.976562 178.871094 L 204.714844 178.613281 C 206.050781 179.949219 207.890625 180.773438 209.929688 180.773438 L 329.332031 180.773438 C 331.367188 180.773438 333.207031 179.949219 334.542969 178.613281 C 335.878906 177.28125 336.703125 175.4375 336.703125 173.402344 L 336.703125 54 C 336.703125 51.960938 335.878906 50.121094 334.542969 48.785156 L 334.703125 48.890625 L 322.566406 36.785156 " fill-opacity="1" fill-rule="nonzero"/><g clip-path="url(#6a161111a7)"><path fill="#000000" d="M 329.332031 182.601562 L 209.929688 182.601562 C 207.660156 182.601562 205.519531 181.785156 203.835938 180.296875 C 203.792969 180.261719 203.75 180.226562 203.707031 180.1875 L 203.640625 180.121094 C 203.566406 180.054688 203.496094 179.980469 203.421875 179.90625 C 203.386719 179.871094 203.347656 179.835938 203.316406 179.792969 L 191.421875 167.894531 C 190.707031 167.183594 190.707031 166.023438 191.421875 165.308594 C 192.136719 164.597656 193.292969 164.597656 194.007812 165.308594 L 206.203125 177.5 C 207.226562 178.433594 208.539062 178.9375 209.929688 178.9375 L 329.332031 178.9375 C 330.8125 178.9375 332.203125 178.359375 333.25 177.316406 C 334.300781 176.273438 334.871094 174.878906 334.871094 173.394531 L 334.871094 54 C 334.871094 52.515625 334.292969 51.128906 333.25 50.078125 C 333.164062 49.992188 333.085938 49.894531 333.019531 49.796875 L 321.277344 38.078125 C 320.5625 37.363281 320.554688 36.207031 321.277344 35.492188 C 321.988281 34.78125 323.148438 34.773438 323.859375 35.492188 L 335.996094 47.597656 C 336.105469 47.707031 336.203125 47.835938 336.28125 47.960938 C 337.738281 49.632812 338.539062 51.753906 338.539062 54 L 338.539062 173.402344 C 338.539062 175.859375 337.582031 178.171875 335.84375 179.90625 C 334.105469 181.644531 331.792969 182.601562 329.335938 182.601562 Z M 329.332031 182.601562 " fill-opacity="1" fill-rule="nonzero"/></g><path fill="#ffffff" d="M 197.734375 34.433594 L 317.136719 34.433594 C 317.621094 34.433594 318.097656 34.480469 318.574219 34.574219 C 319.046875 34.667969 319.507812 34.808594 319.957031 34.992188 C 320.402344 35.179688 320.828125 35.40625 321.230469 35.675781 C 321.632812 35.945312 322.003906 36.25 322.347656 36.589844 C 322.691406 36.933594 322.996094 37.304688 323.265625 37.707031 C 323.535156 38.109375 323.761719 38.535156 323.945312 38.984375 C 324.132812 39.429688 324.269531 39.890625 324.367188 40.367188 C 324.460938 40.839844 324.507812 41.320312 324.507812 41.804688 L 324.507812 161.207031 C 324.507812 161.691406 324.460938 162.171875 324.367188 162.644531 C 324.269531 163.121094 324.132812 163.582031 323.945312 164.027344 C 323.761719 164.476562 323.535156 164.898438 323.265625 165.300781 C 322.996094 165.703125 322.691406 166.078125 322.347656 166.417969 C 322.003906 166.761719 321.632812 167.066406 321.230469 167.335938 C 320.828125 167.605469 320.402344 167.832031 319.957031 168.015625 C 319.507812 168.203125 319.046875 168.34375 318.574219 168.4375 C 318.097656 168.53125 317.621094 168.578125 317.136719 168.578125 L 197.734375 168.578125 C 197.25 168.578125 196.769531 168.53125 196.292969 168.4375 C 195.820312 168.34375 195.359375 168.203125 194.910156 168.015625 C 194.464844 167.832031 194.039062 167.605469 193.636719 167.335938 C 193.234375 167.066406 192.863281 166.761719 192.519531 166.417969 C 192.179688 166.078125 191.871094 165.703125 191.601562 165.300781 C 191.335938 164.898438 191.105469 164.476562 190.921875 164.027344 C 190.738281 163.582031 190.597656 163.121094 190.503906 162.644531 C 190.40625 162.171875 190.359375 161.691406 190.359375 161.207031 L 190.359375 41.804688 C 190.359375 41.320312 190.40625 40.839844 190.503906 40.367188 C 190.597656 39.890625 190.738281 39.429688 190.921875 38.984375 C 191.105469 38.535156 191.335938 38.109375 191.601562 37.707031 C 191.871094 37.304688 192.179688 36.933594 192.519531 36.589844 C 192.863281 36.25 193.234375 35.945312 193.636719 35.675781 C 194.039062 35.40625 194.464844 35.179688 194.910156 34.992188 C 195.359375 34.808594 195.820312 34.667969 196.292969 34.574219 C 196.769531 34.480469 197.25 34.433594 197.734375 34.433594 Z M 197.734375 34.433594 " fill-opacity="1" fill-rule="nonzero"/><g clip-path="url(#21531fc924)"><path fill="#000000" d="M 223.136719 170.40625 L 197.734375 170.40625 C 192.660156 170.40625 188.53125 166.28125 188.53125 161.207031 L 188.53125 154.628906 C 188.53125 153.613281 189.347656 152.796875 190.359375 152.796875 C 191.371094 152.796875 192.191406 153.613281 192.191406 154.628906 L 192.191406 161.207031 C 192.191406 164.261719 194.679688 166.75 197.734375 166.75 L 223.136719 166.75 C 224.148438 166.75 224.964844 167.566406 224.964844 168.578125 C 224.964844 169.589844 224.148438 170.40625 223.136719 170.40625 Z M 223.136719 170.40625 " fill-opacity="1" fill-rule="nonzero"/></g><path fill="#000000" d="M 317.136719 170.40625 L 234.277344 170.40625 C 233.261719 170.40625 232.445312 169.589844 232.445312 168.578125 C 232.445312 167.566406 233.261719 166.75 234.277344 166.75 L 317.136719 166.75 C 320.191406 166.75 322.679688 164.261719 322.679688 161.207031 L 322.679688 84.65625 C 322.679688 83.644531 323.496094 82.828125 324.507812 82.828125 C 325.519531 82.828125 326.335938 83.644531 326.335938 84.65625 L 326.335938 161.207031 C 326.335938 166.28125 322.207031 170.40625 317.136719 170.40625 Z M 317.136719 170.40625 " fill-opacity="1" fill-rule="nonzero"/><g clip-path="url(#a2aae4e30e)"><path fill="#000000" d="M 190.359375 147.03125 C 189.347656 147.03125 188.53125 146.210938 188.53125 145.199219 L 188.53125 41.804688 C 188.53125 36.730469 192.660156 32.601562 197.734375 32.601562 L 317.136719 32.601562 C 322.207031 32.601562 326.335938 36.730469 326.335938 41.804688 L 326.335938 70.035156 C 326.335938 71.046875 325.519531 71.863281 324.507812 71.863281 C 323.496094 71.863281 322.679688 71.046875 322.679688 70.035156 L 322.679688 41.804688 C 322.679688 38.75 320.191406 36.261719 317.136719 36.261719 L 197.734375 36.261719 C 194.679688 36.261719 192.191406 38.75 192.191406 41.804688 L 192.191406 145.199219 C 192.191406 146.210938 191.371094 147.03125 190.359375 147.03125 Z M 190.359375 147.03125 " fill-opacity="1" fill-rule="nonzero"/></g><path fill="#5271ff" d="M 40.382812 326.402344 L 52.644531 338.664062 L 52.382812 338.410156 C 53.71875 339.746094 55.558594 340.566406 57.59375 340.566406 L 176.996094 340.566406 C 179.035156 340.566406 180.875 339.746094 182.210938 338.410156 C 183.546875 337.074219 184.371094 335.230469 184.371094 333.195312 L 184.371094 213.792969 C 184.371094 211.757812 183.546875 209.914062 182.210938 208.578125 L 182.371094 208.683594 L 170.234375 196.578125 " fill-opacity="1" fill-rule="nonzero"/><g clip-path="url(#5908d93e1b)"><path fill="#000000" d="M 176.996094 342.398438 L 57.59375 342.398438 C 55.328125 342.398438 53.1875 341.578125 51.503906 340.09375 C 51.460938 340.054688 51.417969 340.019531 51.375 339.980469 L 51.308594 339.914062 C 51.234375 339.847656 51.160156 339.773438 51.089844 339.703125 C 51.050781 339.664062 51.015625 339.628906 50.984375 339.585938 L 39.089844 327.691406 C 38.375 326.976562 38.375 325.816406 39.089844 325.105469 C 39.800781 324.390625 40.960938 324.390625 41.675781 325.105469 L 53.871094 337.292969 C 54.894531 338.226562 56.203125 338.730469 57.59375 338.730469 L 176.996094 338.730469 C 178.480469 338.730469 179.871094 338.152344 180.917969 337.109375 C 181.96875 336.066406 182.539062 334.671875 182.539062 333.191406 L 182.539062 213.792969 C 182.539062 212.3125 181.960938 210.921875 180.917969 209.871094 C 180.832031 209.789062 180.753906 209.691406 180.6875 209.59375 L 168.941406 197.871094 C 168.230469 197.160156 168.222656 196 168.941406 195.289062 C 169.65625 194.574219 170.8125 194.566406 171.527344 195.289062 L 183.660156 207.390625 C 183.773438 207.5 183.871094 207.628906 183.949219 207.757812 C 185.40625 209.425781 186.203125 211.550781 186.203125 213.792969 L 186.203125 333.195312 C 186.203125 335.652344 185.246094 337.964844 183.507812 339.703125 C 181.773438 341.441406 179.460938 342.398438 177.003906 342.398438 Z M 176.996094 342.398438 " fill-opacity="1" fill-rule="nonzero"/></g><path fill="#ffffff" d="M 45.398438 194.226562 L 164.800781 194.226562 C 165.285156 194.226562 165.765625 194.273438 166.242188 194.367188 C 166.714844 194.460938 167.175781 194.601562 167.625 194.789062 C 168.070312 194.972656 168.496094 195.199219 168.898438 195.46875 C 169.300781 195.738281 169.671875 196.042969 170.015625 196.386719 C 170.355469 196.726562 170.664062 197.101562 170.933594 197.503906 C 171.199219 197.90625 171.425781 198.328125 171.613281 198.777344 C 171.796875 199.222656 171.9375 199.683594 172.03125 200.160156 C 172.125 200.636719 172.175781 201.113281 172.175781 201.597656 L 172.175781 321 C 172.175781 321.484375 172.125 321.964844 172.03125 322.4375 C 171.9375 322.914062 171.796875 323.375 171.613281 323.820312 C 171.425781 324.269531 171.199219 324.695312 170.933594 325.097656 C 170.664062 325.5 170.355469 325.871094 170.015625 326.214844 C 169.671875 326.554688 169.300781 326.859375 168.898438 327.128906 C 168.496094 327.398438 168.070312 327.625 167.625 327.8125 C 167.175781 327.996094 166.714844 328.136719 166.242188 328.230469 C 165.765625 328.324219 165.285156 328.371094 164.800781 328.371094 L 45.398438 328.371094 C 44.914062 328.371094 44.4375 328.324219 43.960938 328.230469 C 43.488281 328.136719 43.027344 327.996094 42.578125 327.8125 C 42.132812 327.625 41.707031 327.398438 41.304688 327.128906 C 40.902344 326.859375 40.527344 326.554688 40.1875 326.214844 C 39.84375 325.871094 39.539062 325.5 39.269531 325.097656 C 39 324.695312 38.773438 324.269531 38.589844 323.820312 C 38.402344 323.375 38.265625 322.914062 38.167969 322.4375 C 38.074219 321.964844 38.027344 321.484375 38.027344 321 L 38.027344 201.597656 C 38.027344 201.113281 38.074219 200.636719 38.167969 200.160156 C 38.265625 199.683594 38.402344 199.222656 38.589844 198.777344 C 38.773438 198.328125 39 197.90625 39.269531 197.503906 C 39.539062 197.101562 39.84375 196.726562 40.1875 196.386719 C 40.527344 196.042969 40.902344 195.738281 41.304688 195.46875 C 41.707031 195.199219 42.132812 194.972656 42.578125 194.789062 C 43.027344 194.601562 43.488281 194.460938 43.960938 194.367188 C 44.4375 194.273438 44.914062 194.226562 45.398438 194.226562 Z M 45.398438 194.226562 " fill-opacity="1" fill-rule="nonzero"/><g clip-path="url(#7445597915)"><path fill="#000000" d="M 70.800781 330.203125 L 45.398438 330.203125 C 40.328125 330.203125 36.199219 326.074219 36.199219 321 L 36.199219 314.421875 C 36.199219 313.410156 37.015625 312.59375 38.027344 312.59375 C 39.039062 312.59375 39.855469 313.410156 39.855469 314.421875 L 39.855469 321 C 39.855469 324.054688 42.34375 326.542969 45.398438 326.542969 L 70.800781 326.542969 C 71.8125 326.542969 72.632812 327.359375 72.632812 328.371094 C 72.632812 329.386719 71.8125 330.203125 70.800781 330.203125 Z M 70.800781 330.203125 " fill-opacity="1" fill-rule="nonzero"/></g><path fill="#000000" d="M 164.800781 330.203125 L 81.941406 330.203125 C 80.929688 330.203125 80.113281 329.386719 80.113281 328.371094 C 80.113281 327.359375 80.929688 326.542969 81.941406 326.542969 L 164.800781 326.542969 C 167.855469 326.542969 170.34375 324.054688 170.34375 321 L 170.34375 244.453125 C 170.34375 243.441406 171.160156 242.621094 172.175781 242.621094 C 173.1875 242.621094 174.003906 243.441406 174.003906 244.453125 L 174.003906 321 C 174.003906 326.074219 169.875 330.203125 164.800781 330.203125 Z M 164.800781 330.203125 " fill-opacity="1" fill-rule="nonzero"/><g clip-path="url(#74232b2bbc)"><path fill="#000000" d="M 38.027344 306.824219 C 37.015625 306.824219 36.199219 306.007812 36.199219 304.996094 L 36.199219 201.597656 C 36.199219 196.523438 40.328125 192.398438 45.398438 192.398438 L 164.800781 192.398438 C 169.875 192.398438 174.003906 196.523438 174.003906 201.597656 L 174.003906 229.828125 C 174.003906 230.84375 173.1875 231.660156 172.175781 231.660156 C 171.160156 231.660156 170.34375 230.84375 170.34375 229.828125 L 170.34375 201.597656 C 170.34375 198.542969 167.855469 196.054688 164.800781 196.054688 L 45.398438 196.054688 C 42.34375 196.054688 39.855469 198.542969 39.855469 201.597656 L 39.855469 304.996094 C 39.855469 306.007812 39.039062 306.824219 38.027344 306.824219 Z M 38.027344 306.824219 " fill-opacity="1" fill-rule="nonzero"/></g><path fill="#00bf63" d="M 198.234375 326.402344 L 210.496094 338.664062 L 210.234375 338.410156 C 211.570312 339.746094 213.410156 340.566406 215.449219 340.566406 L 334.851562 340.566406 C 336.886719 340.566406 338.726562 339.746094 340.0625 338.410156 C 341.398438 337.074219 342.222656 335.230469 342.222656 333.195312 L 342.222656 213.792969 C 342.222656 211.757812 341.398438 209.914062 340.0625 208.578125 L 340.222656 208.683594 L 328.089844 196.578125 " fill-opacity="1" fill-rule="nonzero"/><g clip-path="url(#f7a7558489)"><path fill="#000000" d="M 334.851562 342.398438 L 215.449219 342.398438 C 213.179688 342.398438 211.039062 341.578125 209.355469 340.09375 C 209.3125 340.054688 209.269531 340.019531 209.226562 339.980469 L 209.160156 339.914062 C 209.089844 339.847656 209.015625 339.773438 208.941406 339.703125 C 208.90625 339.664062 208.867188 339.628906 208.839844 339.585938 L 196.941406 327.691406 C 196.226562 326.976562 196.226562 325.816406 196.941406 325.105469 C 197.65625 324.390625 198.8125 324.390625 199.527344 325.105469 L 211.722656 337.292969 C 212.746094 338.226562 214.058594 338.730469 215.449219 338.730469 L 334.851562 338.730469 C 336.332031 338.730469 337.722656 338.152344 338.769531 337.109375 C 339.820312 336.066406 340.394531 334.671875 340.394531 333.191406 L 340.394531 213.792969 C 340.394531 212.3125 339.8125 210.921875 338.769531 209.871094 C 338.6875 209.789062 338.605469 209.691406 338.539062 209.59375 L 326.796875 197.871094 C 326.082031 197.160156 326.074219 196 326.796875 195.289062 C 327.507812 194.574219 328.667969 194.566406 329.378906 195.289062 L 341.515625 207.390625 C 341.625 207.5 341.722656 207.628906 341.800781 207.757812 C 343.257812 209.425781 344.058594 211.550781 344.058594 213.792969 L 344.058594 333.195312 C 344.058594 335.652344 343.101562 337.964844 341.363281 339.703125 C 339.625 341.441406 337.3125 342.398438 334.855469 342.398438 Z M 334.851562 342.398438 " fill-opacity="1" fill-rule="nonzero"/></g><path fill="#ffffff" d="M 203.253906 194.226562 L 322.65625 194.226562 C 323.140625 194.226562 323.617188 194.273438 324.09375 194.367188 C 324.566406 194.460938 325.027344 194.601562 325.476562 194.789062 C 325.921875 194.972656 326.347656 195.199219 326.75 195.46875 C 327.152344 195.738281 327.527344 196.042969 327.867188 196.386719 C 328.210938 196.726562 328.515625 197.101562 328.785156 197.503906 C 329.054688 197.90625 329.28125 198.328125 329.464844 198.777344 C 329.652344 199.222656 329.789062 199.683594 329.886719 200.160156 C 329.980469 200.636719 330.027344 201.113281 330.027344 201.597656 L 330.027344 321 C 330.027344 321.484375 329.980469 321.964844 329.886719 322.4375 C 329.789062 322.914062 329.652344 323.375 329.464844 323.820312 C 329.28125 324.269531 329.054688 324.695312 328.785156 325.097656 C 328.515625 325.5 328.210938 325.871094 327.867188 326.214844 C 327.527344 326.554688 327.152344 326.859375 326.75 327.128906 C 326.347656 327.398438 325.921875 327.625 325.476562 327.8125 C 325.027344 327.996094 324.566406 328.136719 324.09375 328.230469 C 323.617188 328.324219 323.140625 328.371094 322.65625 328.371094 L 203.253906 328.371094 C 202.769531 328.371094 202.289062 328.324219 201.816406 328.230469 C 201.339844 328.136719 200.878906 327.996094 200.429688 327.8125 C 199.984375 327.625 199.558594 327.398438 199.15625 327.128906 C 198.753906 326.859375 198.382812 326.554688 198.039062 326.214844 C 197.699219 325.871094 197.390625 325.5 197.125 325.097656 C 196.855469 324.695312 196.628906 324.269531 196.441406 323.820312 C 196.257812 323.375 196.117188 322.914062 196.023438 322.4375 C 195.929688 321.964844 195.878906 321.484375 195.878906 321 L 195.878906 201.597656 C 195.878906 201.113281 195.929688 200.636719 196.023438 200.160156 C 196.117188 199.683594 196.257812 199.222656 196.441406 198.777344 C 196.628906 198.328125 196.855469 197.90625 197.125 197.503906 C 197.390625 197.101562 197.699219 196.726562 198.039062 196.386719 C 198.382812 196.042969 198.753906 195.738281 199.15625 195.46875 C 199.558594 195.199219 199.984375 194.972656 200.429688 194.789062 C 200.878906 194.601562 201.339844 194.460938 201.816406 194.367188 C 202.289062 194.273438 202.769531 194.226562 203.253906 194.226562 Z M 203.253906 194.226562 " fill-opacity="1" fill-rule="nonzero"/><g clip-path="url(#4a8936f310)"><path fill="#000000" d="M 228.65625 330.203125 L 203.253906 330.203125 C 198.179688 330.203125 194.050781 326.074219 194.050781 321 L 194.050781 314.421875 C 194.050781 313.410156 194.867188 312.59375 195.878906 312.59375 C 196.894531 312.59375 197.710938 313.410156 197.710938 314.421875 L 197.710938 321 C 197.710938 324.054688 200.199219 326.542969 203.253906 326.542969 L 228.65625 326.542969 C 229.667969 326.542969 230.484375 327.359375 230.484375 328.371094 C 230.484375 329.386719 229.667969 330.203125 228.65625 330.203125 Z M 228.65625 330.203125 " fill-opacity="1" fill-rule="nonzero"/></g><path fill="#000000" d="M 322.65625 330.203125 L 239.796875 330.203125 C 238.78125 330.203125 237.964844 329.386719 237.964844 328.371094 C 237.964844 327.359375 238.78125 326.542969 239.796875 326.542969 L 322.65625 326.542969 C 325.710938 326.542969 328.199219 324.054688 328.199219 321 L 328.199219 244.453125 C 328.199219 243.441406 329.015625 242.621094 330.027344 242.621094 C 331.039062 242.621094 331.855469 243.441406 331.855469 244.453125 L 331.855469 321 C 331.855469 326.074219 327.726562 330.203125 322.65625 330.203125 Z M 322.65625 330.203125 " fill-opacity="1" fill-rule="nonzero"/><g clip-path="url(#57b1693a1b)"><path fill="#000000" d="M 195.878906 306.824219 C 194.867188 306.824219 194.050781 306.007812 194.050781 304.996094 L 194.050781 201.597656 C 194.050781 196.523438 198.179688 192.398438 203.253906 192.398438 L 322.65625 192.398438 C 327.726562 192.398438 331.855469 196.523438 331.855469 201.597656 L 331.855469 229.828125 C 331.855469 230.84375 331.039062 231.660156 330.027344 231.660156 C 329.015625 231.660156 328.199219 230.84375 328.199219 229.828125 L 328.199219 201.597656 C 328.199219 198.542969 325.710938 196.054688 322.65625 196.054688 L 203.253906 196.054688 C 200.199219 196.054688 197.710938 198.542969 197.710938 201.597656 L 197.710938 304.996094 C 197.710938 306.007812 196.894531 306.824219 195.878906 306.824219 Z M 195.878906 306.824219 " fill-opacity="1" fill-rule="nonzero"/></g><g clip-path="url(#2d482bd1ab)"><path fill="#000000" d="M 108.070312 228.472656 C 107.628906 227.703125 106.804688 227.230469 105.914062 227.230469 C 105.023438 227.230469 104.199219 227.703125 103.753906 228.472656 L 68.851562 288.757812 C 68.40625 289.527344 68.40625 290.476562 68.851562 291.246094 C 69.296875 292.011719 70.117188 292.488281 71.007812 292.488281 L 140.816406 292.488281 C 140.824219 292.488281 140.828125 292.488281 140.832031 292.488281 C 142.210938 292.488281 143.324219 291.375 143.324219 290 C 143.324219 289.453125 143.148438 288.945312 142.84375 288.53125 Z M 75.328125 287.515625 L 105.914062 234.6875 L 136.5 287.515625 Z M 75.328125 287.515625 " fill-opacity="1" fill-rule="nonzero"/></g><g clip-path="url(#090643d87a)"><path fill="#000000" d="M 100.703125 62.851562 C 111.078125 62.851562 120.46875 67.058594 127.269531 73.855469 C 134.066406 80.65625 138.273438 90.046875 138.273438 100.421875 C 138.273438 110.792969 134.066406 120.1875 127.269531 126.984375 C 120.46875 133.785156 111.078125 137.988281 100.703125 137.988281 C 90.332031 137.988281 80.9375 133.785156 74.140625 126.984375 C 67.34375 120.1875 63.136719 110.792969 63.136719 100.421875 C 63.136719 90.046875 67.34375 80.65625 74.140625 73.855469 C 80.9375 67.058594 90.332031 62.851562 100.703125 62.851562 Z M 124.316406 76.808594 C 118.273438 70.765625 109.925781 67.027344 100.703125 67.027344 C 91.484375 67.027344 83.132812 70.765625 77.09375 76.808594 C 71.050781 82.851562 67.3125 91.199219 67.3125 100.421875 C 67.3125 109.640625 71.050781 117.992188 77.09375 124.035156 C 83.132812 130.078125 91.484375 133.816406 100.703125 133.816406 C 109.925781 133.816406 118.273438 130.078125 124.316406 124.035156 C 130.359375 117.992188 134.097656 109.640625 134.097656 100.421875 C 134.097656 91.199219 130.359375 82.851562 124.316406 76.808594 " fill-opacity="1" fill-rule="nonzero"/></g><g clip-path="url(#7d9794839f)"><path fill="#000000" d="M 245.933594 249.617188 L 251.601562 249.617188 L 245.933594 255.285156 L 233.394531 255.285156 L 233.394531 246.988281 L 225.097656 246.988281 L 229.234375 274.042969 L 229.234375 261.542969 L 234.902344 255.875 L 234.902344 261.542969 L 245.914062 261.542969 L 245.914062 284.460938 L 237.574219 292.800781 L 220.898438 292.800781 L 212.558594 284.460938 L 212.558594 242.789062 L 220.898438 234.449219 L 237.574219 234.449219 L 245.914062 242.789062 L 245.914062 249.617188 Z M 280.085938 234.449219 L 288.421875 242.789062 L 288.421875 284.460938 L 280.085938 292.800781 L 263.40625 292.800781 L 255.066406 284.460938 L 255.066406 242.789062 L 263.40625 234.449219 Z M 275.882812 246.988281 L 267.585938 246.988281 L 267.585938 280.320312 L 275.882812 280.320312 Z M 308.832031 287.132812 L 308.832031 280.320312 L 301.980469 280.320312 L 301.980469 276.121094 L 307.160156 276.121094 L 307.261719 274.632812 L 312.828125 270.433594 L 307.527344 270.433594 L 308.8125 251.125 L 308.8125 234.449219 L 301.960938 234.449219 L 301.960938 228.78125 L 296.292969 234.449219 L 296.292969 251.125 L 297.964844 276.101562 L 300.492188 276.101562 L 296.292969 280.300781 L 296.292969 292.800781 L 308.832031 292.800781 L 314.5 287.132812 Z M 308.832031 287.132812 " fill-opacity="1" fill-rule="nonzero"/></g><path fill="#ffde59" d="M 227.011719 286.070312 L 219.285156 278.34375 L 219.285156 237.546875 L 227.011719 229.839844 L 242.816406 229.839844 L 250.542969 237.546875 L 250.542969 248.558594 L 240.125 248.558594 L 240.125 240.257812 L 229.726562 240.257812 L 229.726562 275.695312 L 240.125 275.695312 L 240.125 267.3125 L 235.964844 267.3125 L 235.964844 256.9375 L 250.542969 256.9375 L 250.542969 278.363281 L 242.816406 286.070312 Z M 285.324219 286.070312 L 293.050781 278.34375 L 293.050781 237.546875 L 285.324219 229.839844 L 269.523438 229.839844 L 261.777344 237.546875 L 261.777344 278.34375 L 269.503906 286.070312 Z M 272.214844 240.257812 L 282.613281 240.257812 L 282.613281 275.695312 L 272.214844 275.695312 Z M 313.441406 286.070312 L 313.441406 275.695312 L 303.019531 275.695312 L 303.019531 286.070312 Z M 311.847656 269.394531 L 313.460938 245.457031 L 313.460938 229.839844 L 303.042969 229.839844 L 303.042969 245.398438 L 304.652344 269.394531 Z M 311.847656 269.394531 " fill-opacity="1" fill-rule="nonzero"/><g clip-path="url(#987c9c642f)"><path fill="#000000" d="M 242.386719 230.878906 L 249.5 237.996094 L 249.5 247.515625 L 241.183594 247.515625 L 241.183594 239.199219 L 228.664062 239.199219 L 228.664062 276.734375 L 241.164062 276.734375 L 241.164062 266.273438 L 237.023438 266.273438 L 237.023438 257.996094 L 249.5 257.996094 L 249.5 277.917969 L 242.386719 285.03125 L 227.441406 285.03125 L 220.347656 277.917969 L 220.347656 237.996094 L 227.441406 230.878906 L 242.386719 230.878906 M 243.261719 228.78125 L 226.566406 228.78125 L 218.226562 237.121094 L 218.226562 278.792969 L 226.566406 287.132812 L 243.242188 287.132812 L 251.582031 278.792969 L 251.582031 255.875 L 234.902344 255.875 L 234.902344 268.375 L 239.0625 268.375 L 239.0625 274.632812 L 230.765625 274.632812 L 230.765625 241.320312 L 239.0625 241.320312 L 239.0625 249.617188 L 251.601562 249.617188 L 251.601562 237.121094 Z M 284.875 230.878906 L 291.992188 237.996094 L 291.992188 277.917969 L 284.875 285.03125 L 269.929688 285.03125 L 262.835938 277.917969 L 262.835938 237.996094 L 269.953125 230.878906 L 284.875 230.878906 M 271.15625 276.753906 L 283.652344 276.753906 L 283.652344 239.199219 L 271.15625 239.199219 L 271.15625 276.753906 M 285.753906 228.78125 L 269.074219 228.78125 L 260.734375 237.121094 L 260.734375 278.792969 L 269.074219 287.132812 L 285.753906 287.132812 L 294.089844 278.792969 L 294.089844 237.121094 Z M 273.273438 274.632812 L 273.273438 241.320312 L 281.574219 241.320312 L 281.574219 274.652344 L 273.273438 274.652344 Z M 312.398438 230.878906 L 312.398438 245.398438 L 310.871094 268.332031 L 305.609375 268.332031 L 304.082031 245.375 L 304.082031 230.878906 L 312.398438 230.878906 M 312.398438 276.753906 L 312.398438 285.03125 L 304.082031 285.03125 L 304.082031 276.753906 L 312.398438 276.753906 M 314.5 228.78125 L 301.960938 228.78125 L 301.960938 245.457031 L 303.632812 270.433594 L 312.828125 270.433594 L 314.5 245.457031 Z M 314.5 274.632812 L 301.960938 274.632812 L 301.960938 287.132812 L 314.5 287.132812 Z M 314.5 274.632812 " fill-opacity="1" fill-rule="nonzero"/></g><g clip-path="url(#a0b083bbd0)"><g clip-path="url(#4e4b506bc5)"><path fill="#ff3131" d="M 66.714844 66.429688 L 134.707031 66.429688 L 134.707031 134.421875 L 66.714844 134.421875 Z M 66.714844 66.429688 " fill-opacity="1" fill-rule="nonzero"/></g></g><g clip-path="url(#3827c1ef4c)"><g clip-path="url(#d03fe46a2b)"><path fill="#5271ff" d="M 74.203125 233.207031 L 138.363281 233.207031 L 138.363281 288.886719 L 74.203125 288.886719 Z M 74.203125 233.207031 " fill-opacity="1" fill-rule="nonzero"/></g></g><g clip-path="url(#76d6ca03e0)"><path fill="#000000" d="M 266.429688 137.851562 L 249.761719 137.851562 C 247.472656 137.851562 245.597656 135.976562 245.597656 133.6875 L 245.597656 112.851562 L 224.761719 112.851562 C 222.472656 112.851562 220.597656 110.976562 220.597656 108.6875 L 220.597656 92.019531 C 220.597656 89.726562 222.472656 87.851562 224.761719 87.851562 L 245.597656 87.851562 L 245.597656 67.019531 C 245.597656 64.726562 247.472656 62.851562 249.761719 62.851562 L 266.429688 62.851562 C 268.722656 62.851562 270.597656 64.726562 270.597656 67.019531 L 270.597656 87.851562 L 291.429688 87.851562 C 293.722656 87.851562 295.597656 89.726562 295.597656 92.019531 L 295.597656 108.6875 C 295.597656 110.976562 293.722656 112.851562 291.429688 112.851562 L 270.597656 112.851562 L 270.597656 133.6875 C 270.597656 135.976562 268.722656 137.851562 266.429688 137.851562 Z M 224.761719 92.019531 L 224.761719 108.6875 L 245.597656 108.6875 C 247.886719 108.6875 249.761719 110.5625 249.761719 112.851562 L 249.761719 133.6875 L 266.429688 133.6875 L 266.429688 112.851562 C 266.429688 110.5625 268.304688 108.6875 270.597656 108.6875 L 291.429688 108.6875 L 291.429688 92.019531 L 270.597656 92.019531 C 268.304688 92.019531 266.429688 90.144531 266.429688 87.851562 L 266.429688 67.019531 L 249.761719 67.019531 L 249.761719 87.851562 C 249.761719 90.144531 247.886719 92.019531 245.597656 92.019531 Z M 224.761719 92.019531 " fill-opacity="1" fill-rule="nonzero"/></g><g clip-path="url(#e1d45bfa3a)"><path fill="#ffde59" d="M 249.375 66.902344 L 266.351562 66.902344 L 266.351562 133.949219 L 249.375 133.949219 Z M 249.375 66.902344 " fill-opacity="1" fill-rule="nonzero"/></g><g clip-path="url(#44aa5299b7)"><path fill="#ffde59" d="M 224.457031 108.90625 L 224.457031 91.929688 L 291.503906 91.929688 L 291.503906 108.90625 Z M 224.457031 108.90625 " fill-opacity="1" fill-rule="nonzero"/></g><g clip-path="url(#6ec07c3028)"><g clip-path="url(#a7857f3b47)"><path fill="#ffde59" d="M 246.523438 104.046875 L 254.628906 104.046875 L 254.628906 111.996094 L 246.523438 111.996094 Z M 246.523438 104.046875 " fill-opacity="1" fill-rule="nonzero"/></g></g><g clip-path="url(#5a8ac097c5)"><g clip-path="url(#b7c362919c)"><path fill="#ffde59" d="M 248.925781 93.023438 L 259.050781 93.023438 L 259.050781 113.867188 L 248.925781 113.867188 Z M 248.925781 93.023438 " fill-opacity="1" fill-rule="nonzero"/></g></g><g clip-path="url(#af45ddc396)"><g clip-path="url(#80e0d6243f)"><path fill="#ffde59" d="M 244.875 87.097656 L 255.375 87.097656 L 255.375 98.335938 L 244.875 98.335938 Z M 244.875 87.097656 " fill-opacity="1" fill-rule="nonzero"/></g></g><g clip-path="url(#ab447b1c6e)"><g clip-path="url(#19bdd653c6)"><path fill="#ffde59" d="M 245.25 88.445312 L 252.003906 88.445312 L 252.003906 94.972656 L 245.25 94.972656 Z M 245.25 88.445312 " fill-opacity="1" fill-rule="nonzero"/></g></g><g clip-path="url(#e32580d277)"><g clip-path="url(#c108776536)"><path fill="#ffde59" d="M 260.398438 85.746094 L 273.375 85.746094 L 273.375 99.382812 L 260.398438 99.382812 Z M 260.398438 85.746094 " fill-opacity="1" fill-rule="nonzero"/></g></g><g clip-path="url(#d5cdb54863)"><g clip-path="url(#b423cc6939)"><path fill="#ffde59" d="M 261.898438 85.972656 L 272.773438 85.972656 L 272.773438 98.632812 L 261.898438 98.632812 Z M 261.898438 85.972656 " fill-opacity="1" fill-rule="nonzero"/></g></g><g clip-path="url(#14198a051c)"><g clip-path="url(#b42768a34e)"><path fill="#ffde59" d="M 261.898438 85.972656 L 275.324219 85.972656 L 275.324219 102.859375 L 261.898438 102.859375 Z M 261.898438 85.972656 " fill-opacity="1" fill-rule="nonzero"/></g></g><g clip-path="url(#335db98e83)"><g clip-path="url(#29009b89e8)"><path fill="#ffde59" d="M 259.125 103.296875 L 272.773438 103.296875 L 272.773438 118.011719 L 259.125 118.011719 Z M 259.125 103.296875 " fill-opacity="1" fill-rule="nonzero"/></g></g><g clip-path="url(#13d5b97cfd)"><g clip-path="url(#63460e6265)"><path fill="#ffde59" d="M 259.351562 103.671875 L 273.300781 103.671875 L 273.300781 119.257812 L 259.351562 119.257812 Z M 259.351562 103.671875 " fill-opacity="1" fill-rule="nonzero"/></g></g><g clip-path="url(#0e50b2dac3)"><g clip-path="url(#a9a2256444)"><path fill="#ffde59" d="M 243.300781 104.496094 L 256.273438 104.496094 L 256.273438 117.171875 L 243.300781 117.171875 Z M 243.300781 104.496094 " fill-opacity="1" fill-rule="nonzero"/></g></g><g clip-path="url(#8d27777cc7)"><g clip-path="url(#93470bc932)"><path fill="#ffde59" d="M 244.800781 104.648438 L 256.273438 104.648438 L 256.273438 117.109375 L 244.800781 117.109375 Z M 244.800781 104.648438 " fill-opacity="1" fill-rule="nonzero"/></g></g><g clip-path="url(#c1ea5da3e6)"><g clip-path="url(#b735a18d19)"><path fill="#ffde59" d="M 246.675781 106.972656 L 255.375 106.972656 L 255.375 116.183594 L 246.675781 116.183594 Z M 246.675781 106.972656 " fill-opacity="1" fill-rule="nonzero"/></g></g><g clip-path="url(#0c5a90a9a2)"><g clip-path="url(#45f1a3fe55)"><path fill="#ffde59" d="M 245.925781 105.847656 L 255.675781 105.847656 L 255.675781 118.300781 L 245.925781 118.300781 Z M 245.925781 105.847656 " fill-opacity="1" fill-rule="nonzero"/></g></g><g clip-path="url(#3526bba9a6)"><g clip-path="url(#db2a3fbf13)"><path fill="#ffde59" d="M 244.351562 86.570312 L 256.042969 86.570312 L 256.042969 96.320312 L 244.351562 96.320312 Z M 244.351562 86.570312 " fill-opacity="1" fill-rule="nonzero"/></g></g><g clip-path="url(#0b2da23cc2)"><g clip-path="url(#ed0c7e35c4)"><path fill="#ffde59" d="M 242.398438 85.371094 L 256.339844 85.371094 L 256.339844 97.070312 L 242.398438 97.070312 Z M 242.398438 85.371094 " fill-opacity="1" fill-rule="nonzero"/></g></g><g clip-path="url(#f5062413aa)"><g clip-path="url(#108c1d1804)"><path fill="#ffde59" d="M 241.574219 84.921875 L 256.710938 84.921875 L 256.710938 96.773438 L 241.574219 96.773438 Z M 241.574219 84.921875 " fill-opacity="1" fill-rule="nonzero"/></g></g><g clip-path="url(#8ccb8bd762)"><g clip-path="url(#26ea50642d)"><path fill="#ffde59" d="M 243.976562 85.070312 L 255.300781 85.070312 L 255.300781 97.015625 L 243.976562 97.015625 Z M 243.976562 85.070312 " fill-opacity="1" fill-rule="nonzero"/></g></g><g clip-path="url(#914181132a)"><g clip-path="url(#252352d8f9)"><path fill="#ffde59" d="M 244.273438 83.722656 L 255.523438 83.722656 L 255.523438 98.046875 L 244.273438 98.046875 Z M 244.273438 83.722656 " fill-opacity="1" fill-rule="nonzero"/></g></g><g clip-path="url(#67fcf09991)"><g clip-path="url(#cbf4d65710)"><path fill="#ffde59" d="M 244.875 82.746094 L 256.648438 82.746094 L 256.648438 98.433594 L 244.875 98.433594 Z M 244.875 82.746094 " fill-opacity="1" fill-rule="nonzero"/></g></g><g clip-path="url(#9fbc19e3e6)"><g clip-path="url(#e0f9f8aa28)"><path fill="#ffde59" d="M 242.851562 84.472656 L 255.675781 84.472656 L 255.675781 98.699219 L 242.851562 98.699219 Z M 242.851562 84.472656 " fill-opacity="1" fill-rule="nonzero"/></g></g><g clip-path="url(#e0ff801674)"><g clip-path="url(#d942cd73ca)"><path fill="#ffde59" d="M 242.550781 82.371094 L 256.273438 82.371094 L 256.273438 96.902344 L 242.550781 96.902344 Z M 242.550781 82.371094 " fill-opacity="1" fill-rule="nonzero"/></g></g><g clip-path="url(#2bf009d985)"><g clip-path="url(#7d98ce7500)"><path fill="#ffde59" d="M 260.925781 85.148438 L 269.398438 85.148438 L 269.398438 94.382812 L 260.925781 94.382812 Z M 260.925781 85.148438 " fill-opacity="1" fill-rule="nonzero"/></g></g><g clip-path="url(#4355eb3a30)"><g clip-path="url(#4953c4bbdf)"><path fill="#ffde59" d="M 261.601562 85.371094 L 273.148438 85.371094 L 273.148438 98.863281 L 261.601562 98.863281 Z M 261.601562 85.371094 " fill-opacity="1" fill-rule="nonzero"/></g></g><g clip-path="url(#bbffe5b7c7)"><g clip-path="url(#5e7b691fa4)"><path fill="#ffde59" d="M 261 86.496094 L 273.621094 86.496094 L 273.621094 99.023438 L 261 99.023438 Z M 261 86.496094 " fill-opacity="1" fill-rule="nonzero"/></g></g><g clip-path="url(#af0b767ee9)"><g clip-path="url(#c94395bed1)"><path fill="#ffde59" d="M 262.199219 86.273438 L 272.925781 86.273438 L 272.925781 97.960938 L 262.199219 97.960938 Z M 262.199219 86.273438 " fill-opacity="1" fill-rule="nonzero"/></g></g><g clip-path="url(#2f34263a23)"><g clip-path="url(#9ede6f1e78)"><path fill="#ffde59" d="M 262.5 86.195312 L 273.675781 86.195312 L 273.675781 98.289062 L 262.5 98.289062 Z M 262.5 86.195312 " fill-opacity="1" fill-rule="nonzero"/></g></g><g clip-path="url(#c026d4fe78)"><g clip-path="url(#1d3da53bd9)"><path fill="#ffde59" d="M 262.648438 85.898438 L 275.476562 85.898438 L 275.476562 98.722656 L 262.648438 98.722656 Z M 262.648438 85.898438 " fill-opacity="1" fill-rule="nonzero"/></g></g><g clip-path="url(#cf4ddce57b)"><g clip-path="url(#3fd42f35c3)"><path fill="#ffde59" d="M 261.148438 84.996094 L 271.050781 84.996094 L 271.050781 96.019531 L 261.148438 96.019531 Z M 261.148438 84.996094 " fill-opacity="1" fill-rule="nonzero"/></g></g><g clip-path="url(#d4d4cfff5d)"><g clip-path="url(#41e5e56be5)"><path fill="#ffde59" d="M 261.375 102.996094 L 272.925781 102.996094 L 272.925781 116.214844 L 261.375 116.214844 Z M 261.375 102.996094 " fill-opacity="1" fill-rule="nonzero"/></g></g><g clip-path="url(#47925f8de8)"><g clip-path="url(#e6f307d8ca)"><path fill="#ffde59" d="M 262.800781 103.296875 L 274.8125 103.296875 L 274.8125 114.398438 L 262.800781 114.398438 Z M 262.800781 103.296875 " fill-opacity="1" fill-rule="nonzero"/></g></g><g clip-path="url(#9857b980c3)"><g clip-path="url(#fa52dbd6c1)"><path fill="#ffde59" d="M 261.226562 105.097656 L 271.875 105.097656 L 271.875 117.410156 L 261.226562 117.410156 Z M 261.226562 105.097656 " fill-opacity="1" fill-rule="nonzero"/></g></g><g clip-path="url(#c4e1d507c1)"><g clip-path="url(#0e3efb46d7)"><path fill="#ffde59" d="M 262.425781 105.171875 L 270.226562 105.171875 L 270.226562 118.820312 L 262.425781 118.820312 Z M 262.425781 105.171875 " fill-opacity="1" fill-rule="nonzero"/></g></g><g clip-path="url(#f6d14ccadc)"><g clip-path="url(#6f9efcd79d)"><path fill="#ffde59" d="M 245.175781 104.871094 L 254.476562 104.871094 L 254.476562 114.789062 L 245.175781 114.789062 Z M 245.175781 104.871094 " fill-opacity="1" fill-rule="nonzero"/></g></g><g clip-path="url(#19602bd4b9)"><g clip-path="url(#15f036646b)"><path fill="#ffde59" d="M 261.675781 84.546875 L 275.175781 84.546875 L 275.175781 101.632812 L 261.675781 101.632812 Z M 261.675781 84.546875 " fill-opacity="1" fill-rule="nonzero"/></g></g><g clip-path="url(#fd4d4f8af8)"><g clip-path="url(#7c90808454)"><path fill="#ffde59" d="M 261.523438 84.546875 L 274.949219 84.546875 L 274.949219 100.960938 L 261.523438 100.960938 Z M 261.523438 84.546875 " fill-opacity="1" fill-rule="nonzero"/></g></g><g clip-path="url(#ae37fbeafd)"><g clip-path="url(#fa77c4001e)"><path fill="#ffde59" d="M 261.75 85.746094 L 274.5 85.746094 L 274.5 100.4375 L 261.75 100.4375 Z M 261.75 85.746094 " fill-opacity="1" fill-rule="nonzero"/></g></g></svg>